%TF.GenerationSoftware,KiCad,Pcbnew,7.0.5*%
%TF.CreationDate,2024-09-21T21:15:24+03:00*%
%TF.ProjectId,MatterEverything_Board,4d617474-6572-4457-9665-72797468696e,rev?*%
%TF.SameCoordinates,Original*%
%TF.FileFunction,Drillmap*%
%TF.FilePolarity,Positive*%
%FSLAX45Y45*%
G04 Gerber Fmt 4.5, Leading zero omitted, Abs format (unit mm)*
G04 Created by KiCad (PCBNEW 7.0.5) date 2024-09-21 21:15:24*
%MOMM*%
%LPD*%
G01*
G04 APERTURE LIST*
%ADD10C,0.038100*%
%ADD11C,0.200000*%
%ADD12C,0.100000*%
%ADD13C,0.120000*%
%ADD14C,0.250000*%
G04 APERTURE END LIST*
D10*
X20574000Y-8128000D02*
X20574000Y-8382000D01*
X15367000Y-8128000D02*
X20574000Y-8128000D01*
X15367000Y-8382000D02*
X15367000Y-8128000D01*
X20574000Y-13335000D02*
X20574000Y-8382000D01*
X15367000Y-13335000D02*
X20574000Y-13335000D01*
X15367000Y-8382000D02*
X15367000Y-13335000D01*
D11*
D12*
X15698000Y-9475000D02*
X15798000Y-9575000D01*
X15798000Y-9475000D02*
X15698000Y-9575000D01*
X15698000Y-9729000D02*
X15798000Y-9829000D01*
X15798000Y-9729000D02*
X15698000Y-9829000D01*
X15698000Y-9983000D02*
X15798000Y-10083000D01*
X15798000Y-9983000D02*
X15698000Y-10083000D01*
X15698000Y-11761000D02*
X15798000Y-11861000D01*
X15798000Y-11761000D02*
X15698000Y-11861000D01*
X15698000Y-12015000D02*
X15798000Y-12115000D01*
X15798000Y-12015000D02*
X15698000Y-12115000D01*
X15698000Y-12269000D02*
X15798000Y-12369000D01*
X15798000Y-12269000D02*
X15698000Y-12369000D01*
X16460000Y-9221000D02*
X16560000Y-9321000D01*
X16560000Y-9221000D02*
X16460000Y-9321000D01*
X16460000Y-9475000D02*
X16560000Y-9575000D01*
X16560000Y-9475000D02*
X16460000Y-9575000D01*
X16460000Y-9729000D02*
X16560000Y-9829000D01*
X16560000Y-9729000D02*
X16460000Y-9829000D01*
X16460000Y-9983000D02*
X16560000Y-10083000D01*
X16560000Y-9983000D02*
X16460000Y-10083000D01*
X16460000Y-10237000D02*
X16560000Y-10337000D01*
X16560000Y-10237000D02*
X16460000Y-10337000D01*
X16460000Y-10491000D02*
X16560000Y-10591000D01*
X16560000Y-10491000D02*
X16460000Y-10591000D01*
X16460000Y-10745000D02*
X16560000Y-10845000D01*
X16560000Y-10745000D02*
X16460000Y-10845000D01*
X16460000Y-10999000D02*
X16560000Y-11099000D01*
X16560000Y-10999000D02*
X16460000Y-11099000D01*
X16460000Y-11253000D02*
X16560000Y-11353000D01*
X16560000Y-11253000D02*
X16460000Y-11353000D01*
X16460000Y-11507000D02*
X16560000Y-11607000D01*
X16560000Y-11507000D02*
X16460000Y-11607000D01*
X16460000Y-11761000D02*
X16560000Y-11861000D01*
X16560000Y-11761000D02*
X16460000Y-11861000D01*
X16460000Y-12015000D02*
X16560000Y-12115000D01*
X16560000Y-12015000D02*
X16460000Y-12115000D01*
X16460000Y-12269000D02*
X16560000Y-12369000D01*
X16560000Y-12269000D02*
X16460000Y-12369000D01*
X16460000Y-12523000D02*
X16560000Y-12623000D01*
X16560000Y-12523000D02*
X16460000Y-12623000D01*
X16460000Y-12777000D02*
X16560000Y-12877000D01*
X16560000Y-12777000D02*
X16460000Y-12877000D01*
X17984000Y-9221000D02*
X18084000Y-9321000D01*
X18084000Y-9221000D02*
X17984000Y-9321000D01*
X17984000Y-9475000D02*
X18084000Y-9575000D01*
X18084000Y-9475000D02*
X17984000Y-9575000D01*
X17984000Y-9729000D02*
X18084000Y-9829000D01*
X18084000Y-9729000D02*
X17984000Y-9829000D01*
X17984000Y-9983000D02*
X18084000Y-10083000D01*
X18084000Y-9983000D02*
X17984000Y-10083000D01*
X17984000Y-10237000D02*
X18084000Y-10337000D01*
X18084000Y-10237000D02*
X17984000Y-10337000D01*
X17984000Y-10491000D02*
X18084000Y-10591000D01*
X18084000Y-10491000D02*
X17984000Y-10591000D01*
X17984000Y-10745000D02*
X18084000Y-10845000D01*
X18084000Y-10745000D02*
X17984000Y-10845000D01*
X17984000Y-10999000D02*
X18084000Y-11099000D01*
X18084000Y-10999000D02*
X17984000Y-11099000D01*
X17984000Y-11253000D02*
X18084000Y-11353000D01*
X18084000Y-11253000D02*
X17984000Y-11353000D01*
X17984000Y-11507000D02*
X18084000Y-11607000D01*
X18084000Y-11507000D02*
X17984000Y-11607000D01*
X17984000Y-11761000D02*
X18084000Y-11861000D01*
X18084000Y-11761000D02*
X17984000Y-11861000D01*
X17984000Y-12015000D02*
X18084000Y-12115000D01*
X18084000Y-12015000D02*
X17984000Y-12115000D01*
X17984000Y-12269000D02*
X18084000Y-12369000D01*
X18084000Y-12269000D02*
X17984000Y-12369000D01*
X17984000Y-12523000D02*
X18084000Y-12623000D01*
X18084000Y-12523000D02*
X17984000Y-12623000D01*
X17984000Y-12777000D02*
X18084000Y-12877000D01*
X18084000Y-12777000D02*
X17984000Y-12877000D01*
X18619000Y-8332000D02*
X18719000Y-8432000D01*
X18719000Y-8332000D02*
X18619000Y-8432000D01*
X18619000Y-8832000D02*
X18719000Y-8932000D01*
X18719000Y-8832000D02*
X18619000Y-8932000D01*
X19119000Y-8582000D02*
X19219000Y-8682000D01*
X19219000Y-8582000D02*
X19119000Y-8682000D01*
D13*
X19872000Y-8636000D02*
G75*
G03*
X19872000Y-8636000I-60000J0D01*
G01*
X19872000Y-8890000D02*
G75*
G03*
X19872000Y-8890000I-60000J0D01*
G01*
X19872000Y-9144000D02*
G75*
G03*
X19872000Y-9144000I-60000J0D01*
G01*
X19872000Y-9398000D02*
G75*
G03*
X19872000Y-9398000I-60000J0D01*
G01*
X19872000Y-9652000D02*
G75*
G03*
X19872000Y-9652000I-60000J0D01*
G01*
X19872000Y-9906000D02*
G75*
G03*
X19872000Y-9906000I-60000J0D01*
G01*
X19872000Y-10160000D02*
G75*
G03*
X19872000Y-10160000I-60000J0D01*
G01*
X19872000Y-10414000D02*
G75*
G03*
X19872000Y-10414000I-60000J0D01*
G01*
X19872000Y-10668000D02*
G75*
G03*
X19872000Y-10668000I-60000J0D01*
G01*
X19872000Y-10922000D02*
G75*
G03*
X19872000Y-10922000I-60000J0D01*
G01*
X19872000Y-11176000D02*
G75*
G03*
X19872000Y-11176000I-60000J0D01*
G01*
X19872000Y-11430000D02*
G75*
G03*
X19872000Y-11430000I-60000J0D01*
G01*
X19872000Y-11684000D02*
G75*
G03*
X19872000Y-11684000I-60000J0D01*
G01*
X19872000Y-11938000D02*
G75*
G03*
X19872000Y-11938000I-60000J0D01*
G01*
X19872000Y-12192000D02*
G75*
G03*
X19872000Y-12192000I-60000J0D01*
G01*
X19872000Y-12446000D02*
G75*
G03*
X19872000Y-12446000I-60000J0D01*
G01*
D14*
X19812000Y-7961090D02*
X19812000Y-8211090D01*
X19687000Y-8086090D02*
X19937000Y-8086090D01*
X19812000Y-15461000D02*
X19812000Y-15711000D01*
X19687000Y-15586000D02*
X19937000Y-15586000D01*
X22912070Y-7961090D02*
X22912070Y-8211090D01*
X22787070Y-8086090D02*
X23037070Y-8086090D01*
X22912070Y-15460948D02*
X22912070Y-15710948D01*
X22787070Y-15585948D02*
X23037070Y-15585948D01*
D11*
X15625872Y-13648389D02*
X15625872Y-13448389D01*
X15625872Y-13448389D02*
X15673491Y-13448389D01*
X15673491Y-13448389D02*
X15702062Y-13457913D01*
X15702062Y-13457913D02*
X15721110Y-13476960D01*
X15721110Y-13476960D02*
X15730634Y-13496008D01*
X15730634Y-13496008D02*
X15740157Y-13534103D01*
X15740157Y-13534103D02*
X15740157Y-13562674D01*
X15740157Y-13562674D02*
X15730634Y-13600770D01*
X15730634Y-13600770D02*
X15721110Y-13619817D01*
X15721110Y-13619817D02*
X15702062Y-13638865D01*
X15702062Y-13638865D02*
X15673491Y-13648389D01*
X15673491Y-13648389D02*
X15625872Y-13648389D01*
X15825872Y-13648389D02*
X15825872Y-13515055D01*
X15825872Y-13553151D02*
X15835396Y-13534103D01*
X15835396Y-13534103D02*
X15844919Y-13524579D01*
X15844919Y-13524579D02*
X15863967Y-13515055D01*
X15863967Y-13515055D02*
X15883015Y-13515055D01*
X15949681Y-13648389D02*
X15949681Y-13515055D01*
X15949681Y-13448389D02*
X15940157Y-13457913D01*
X15940157Y-13457913D02*
X15949681Y-13467436D01*
X15949681Y-13467436D02*
X15959205Y-13457913D01*
X15959205Y-13457913D02*
X15949681Y-13448389D01*
X15949681Y-13448389D02*
X15949681Y-13467436D01*
X16073491Y-13648389D02*
X16054443Y-13638865D01*
X16054443Y-13638865D02*
X16044919Y-13619817D01*
X16044919Y-13619817D02*
X16044919Y-13448389D01*
X16178253Y-13648389D02*
X16159205Y-13638865D01*
X16159205Y-13638865D02*
X16149681Y-13619817D01*
X16149681Y-13619817D02*
X16149681Y-13448389D01*
X16406824Y-13648389D02*
X16406824Y-13448389D01*
X16406824Y-13448389D02*
X16473491Y-13591246D01*
X16473491Y-13591246D02*
X16540157Y-13448389D01*
X16540157Y-13448389D02*
X16540157Y-13648389D01*
X16721110Y-13648389D02*
X16721110Y-13543627D01*
X16721110Y-13543627D02*
X16711586Y-13524579D01*
X16711586Y-13524579D02*
X16692538Y-13515055D01*
X16692538Y-13515055D02*
X16654443Y-13515055D01*
X16654443Y-13515055D02*
X16635396Y-13524579D01*
X16721110Y-13638865D02*
X16702062Y-13648389D01*
X16702062Y-13648389D02*
X16654443Y-13648389D01*
X16654443Y-13648389D02*
X16635396Y-13638865D01*
X16635396Y-13638865D02*
X16625872Y-13619817D01*
X16625872Y-13619817D02*
X16625872Y-13600770D01*
X16625872Y-13600770D02*
X16635396Y-13581722D01*
X16635396Y-13581722D02*
X16654443Y-13572198D01*
X16654443Y-13572198D02*
X16702062Y-13572198D01*
X16702062Y-13572198D02*
X16721110Y-13562674D01*
X16816348Y-13515055D02*
X16816348Y-13715055D01*
X16816348Y-13524579D02*
X16835396Y-13515055D01*
X16835396Y-13515055D02*
X16873491Y-13515055D01*
X16873491Y-13515055D02*
X16892539Y-13524579D01*
X16892539Y-13524579D02*
X16902062Y-13534103D01*
X16902062Y-13534103D02*
X16911586Y-13553151D01*
X16911586Y-13553151D02*
X16911586Y-13610293D01*
X16911586Y-13610293D02*
X16902062Y-13629341D01*
X16902062Y-13629341D02*
X16892539Y-13638865D01*
X16892539Y-13638865D02*
X16873491Y-13648389D01*
X16873491Y-13648389D02*
X16835396Y-13648389D01*
X16835396Y-13648389D02*
X16816348Y-13638865D01*
X16997300Y-13629341D02*
X17006824Y-13638865D01*
X17006824Y-13638865D02*
X16997300Y-13648389D01*
X16997300Y-13648389D02*
X16987777Y-13638865D01*
X16987777Y-13638865D02*
X16997300Y-13629341D01*
X16997300Y-13629341D02*
X16997300Y-13648389D01*
X16997300Y-13524579D02*
X17006824Y-13534103D01*
X17006824Y-13534103D02*
X16997300Y-13543627D01*
X16997300Y-13543627D02*
X16987777Y-13534103D01*
X16987777Y-13534103D02*
X16997300Y-13524579D01*
X16997300Y-13524579D02*
X16997300Y-13543627D01*
D12*
X15265095Y-13926905D02*
X15365095Y-14026905D01*
X15365095Y-13926905D02*
X15265095Y-14026905D01*
D11*
X15730634Y-14068389D02*
X15616348Y-14068389D01*
X15673491Y-14068389D02*
X15673491Y-13868389D01*
X15673491Y-13868389D02*
X15654443Y-13896960D01*
X15654443Y-13896960D02*
X15635396Y-13916008D01*
X15635396Y-13916008D02*
X15616348Y-13925532D01*
X15816348Y-14049341D02*
X15825872Y-14058865D01*
X15825872Y-14058865D02*
X15816348Y-14068389D01*
X15816348Y-14068389D02*
X15806824Y-14058865D01*
X15806824Y-14058865D02*
X15816348Y-14049341D01*
X15816348Y-14049341D02*
X15816348Y-14068389D01*
X15949681Y-13868389D02*
X15968729Y-13868389D01*
X15968729Y-13868389D02*
X15987777Y-13877913D01*
X15987777Y-13877913D02*
X15997300Y-13887436D01*
X15997300Y-13887436D02*
X16006824Y-13906484D01*
X16006824Y-13906484D02*
X16016348Y-13944579D01*
X16016348Y-13944579D02*
X16016348Y-13992198D01*
X16016348Y-13992198D02*
X16006824Y-14030293D01*
X16006824Y-14030293D02*
X15997300Y-14049341D01*
X15997300Y-14049341D02*
X15987777Y-14058865D01*
X15987777Y-14058865D02*
X15968729Y-14068389D01*
X15968729Y-14068389D02*
X15949681Y-14068389D01*
X15949681Y-14068389D02*
X15930634Y-14058865D01*
X15930634Y-14058865D02*
X15921110Y-14049341D01*
X15921110Y-14049341D02*
X15911586Y-14030293D01*
X15911586Y-14030293D02*
X15902062Y-13992198D01*
X15902062Y-13992198D02*
X15902062Y-13944579D01*
X15902062Y-13944579D02*
X15911586Y-13906484D01*
X15911586Y-13906484D02*
X15921110Y-13887436D01*
X15921110Y-13887436D02*
X15930634Y-13877913D01*
X15930634Y-13877913D02*
X15949681Y-13868389D01*
X16140157Y-13868389D02*
X16159205Y-13868389D01*
X16159205Y-13868389D02*
X16178253Y-13877913D01*
X16178253Y-13877913D02*
X16187777Y-13887436D01*
X16187777Y-13887436D02*
X16197300Y-13906484D01*
X16197300Y-13906484D02*
X16206824Y-13944579D01*
X16206824Y-13944579D02*
X16206824Y-13992198D01*
X16206824Y-13992198D02*
X16197300Y-14030293D01*
X16197300Y-14030293D02*
X16187777Y-14049341D01*
X16187777Y-14049341D02*
X16178253Y-14058865D01*
X16178253Y-14058865D02*
X16159205Y-14068389D01*
X16159205Y-14068389D02*
X16140157Y-14068389D01*
X16140157Y-14068389D02*
X16121110Y-14058865D01*
X16121110Y-14058865D02*
X16111586Y-14049341D01*
X16111586Y-14049341D02*
X16102062Y-14030293D01*
X16102062Y-14030293D02*
X16092538Y-13992198D01*
X16092538Y-13992198D02*
X16092538Y-13944579D01*
X16092538Y-13944579D02*
X16102062Y-13906484D01*
X16102062Y-13906484D02*
X16111586Y-13887436D01*
X16111586Y-13887436D02*
X16121110Y-13877913D01*
X16121110Y-13877913D02*
X16140157Y-13868389D01*
X16330634Y-13868389D02*
X16349681Y-13868389D01*
X16349681Y-13868389D02*
X16368729Y-13877913D01*
X16368729Y-13877913D02*
X16378253Y-13887436D01*
X16378253Y-13887436D02*
X16387777Y-13906484D01*
X16387777Y-13906484D02*
X16397300Y-13944579D01*
X16397300Y-13944579D02*
X16397300Y-13992198D01*
X16397300Y-13992198D02*
X16387777Y-14030293D01*
X16387777Y-14030293D02*
X16378253Y-14049341D01*
X16378253Y-14049341D02*
X16368729Y-14058865D01*
X16368729Y-14058865D02*
X16349681Y-14068389D01*
X16349681Y-14068389D02*
X16330634Y-14068389D01*
X16330634Y-14068389D02*
X16311586Y-14058865D01*
X16311586Y-14058865D02*
X16302062Y-14049341D01*
X16302062Y-14049341D02*
X16292538Y-14030293D01*
X16292538Y-14030293D02*
X16283015Y-13992198D01*
X16283015Y-13992198D02*
X16283015Y-13944579D01*
X16283015Y-13944579D02*
X16292538Y-13906484D01*
X16292538Y-13906484D02*
X16302062Y-13887436D01*
X16302062Y-13887436D02*
X16311586Y-13877913D01*
X16311586Y-13877913D02*
X16330634Y-13868389D01*
X16483015Y-14068389D02*
X16483015Y-13935055D01*
X16483015Y-13954103D02*
X16492538Y-13944579D01*
X16492538Y-13944579D02*
X16511586Y-13935055D01*
X16511586Y-13935055D02*
X16540158Y-13935055D01*
X16540158Y-13935055D02*
X16559205Y-13944579D01*
X16559205Y-13944579D02*
X16568729Y-13963627D01*
X16568729Y-13963627D02*
X16568729Y-14068389D01*
X16568729Y-13963627D02*
X16578253Y-13944579D01*
X16578253Y-13944579D02*
X16597300Y-13935055D01*
X16597300Y-13935055D02*
X16625872Y-13935055D01*
X16625872Y-13935055D02*
X16644919Y-13944579D01*
X16644919Y-13944579D02*
X16654443Y-13963627D01*
X16654443Y-13963627D02*
X16654443Y-14068389D01*
X16749681Y-14068389D02*
X16749681Y-13935055D01*
X16749681Y-13954103D02*
X16759205Y-13944579D01*
X16759205Y-13944579D02*
X16778253Y-13935055D01*
X16778253Y-13935055D02*
X16806824Y-13935055D01*
X16806824Y-13935055D02*
X16825872Y-13944579D01*
X16825872Y-13944579D02*
X16835396Y-13963627D01*
X16835396Y-13963627D02*
X16835396Y-14068389D01*
X16835396Y-13963627D02*
X16844920Y-13944579D01*
X16844920Y-13944579D02*
X16863967Y-13935055D01*
X16863967Y-13935055D02*
X16892539Y-13935055D01*
X16892539Y-13935055D02*
X16911586Y-13944579D01*
X16911586Y-13944579D02*
X16921110Y-13963627D01*
X16921110Y-13963627D02*
X16921110Y-14068389D01*
X17311586Y-13858865D02*
X17140158Y-14116008D01*
X17568729Y-13868389D02*
X17587777Y-13868389D01*
X17587777Y-13868389D02*
X17606824Y-13877913D01*
X17606824Y-13877913D02*
X17616348Y-13887436D01*
X17616348Y-13887436D02*
X17625872Y-13906484D01*
X17625872Y-13906484D02*
X17635396Y-13944579D01*
X17635396Y-13944579D02*
X17635396Y-13992198D01*
X17635396Y-13992198D02*
X17625872Y-14030293D01*
X17625872Y-14030293D02*
X17616348Y-14049341D01*
X17616348Y-14049341D02*
X17606824Y-14058865D01*
X17606824Y-14058865D02*
X17587777Y-14068389D01*
X17587777Y-14068389D02*
X17568729Y-14068389D01*
X17568729Y-14068389D02*
X17549682Y-14058865D01*
X17549682Y-14058865D02*
X17540158Y-14049341D01*
X17540158Y-14049341D02*
X17530634Y-14030293D01*
X17530634Y-14030293D02*
X17521110Y-13992198D01*
X17521110Y-13992198D02*
X17521110Y-13944579D01*
X17521110Y-13944579D02*
X17530634Y-13906484D01*
X17530634Y-13906484D02*
X17540158Y-13887436D01*
X17540158Y-13887436D02*
X17549682Y-13877913D01*
X17549682Y-13877913D02*
X17568729Y-13868389D01*
X17721110Y-14049341D02*
X17730634Y-14058865D01*
X17730634Y-14058865D02*
X17721110Y-14068389D01*
X17721110Y-14068389D02*
X17711586Y-14058865D01*
X17711586Y-14058865D02*
X17721110Y-14049341D01*
X17721110Y-14049341D02*
X17721110Y-14068389D01*
X17854443Y-13868389D02*
X17873491Y-13868389D01*
X17873491Y-13868389D02*
X17892539Y-13877913D01*
X17892539Y-13877913D02*
X17902063Y-13887436D01*
X17902063Y-13887436D02*
X17911586Y-13906484D01*
X17911586Y-13906484D02*
X17921110Y-13944579D01*
X17921110Y-13944579D02*
X17921110Y-13992198D01*
X17921110Y-13992198D02*
X17911586Y-14030293D01*
X17911586Y-14030293D02*
X17902063Y-14049341D01*
X17902063Y-14049341D02*
X17892539Y-14058865D01*
X17892539Y-14058865D02*
X17873491Y-14068389D01*
X17873491Y-14068389D02*
X17854443Y-14068389D01*
X17854443Y-14068389D02*
X17835396Y-14058865D01*
X17835396Y-14058865D02*
X17825872Y-14049341D01*
X17825872Y-14049341D02*
X17816348Y-14030293D01*
X17816348Y-14030293D02*
X17806824Y-13992198D01*
X17806824Y-13992198D02*
X17806824Y-13944579D01*
X17806824Y-13944579D02*
X17816348Y-13906484D01*
X17816348Y-13906484D02*
X17825872Y-13887436D01*
X17825872Y-13887436D02*
X17835396Y-13877913D01*
X17835396Y-13877913D02*
X17854443Y-13868389D01*
X17987777Y-13868389D02*
X18111586Y-13868389D01*
X18111586Y-13868389D02*
X18044920Y-13944579D01*
X18044920Y-13944579D02*
X18073491Y-13944579D01*
X18073491Y-13944579D02*
X18092539Y-13954103D01*
X18092539Y-13954103D02*
X18102063Y-13963627D01*
X18102063Y-13963627D02*
X18111586Y-13982674D01*
X18111586Y-13982674D02*
X18111586Y-14030293D01*
X18111586Y-14030293D02*
X18102063Y-14049341D01*
X18102063Y-14049341D02*
X18092539Y-14058865D01*
X18092539Y-14058865D02*
X18073491Y-14068389D01*
X18073491Y-14068389D02*
X18016348Y-14068389D01*
X18016348Y-14068389D02*
X17997301Y-14058865D01*
X17997301Y-14058865D02*
X17987777Y-14049341D01*
X18206824Y-14068389D02*
X18244920Y-14068389D01*
X18244920Y-14068389D02*
X18263967Y-14058865D01*
X18263967Y-14058865D02*
X18273491Y-14049341D01*
X18273491Y-14049341D02*
X18292539Y-14020770D01*
X18292539Y-14020770D02*
X18302063Y-13982674D01*
X18302063Y-13982674D02*
X18302063Y-13906484D01*
X18302063Y-13906484D02*
X18292539Y-13887436D01*
X18292539Y-13887436D02*
X18283015Y-13877913D01*
X18283015Y-13877913D02*
X18263967Y-13868389D01*
X18263967Y-13868389D02*
X18225872Y-13868389D01*
X18225872Y-13868389D02*
X18206824Y-13877913D01*
X18206824Y-13877913D02*
X18197301Y-13887436D01*
X18197301Y-13887436D02*
X18187777Y-13906484D01*
X18187777Y-13906484D02*
X18187777Y-13954103D01*
X18187777Y-13954103D02*
X18197301Y-13973151D01*
X18197301Y-13973151D02*
X18206824Y-13982674D01*
X18206824Y-13982674D02*
X18225872Y-13992198D01*
X18225872Y-13992198D02*
X18263967Y-13992198D01*
X18263967Y-13992198D02*
X18283015Y-13982674D01*
X18283015Y-13982674D02*
X18292539Y-13973151D01*
X18292539Y-13973151D02*
X18302063Y-13954103D01*
X18473491Y-13935055D02*
X18473491Y-14068389D01*
X18425872Y-13858865D02*
X18378253Y-14001722D01*
X18378253Y-14001722D02*
X18502063Y-14001722D01*
X18568729Y-13868389D02*
X18568729Y-13906484D01*
X18644920Y-13868389D02*
X18644920Y-13906484D01*
X18940158Y-14144579D02*
X18930634Y-14135055D01*
X18930634Y-14135055D02*
X18911586Y-14106484D01*
X18911586Y-14106484D02*
X18902063Y-14087436D01*
X18902063Y-14087436D02*
X18892539Y-14058865D01*
X18892539Y-14058865D02*
X18883015Y-14011246D01*
X18883015Y-14011246D02*
X18883015Y-13973151D01*
X18883015Y-13973151D02*
X18892539Y-13925532D01*
X18892539Y-13925532D02*
X18902063Y-13896960D01*
X18902063Y-13896960D02*
X18911586Y-13877913D01*
X18911586Y-13877913D02*
X18930634Y-13849341D01*
X18930634Y-13849341D02*
X18940158Y-13839817D01*
X18997301Y-13868389D02*
X19121110Y-13868389D01*
X19121110Y-13868389D02*
X19054444Y-13944579D01*
X19054444Y-13944579D02*
X19083015Y-13944579D01*
X19083015Y-13944579D02*
X19102063Y-13954103D01*
X19102063Y-13954103D02*
X19111586Y-13963627D01*
X19111586Y-13963627D02*
X19121110Y-13982674D01*
X19121110Y-13982674D02*
X19121110Y-14030293D01*
X19121110Y-14030293D02*
X19111586Y-14049341D01*
X19111586Y-14049341D02*
X19102063Y-14058865D01*
X19102063Y-14058865D02*
X19083015Y-14068389D01*
X19083015Y-14068389D02*
X19025872Y-14068389D01*
X19025872Y-14068389D02*
X19006825Y-14058865D01*
X19006825Y-14058865D02*
X18997301Y-14049341D01*
X19216348Y-14068389D02*
X19254444Y-14068389D01*
X19254444Y-14068389D02*
X19273491Y-14058865D01*
X19273491Y-14058865D02*
X19283015Y-14049341D01*
X19283015Y-14049341D02*
X19302063Y-14020770D01*
X19302063Y-14020770D02*
X19311586Y-13982674D01*
X19311586Y-13982674D02*
X19311586Y-13906484D01*
X19311586Y-13906484D02*
X19302063Y-13887436D01*
X19302063Y-13887436D02*
X19292539Y-13877913D01*
X19292539Y-13877913D02*
X19273491Y-13868389D01*
X19273491Y-13868389D02*
X19235396Y-13868389D01*
X19235396Y-13868389D02*
X19216348Y-13877913D01*
X19216348Y-13877913D02*
X19206825Y-13887436D01*
X19206825Y-13887436D02*
X19197301Y-13906484D01*
X19197301Y-13906484D02*
X19197301Y-13954103D01*
X19197301Y-13954103D02*
X19206825Y-13973151D01*
X19206825Y-13973151D02*
X19216348Y-13982674D01*
X19216348Y-13982674D02*
X19235396Y-13992198D01*
X19235396Y-13992198D02*
X19273491Y-13992198D01*
X19273491Y-13992198D02*
X19292539Y-13982674D01*
X19292539Y-13982674D02*
X19302063Y-13973151D01*
X19302063Y-13973151D02*
X19311586Y-13954103D01*
X19549682Y-14068389D02*
X19549682Y-13868389D01*
X19635396Y-14068389D02*
X19635396Y-13963627D01*
X19635396Y-13963627D02*
X19625872Y-13944579D01*
X19625872Y-13944579D02*
X19606825Y-13935055D01*
X19606825Y-13935055D02*
X19578253Y-13935055D01*
X19578253Y-13935055D02*
X19559206Y-13944579D01*
X19559206Y-13944579D02*
X19549682Y-13954103D01*
X19759206Y-14068389D02*
X19740158Y-14058865D01*
X19740158Y-14058865D02*
X19730634Y-14049341D01*
X19730634Y-14049341D02*
X19721110Y-14030293D01*
X19721110Y-14030293D02*
X19721110Y-13973151D01*
X19721110Y-13973151D02*
X19730634Y-13954103D01*
X19730634Y-13954103D02*
X19740158Y-13944579D01*
X19740158Y-13944579D02*
X19759206Y-13935055D01*
X19759206Y-13935055D02*
X19787777Y-13935055D01*
X19787777Y-13935055D02*
X19806825Y-13944579D01*
X19806825Y-13944579D02*
X19816348Y-13954103D01*
X19816348Y-13954103D02*
X19825872Y-13973151D01*
X19825872Y-13973151D02*
X19825872Y-14030293D01*
X19825872Y-14030293D02*
X19816348Y-14049341D01*
X19816348Y-14049341D02*
X19806825Y-14058865D01*
X19806825Y-14058865D02*
X19787777Y-14068389D01*
X19787777Y-14068389D02*
X19759206Y-14068389D01*
X19940158Y-14068389D02*
X19921110Y-14058865D01*
X19921110Y-14058865D02*
X19911587Y-14039817D01*
X19911587Y-14039817D02*
X19911587Y-13868389D01*
X20092539Y-14058865D02*
X20073491Y-14068389D01*
X20073491Y-14068389D02*
X20035396Y-14068389D01*
X20035396Y-14068389D02*
X20016348Y-14058865D01*
X20016348Y-14058865D02*
X20006825Y-14039817D01*
X20006825Y-14039817D02*
X20006825Y-13963627D01*
X20006825Y-13963627D02*
X20016348Y-13944579D01*
X20016348Y-13944579D02*
X20035396Y-13935055D01*
X20035396Y-13935055D02*
X20073491Y-13935055D01*
X20073491Y-13935055D02*
X20092539Y-13944579D01*
X20092539Y-13944579D02*
X20102063Y-13963627D01*
X20102063Y-13963627D02*
X20102063Y-13982674D01*
X20102063Y-13982674D02*
X20006825Y-14001722D01*
X20178253Y-14058865D02*
X20197301Y-14068389D01*
X20197301Y-14068389D02*
X20235396Y-14068389D01*
X20235396Y-14068389D02*
X20254444Y-14058865D01*
X20254444Y-14058865D02*
X20263968Y-14039817D01*
X20263968Y-14039817D02*
X20263968Y-14030293D01*
X20263968Y-14030293D02*
X20254444Y-14011246D01*
X20254444Y-14011246D02*
X20235396Y-14001722D01*
X20235396Y-14001722D02*
X20206825Y-14001722D01*
X20206825Y-14001722D02*
X20187777Y-13992198D01*
X20187777Y-13992198D02*
X20178253Y-13973151D01*
X20178253Y-13973151D02*
X20178253Y-13963627D01*
X20178253Y-13963627D02*
X20187777Y-13944579D01*
X20187777Y-13944579D02*
X20206825Y-13935055D01*
X20206825Y-13935055D02*
X20235396Y-13935055D01*
X20235396Y-13935055D02*
X20254444Y-13944579D01*
X20330634Y-14144579D02*
X20340158Y-14135055D01*
X20340158Y-14135055D02*
X20359206Y-14106484D01*
X20359206Y-14106484D02*
X20368729Y-14087436D01*
X20368729Y-14087436D02*
X20378253Y-14058865D01*
X20378253Y-14058865D02*
X20387777Y-14011246D01*
X20387777Y-14011246D02*
X20387777Y-13973151D01*
X20387777Y-13973151D02*
X20378253Y-13925532D01*
X20378253Y-13925532D02*
X20368729Y-13896960D01*
X20368729Y-13896960D02*
X20359206Y-13877913D01*
X20359206Y-13877913D02*
X20340158Y-13849341D01*
X20340158Y-13849341D02*
X20330634Y-13839817D01*
D13*
X15365095Y-14240905D02*
G75*
G03*
X15365095Y-14240905I-60000J0D01*
G01*
D11*
X15730634Y-14332389D02*
X15616348Y-14332389D01*
X15673491Y-14332389D02*
X15673491Y-14132389D01*
X15673491Y-14132389D02*
X15654443Y-14160960D01*
X15654443Y-14160960D02*
X15635396Y-14180008D01*
X15635396Y-14180008D02*
X15616348Y-14189532D01*
X15816348Y-14313341D02*
X15825872Y-14322865D01*
X15825872Y-14322865D02*
X15816348Y-14332389D01*
X15816348Y-14332389D02*
X15806824Y-14322865D01*
X15806824Y-14322865D02*
X15816348Y-14313341D01*
X15816348Y-14313341D02*
X15816348Y-14332389D01*
X15902062Y-14151436D02*
X15911586Y-14141913D01*
X15911586Y-14141913D02*
X15930634Y-14132389D01*
X15930634Y-14132389D02*
X15978253Y-14132389D01*
X15978253Y-14132389D02*
X15997300Y-14141913D01*
X15997300Y-14141913D02*
X16006824Y-14151436D01*
X16006824Y-14151436D02*
X16016348Y-14170484D01*
X16016348Y-14170484D02*
X16016348Y-14189532D01*
X16016348Y-14189532D02*
X16006824Y-14218103D01*
X16006824Y-14218103D02*
X15892538Y-14332389D01*
X15892538Y-14332389D02*
X16016348Y-14332389D01*
X16140157Y-14132389D02*
X16159205Y-14132389D01*
X16159205Y-14132389D02*
X16178253Y-14141913D01*
X16178253Y-14141913D02*
X16187777Y-14151436D01*
X16187777Y-14151436D02*
X16197300Y-14170484D01*
X16197300Y-14170484D02*
X16206824Y-14208579D01*
X16206824Y-14208579D02*
X16206824Y-14256198D01*
X16206824Y-14256198D02*
X16197300Y-14294293D01*
X16197300Y-14294293D02*
X16187777Y-14313341D01*
X16187777Y-14313341D02*
X16178253Y-14322865D01*
X16178253Y-14322865D02*
X16159205Y-14332389D01*
X16159205Y-14332389D02*
X16140157Y-14332389D01*
X16140157Y-14332389D02*
X16121110Y-14322865D01*
X16121110Y-14322865D02*
X16111586Y-14313341D01*
X16111586Y-14313341D02*
X16102062Y-14294293D01*
X16102062Y-14294293D02*
X16092538Y-14256198D01*
X16092538Y-14256198D02*
X16092538Y-14208579D01*
X16092538Y-14208579D02*
X16102062Y-14170484D01*
X16102062Y-14170484D02*
X16111586Y-14151436D01*
X16111586Y-14151436D02*
X16121110Y-14141913D01*
X16121110Y-14141913D02*
X16140157Y-14132389D01*
X16330634Y-14132389D02*
X16349681Y-14132389D01*
X16349681Y-14132389D02*
X16368729Y-14141913D01*
X16368729Y-14141913D02*
X16378253Y-14151436D01*
X16378253Y-14151436D02*
X16387777Y-14170484D01*
X16387777Y-14170484D02*
X16397300Y-14208579D01*
X16397300Y-14208579D02*
X16397300Y-14256198D01*
X16397300Y-14256198D02*
X16387777Y-14294293D01*
X16387777Y-14294293D02*
X16378253Y-14313341D01*
X16378253Y-14313341D02*
X16368729Y-14322865D01*
X16368729Y-14322865D02*
X16349681Y-14332389D01*
X16349681Y-14332389D02*
X16330634Y-14332389D01*
X16330634Y-14332389D02*
X16311586Y-14322865D01*
X16311586Y-14322865D02*
X16302062Y-14313341D01*
X16302062Y-14313341D02*
X16292538Y-14294293D01*
X16292538Y-14294293D02*
X16283015Y-14256198D01*
X16283015Y-14256198D02*
X16283015Y-14208579D01*
X16283015Y-14208579D02*
X16292538Y-14170484D01*
X16292538Y-14170484D02*
X16302062Y-14151436D01*
X16302062Y-14151436D02*
X16311586Y-14141913D01*
X16311586Y-14141913D02*
X16330634Y-14132389D01*
X16483015Y-14332389D02*
X16483015Y-14199055D01*
X16483015Y-14218103D02*
X16492538Y-14208579D01*
X16492538Y-14208579D02*
X16511586Y-14199055D01*
X16511586Y-14199055D02*
X16540158Y-14199055D01*
X16540158Y-14199055D02*
X16559205Y-14208579D01*
X16559205Y-14208579D02*
X16568729Y-14227627D01*
X16568729Y-14227627D02*
X16568729Y-14332389D01*
X16568729Y-14227627D02*
X16578253Y-14208579D01*
X16578253Y-14208579D02*
X16597300Y-14199055D01*
X16597300Y-14199055D02*
X16625872Y-14199055D01*
X16625872Y-14199055D02*
X16644919Y-14208579D01*
X16644919Y-14208579D02*
X16654443Y-14227627D01*
X16654443Y-14227627D02*
X16654443Y-14332389D01*
X16749681Y-14332389D02*
X16749681Y-14199055D01*
X16749681Y-14218103D02*
X16759205Y-14208579D01*
X16759205Y-14208579D02*
X16778253Y-14199055D01*
X16778253Y-14199055D02*
X16806824Y-14199055D01*
X16806824Y-14199055D02*
X16825872Y-14208579D01*
X16825872Y-14208579D02*
X16835396Y-14227627D01*
X16835396Y-14227627D02*
X16835396Y-14332389D01*
X16835396Y-14227627D02*
X16844920Y-14208579D01*
X16844920Y-14208579D02*
X16863967Y-14199055D01*
X16863967Y-14199055D02*
X16892539Y-14199055D01*
X16892539Y-14199055D02*
X16911586Y-14208579D01*
X16911586Y-14208579D02*
X16921110Y-14227627D01*
X16921110Y-14227627D02*
X16921110Y-14332389D01*
X17311586Y-14122865D02*
X17140158Y-14380008D01*
X17568729Y-14132389D02*
X17587777Y-14132389D01*
X17587777Y-14132389D02*
X17606824Y-14141913D01*
X17606824Y-14141913D02*
X17616348Y-14151436D01*
X17616348Y-14151436D02*
X17625872Y-14170484D01*
X17625872Y-14170484D02*
X17635396Y-14208579D01*
X17635396Y-14208579D02*
X17635396Y-14256198D01*
X17635396Y-14256198D02*
X17625872Y-14294293D01*
X17625872Y-14294293D02*
X17616348Y-14313341D01*
X17616348Y-14313341D02*
X17606824Y-14322865D01*
X17606824Y-14322865D02*
X17587777Y-14332389D01*
X17587777Y-14332389D02*
X17568729Y-14332389D01*
X17568729Y-14332389D02*
X17549682Y-14322865D01*
X17549682Y-14322865D02*
X17540158Y-14313341D01*
X17540158Y-14313341D02*
X17530634Y-14294293D01*
X17530634Y-14294293D02*
X17521110Y-14256198D01*
X17521110Y-14256198D02*
X17521110Y-14208579D01*
X17521110Y-14208579D02*
X17530634Y-14170484D01*
X17530634Y-14170484D02*
X17540158Y-14151436D01*
X17540158Y-14151436D02*
X17549682Y-14141913D01*
X17549682Y-14141913D02*
X17568729Y-14132389D01*
X17721110Y-14313341D02*
X17730634Y-14322865D01*
X17730634Y-14322865D02*
X17721110Y-14332389D01*
X17721110Y-14332389D02*
X17711586Y-14322865D01*
X17711586Y-14322865D02*
X17721110Y-14313341D01*
X17721110Y-14313341D02*
X17721110Y-14332389D01*
X17854443Y-14132389D02*
X17873491Y-14132389D01*
X17873491Y-14132389D02*
X17892539Y-14141913D01*
X17892539Y-14141913D02*
X17902063Y-14151436D01*
X17902063Y-14151436D02*
X17911586Y-14170484D01*
X17911586Y-14170484D02*
X17921110Y-14208579D01*
X17921110Y-14208579D02*
X17921110Y-14256198D01*
X17921110Y-14256198D02*
X17911586Y-14294293D01*
X17911586Y-14294293D02*
X17902063Y-14313341D01*
X17902063Y-14313341D02*
X17892539Y-14322865D01*
X17892539Y-14322865D02*
X17873491Y-14332389D01*
X17873491Y-14332389D02*
X17854443Y-14332389D01*
X17854443Y-14332389D02*
X17835396Y-14322865D01*
X17835396Y-14322865D02*
X17825872Y-14313341D01*
X17825872Y-14313341D02*
X17816348Y-14294293D01*
X17816348Y-14294293D02*
X17806824Y-14256198D01*
X17806824Y-14256198D02*
X17806824Y-14208579D01*
X17806824Y-14208579D02*
X17816348Y-14170484D01*
X17816348Y-14170484D02*
X17825872Y-14151436D01*
X17825872Y-14151436D02*
X17835396Y-14141913D01*
X17835396Y-14141913D02*
X17854443Y-14132389D01*
X18092539Y-14199055D02*
X18092539Y-14332389D01*
X18044920Y-14122865D02*
X17997301Y-14265722D01*
X17997301Y-14265722D02*
X18121110Y-14265722D01*
X18178253Y-14132389D02*
X18311586Y-14132389D01*
X18311586Y-14132389D02*
X18225872Y-14332389D01*
X18378253Y-14151436D02*
X18387777Y-14141913D01*
X18387777Y-14141913D02*
X18406824Y-14132389D01*
X18406824Y-14132389D02*
X18454444Y-14132389D01*
X18454444Y-14132389D02*
X18473491Y-14141913D01*
X18473491Y-14141913D02*
X18483015Y-14151436D01*
X18483015Y-14151436D02*
X18492539Y-14170484D01*
X18492539Y-14170484D02*
X18492539Y-14189532D01*
X18492539Y-14189532D02*
X18483015Y-14218103D01*
X18483015Y-14218103D02*
X18368729Y-14332389D01*
X18368729Y-14332389D02*
X18492539Y-14332389D01*
X18568729Y-14132389D02*
X18568729Y-14170484D01*
X18644920Y-14132389D02*
X18644920Y-14170484D01*
X18940158Y-14408579D02*
X18930634Y-14399055D01*
X18930634Y-14399055D02*
X18911586Y-14370484D01*
X18911586Y-14370484D02*
X18902063Y-14351436D01*
X18902063Y-14351436D02*
X18892539Y-14322865D01*
X18892539Y-14322865D02*
X18883015Y-14275246D01*
X18883015Y-14275246D02*
X18883015Y-14237151D01*
X18883015Y-14237151D02*
X18892539Y-14189532D01*
X18892539Y-14189532D02*
X18902063Y-14160960D01*
X18902063Y-14160960D02*
X18911586Y-14141913D01*
X18911586Y-14141913D02*
X18930634Y-14113341D01*
X18930634Y-14113341D02*
X18940158Y-14103817D01*
X19121110Y-14332389D02*
X19006825Y-14332389D01*
X19063967Y-14332389D02*
X19063967Y-14132389D01*
X19063967Y-14132389D02*
X19044920Y-14160960D01*
X19044920Y-14160960D02*
X19025872Y-14180008D01*
X19025872Y-14180008D02*
X19006825Y-14189532D01*
X19292539Y-14132389D02*
X19254444Y-14132389D01*
X19254444Y-14132389D02*
X19235396Y-14141913D01*
X19235396Y-14141913D02*
X19225872Y-14151436D01*
X19225872Y-14151436D02*
X19206825Y-14180008D01*
X19206825Y-14180008D02*
X19197301Y-14218103D01*
X19197301Y-14218103D02*
X19197301Y-14294293D01*
X19197301Y-14294293D02*
X19206825Y-14313341D01*
X19206825Y-14313341D02*
X19216348Y-14322865D01*
X19216348Y-14322865D02*
X19235396Y-14332389D01*
X19235396Y-14332389D02*
X19273491Y-14332389D01*
X19273491Y-14332389D02*
X19292539Y-14322865D01*
X19292539Y-14322865D02*
X19302063Y-14313341D01*
X19302063Y-14313341D02*
X19311586Y-14294293D01*
X19311586Y-14294293D02*
X19311586Y-14246674D01*
X19311586Y-14246674D02*
X19302063Y-14227627D01*
X19302063Y-14227627D02*
X19292539Y-14218103D01*
X19292539Y-14218103D02*
X19273491Y-14208579D01*
X19273491Y-14208579D02*
X19235396Y-14208579D01*
X19235396Y-14208579D02*
X19216348Y-14218103D01*
X19216348Y-14218103D02*
X19206825Y-14227627D01*
X19206825Y-14227627D02*
X19197301Y-14246674D01*
X19549682Y-14332389D02*
X19549682Y-14132389D01*
X19635396Y-14332389D02*
X19635396Y-14227627D01*
X19635396Y-14227627D02*
X19625872Y-14208579D01*
X19625872Y-14208579D02*
X19606825Y-14199055D01*
X19606825Y-14199055D02*
X19578253Y-14199055D01*
X19578253Y-14199055D02*
X19559206Y-14208579D01*
X19559206Y-14208579D02*
X19549682Y-14218103D01*
X19759206Y-14332389D02*
X19740158Y-14322865D01*
X19740158Y-14322865D02*
X19730634Y-14313341D01*
X19730634Y-14313341D02*
X19721110Y-14294293D01*
X19721110Y-14294293D02*
X19721110Y-14237151D01*
X19721110Y-14237151D02*
X19730634Y-14218103D01*
X19730634Y-14218103D02*
X19740158Y-14208579D01*
X19740158Y-14208579D02*
X19759206Y-14199055D01*
X19759206Y-14199055D02*
X19787777Y-14199055D01*
X19787777Y-14199055D02*
X19806825Y-14208579D01*
X19806825Y-14208579D02*
X19816348Y-14218103D01*
X19816348Y-14218103D02*
X19825872Y-14237151D01*
X19825872Y-14237151D02*
X19825872Y-14294293D01*
X19825872Y-14294293D02*
X19816348Y-14313341D01*
X19816348Y-14313341D02*
X19806825Y-14322865D01*
X19806825Y-14322865D02*
X19787777Y-14332389D01*
X19787777Y-14332389D02*
X19759206Y-14332389D01*
X19940158Y-14332389D02*
X19921110Y-14322865D01*
X19921110Y-14322865D02*
X19911587Y-14303817D01*
X19911587Y-14303817D02*
X19911587Y-14132389D01*
X20092539Y-14322865D02*
X20073491Y-14332389D01*
X20073491Y-14332389D02*
X20035396Y-14332389D01*
X20035396Y-14332389D02*
X20016348Y-14322865D01*
X20016348Y-14322865D02*
X20006825Y-14303817D01*
X20006825Y-14303817D02*
X20006825Y-14227627D01*
X20006825Y-14227627D02*
X20016348Y-14208579D01*
X20016348Y-14208579D02*
X20035396Y-14199055D01*
X20035396Y-14199055D02*
X20073491Y-14199055D01*
X20073491Y-14199055D02*
X20092539Y-14208579D01*
X20092539Y-14208579D02*
X20102063Y-14227627D01*
X20102063Y-14227627D02*
X20102063Y-14246674D01*
X20102063Y-14246674D02*
X20006825Y-14265722D01*
X20178253Y-14322865D02*
X20197301Y-14332389D01*
X20197301Y-14332389D02*
X20235396Y-14332389D01*
X20235396Y-14332389D02*
X20254444Y-14322865D01*
X20254444Y-14322865D02*
X20263968Y-14303817D01*
X20263968Y-14303817D02*
X20263968Y-14294293D01*
X20263968Y-14294293D02*
X20254444Y-14275246D01*
X20254444Y-14275246D02*
X20235396Y-14265722D01*
X20235396Y-14265722D02*
X20206825Y-14265722D01*
X20206825Y-14265722D02*
X20187777Y-14256198D01*
X20187777Y-14256198D02*
X20178253Y-14237151D01*
X20178253Y-14237151D02*
X20178253Y-14227627D01*
X20178253Y-14227627D02*
X20187777Y-14208579D01*
X20187777Y-14208579D02*
X20206825Y-14199055D01*
X20206825Y-14199055D02*
X20235396Y-14199055D01*
X20235396Y-14199055D02*
X20254444Y-14208579D01*
X20330634Y-14408579D02*
X20340158Y-14399055D01*
X20340158Y-14399055D02*
X20359206Y-14370484D01*
X20359206Y-14370484D02*
X20368729Y-14351436D01*
X20368729Y-14351436D02*
X20378253Y-14322865D01*
X20378253Y-14322865D02*
X20387777Y-14275246D01*
X20387777Y-14275246D02*
X20387777Y-14237151D01*
X20387777Y-14237151D02*
X20378253Y-14189532D01*
X20378253Y-14189532D02*
X20368729Y-14160960D01*
X20368729Y-14160960D02*
X20359206Y-14141913D01*
X20359206Y-14141913D02*
X20340158Y-14113341D01*
X20340158Y-14113341D02*
X20330634Y-14103817D01*
X15265095Y-14404905D02*
X15265095Y-14604905D01*
X15165095Y-14504905D02*
X15365095Y-14504905D01*
X15616348Y-14415436D02*
X15625872Y-14405913D01*
X15625872Y-14405913D02*
X15644919Y-14396389D01*
X15644919Y-14396389D02*
X15692538Y-14396389D01*
X15692538Y-14396389D02*
X15711586Y-14405913D01*
X15711586Y-14405913D02*
X15721110Y-14415436D01*
X15721110Y-14415436D02*
X15730634Y-14434484D01*
X15730634Y-14434484D02*
X15730634Y-14453532D01*
X15730634Y-14453532D02*
X15721110Y-14482103D01*
X15721110Y-14482103D02*
X15606824Y-14596389D01*
X15606824Y-14596389D02*
X15730634Y-14596389D01*
X15816348Y-14577341D02*
X15825872Y-14586865D01*
X15825872Y-14586865D02*
X15816348Y-14596389D01*
X15816348Y-14596389D02*
X15806824Y-14586865D01*
X15806824Y-14586865D02*
X15816348Y-14577341D01*
X15816348Y-14577341D02*
X15816348Y-14596389D01*
X16006824Y-14396389D02*
X15911586Y-14396389D01*
X15911586Y-14396389D02*
X15902062Y-14491627D01*
X15902062Y-14491627D02*
X15911586Y-14482103D01*
X15911586Y-14482103D02*
X15930634Y-14472579D01*
X15930634Y-14472579D02*
X15978253Y-14472579D01*
X15978253Y-14472579D02*
X15997300Y-14482103D01*
X15997300Y-14482103D02*
X16006824Y-14491627D01*
X16006824Y-14491627D02*
X16016348Y-14510674D01*
X16016348Y-14510674D02*
X16016348Y-14558293D01*
X16016348Y-14558293D02*
X16006824Y-14577341D01*
X16006824Y-14577341D02*
X15997300Y-14586865D01*
X15997300Y-14586865D02*
X15978253Y-14596389D01*
X15978253Y-14596389D02*
X15930634Y-14596389D01*
X15930634Y-14596389D02*
X15911586Y-14586865D01*
X15911586Y-14586865D02*
X15902062Y-14577341D01*
X16140157Y-14396389D02*
X16159205Y-14396389D01*
X16159205Y-14396389D02*
X16178253Y-14405913D01*
X16178253Y-14405913D02*
X16187777Y-14415436D01*
X16187777Y-14415436D02*
X16197300Y-14434484D01*
X16197300Y-14434484D02*
X16206824Y-14472579D01*
X16206824Y-14472579D02*
X16206824Y-14520198D01*
X16206824Y-14520198D02*
X16197300Y-14558293D01*
X16197300Y-14558293D02*
X16187777Y-14577341D01*
X16187777Y-14577341D02*
X16178253Y-14586865D01*
X16178253Y-14586865D02*
X16159205Y-14596389D01*
X16159205Y-14596389D02*
X16140157Y-14596389D01*
X16140157Y-14596389D02*
X16121110Y-14586865D01*
X16121110Y-14586865D02*
X16111586Y-14577341D01*
X16111586Y-14577341D02*
X16102062Y-14558293D01*
X16102062Y-14558293D02*
X16092538Y-14520198D01*
X16092538Y-14520198D02*
X16092538Y-14472579D01*
X16092538Y-14472579D02*
X16102062Y-14434484D01*
X16102062Y-14434484D02*
X16111586Y-14415436D01*
X16111586Y-14415436D02*
X16121110Y-14405913D01*
X16121110Y-14405913D02*
X16140157Y-14396389D01*
X16330634Y-14396389D02*
X16349681Y-14396389D01*
X16349681Y-14396389D02*
X16368729Y-14405913D01*
X16368729Y-14405913D02*
X16378253Y-14415436D01*
X16378253Y-14415436D02*
X16387777Y-14434484D01*
X16387777Y-14434484D02*
X16397300Y-14472579D01*
X16397300Y-14472579D02*
X16397300Y-14520198D01*
X16397300Y-14520198D02*
X16387777Y-14558293D01*
X16387777Y-14558293D02*
X16378253Y-14577341D01*
X16378253Y-14577341D02*
X16368729Y-14586865D01*
X16368729Y-14586865D02*
X16349681Y-14596389D01*
X16349681Y-14596389D02*
X16330634Y-14596389D01*
X16330634Y-14596389D02*
X16311586Y-14586865D01*
X16311586Y-14586865D02*
X16302062Y-14577341D01*
X16302062Y-14577341D02*
X16292538Y-14558293D01*
X16292538Y-14558293D02*
X16283015Y-14520198D01*
X16283015Y-14520198D02*
X16283015Y-14472579D01*
X16283015Y-14472579D02*
X16292538Y-14434484D01*
X16292538Y-14434484D02*
X16302062Y-14415436D01*
X16302062Y-14415436D02*
X16311586Y-14405913D01*
X16311586Y-14405913D02*
X16330634Y-14396389D01*
X16483015Y-14596389D02*
X16483015Y-14463055D01*
X16483015Y-14482103D02*
X16492538Y-14472579D01*
X16492538Y-14472579D02*
X16511586Y-14463055D01*
X16511586Y-14463055D02*
X16540158Y-14463055D01*
X16540158Y-14463055D02*
X16559205Y-14472579D01*
X16559205Y-14472579D02*
X16568729Y-14491627D01*
X16568729Y-14491627D02*
X16568729Y-14596389D01*
X16568729Y-14491627D02*
X16578253Y-14472579D01*
X16578253Y-14472579D02*
X16597300Y-14463055D01*
X16597300Y-14463055D02*
X16625872Y-14463055D01*
X16625872Y-14463055D02*
X16644919Y-14472579D01*
X16644919Y-14472579D02*
X16654443Y-14491627D01*
X16654443Y-14491627D02*
X16654443Y-14596389D01*
X16749681Y-14596389D02*
X16749681Y-14463055D01*
X16749681Y-14482103D02*
X16759205Y-14472579D01*
X16759205Y-14472579D02*
X16778253Y-14463055D01*
X16778253Y-14463055D02*
X16806824Y-14463055D01*
X16806824Y-14463055D02*
X16825872Y-14472579D01*
X16825872Y-14472579D02*
X16835396Y-14491627D01*
X16835396Y-14491627D02*
X16835396Y-14596389D01*
X16835396Y-14491627D02*
X16844920Y-14472579D01*
X16844920Y-14472579D02*
X16863967Y-14463055D01*
X16863967Y-14463055D02*
X16892539Y-14463055D01*
X16892539Y-14463055D02*
X16911586Y-14472579D01*
X16911586Y-14472579D02*
X16921110Y-14491627D01*
X16921110Y-14491627D02*
X16921110Y-14596389D01*
X17311586Y-14386865D02*
X17140158Y-14644008D01*
X17568729Y-14396389D02*
X17587777Y-14396389D01*
X17587777Y-14396389D02*
X17606824Y-14405913D01*
X17606824Y-14405913D02*
X17616348Y-14415436D01*
X17616348Y-14415436D02*
X17625872Y-14434484D01*
X17625872Y-14434484D02*
X17635396Y-14472579D01*
X17635396Y-14472579D02*
X17635396Y-14520198D01*
X17635396Y-14520198D02*
X17625872Y-14558293D01*
X17625872Y-14558293D02*
X17616348Y-14577341D01*
X17616348Y-14577341D02*
X17606824Y-14586865D01*
X17606824Y-14586865D02*
X17587777Y-14596389D01*
X17587777Y-14596389D02*
X17568729Y-14596389D01*
X17568729Y-14596389D02*
X17549682Y-14586865D01*
X17549682Y-14586865D02*
X17540158Y-14577341D01*
X17540158Y-14577341D02*
X17530634Y-14558293D01*
X17530634Y-14558293D02*
X17521110Y-14520198D01*
X17521110Y-14520198D02*
X17521110Y-14472579D01*
X17521110Y-14472579D02*
X17530634Y-14434484D01*
X17530634Y-14434484D02*
X17540158Y-14415436D01*
X17540158Y-14415436D02*
X17549682Y-14405913D01*
X17549682Y-14405913D02*
X17568729Y-14396389D01*
X17721110Y-14577341D02*
X17730634Y-14586865D01*
X17730634Y-14586865D02*
X17721110Y-14596389D01*
X17721110Y-14596389D02*
X17711586Y-14586865D01*
X17711586Y-14586865D02*
X17721110Y-14577341D01*
X17721110Y-14577341D02*
X17721110Y-14596389D01*
X17854443Y-14396389D02*
X17873491Y-14396389D01*
X17873491Y-14396389D02*
X17892539Y-14405913D01*
X17892539Y-14405913D02*
X17902063Y-14415436D01*
X17902063Y-14415436D02*
X17911586Y-14434484D01*
X17911586Y-14434484D02*
X17921110Y-14472579D01*
X17921110Y-14472579D02*
X17921110Y-14520198D01*
X17921110Y-14520198D02*
X17911586Y-14558293D01*
X17911586Y-14558293D02*
X17902063Y-14577341D01*
X17902063Y-14577341D02*
X17892539Y-14586865D01*
X17892539Y-14586865D02*
X17873491Y-14596389D01*
X17873491Y-14596389D02*
X17854443Y-14596389D01*
X17854443Y-14596389D02*
X17835396Y-14586865D01*
X17835396Y-14586865D02*
X17825872Y-14577341D01*
X17825872Y-14577341D02*
X17816348Y-14558293D01*
X17816348Y-14558293D02*
X17806824Y-14520198D01*
X17806824Y-14520198D02*
X17806824Y-14472579D01*
X17806824Y-14472579D02*
X17816348Y-14434484D01*
X17816348Y-14434484D02*
X17825872Y-14415436D01*
X17825872Y-14415436D02*
X17835396Y-14405913D01*
X17835396Y-14405913D02*
X17854443Y-14396389D01*
X18016348Y-14596389D02*
X18054443Y-14596389D01*
X18054443Y-14596389D02*
X18073491Y-14586865D01*
X18073491Y-14586865D02*
X18083015Y-14577341D01*
X18083015Y-14577341D02*
X18102063Y-14548770D01*
X18102063Y-14548770D02*
X18111586Y-14510674D01*
X18111586Y-14510674D02*
X18111586Y-14434484D01*
X18111586Y-14434484D02*
X18102063Y-14415436D01*
X18102063Y-14415436D02*
X18092539Y-14405913D01*
X18092539Y-14405913D02*
X18073491Y-14396389D01*
X18073491Y-14396389D02*
X18035396Y-14396389D01*
X18035396Y-14396389D02*
X18016348Y-14405913D01*
X18016348Y-14405913D02*
X18006824Y-14415436D01*
X18006824Y-14415436D02*
X17997301Y-14434484D01*
X17997301Y-14434484D02*
X17997301Y-14482103D01*
X17997301Y-14482103D02*
X18006824Y-14501151D01*
X18006824Y-14501151D02*
X18016348Y-14510674D01*
X18016348Y-14510674D02*
X18035396Y-14520198D01*
X18035396Y-14520198D02*
X18073491Y-14520198D01*
X18073491Y-14520198D02*
X18092539Y-14510674D01*
X18092539Y-14510674D02*
X18102063Y-14501151D01*
X18102063Y-14501151D02*
X18111586Y-14482103D01*
X18225872Y-14482103D02*
X18206824Y-14472579D01*
X18206824Y-14472579D02*
X18197301Y-14463055D01*
X18197301Y-14463055D02*
X18187777Y-14444008D01*
X18187777Y-14444008D02*
X18187777Y-14434484D01*
X18187777Y-14434484D02*
X18197301Y-14415436D01*
X18197301Y-14415436D02*
X18206824Y-14405913D01*
X18206824Y-14405913D02*
X18225872Y-14396389D01*
X18225872Y-14396389D02*
X18263967Y-14396389D01*
X18263967Y-14396389D02*
X18283015Y-14405913D01*
X18283015Y-14405913D02*
X18292539Y-14415436D01*
X18292539Y-14415436D02*
X18302063Y-14434484D01*
X18302063Y-14434484D02*
X18302063Y-14444008D01*
X18302063Y-14444008D02*
X18292539Y-14463055D01*
X18292539Y-14463055D02*
X18283015Y-14472579D01*
X18283015Y-14472579D02*
X18263967Y-14482103D01*
X18263967Y-14482103D02*
X18225872Y-14482103D01*
X18225872Y-14482103D02*
X18206824Y-14491627D01*
X18206824Y-14491627D02*
X18197301Y-14501151D01*
X18197301Y-14501151D02*
X18187777Y-14520198D01*
X18187777Y-14520198D02*
X18187777Y-14558293D01*
X18187777Y-14558293D02*
X18197301Y-14577341D01*
X18197301Y-14577341D02*
X18206824Y-14586865D01*
X18206824Y-14586865D02*
X18225872Y-14596389D01*
X18225872Y-14596389D02*
X18263967Y-14596389D01*
X18263967Y-14596389D02*
X18283015Y-14586865D01*
X18283015Y-14586865D02*
X18292539Y-14577341D01*
X18292539Y-14577341D02*
X18302063Y-14558293D01*
X18302063Y-14558293D02*
X18302063Y-14520198D01*
X18302063Y-14520198D02*
X18292539Y-14501151D01*
X18292539Y-14501151D02*
X18283015Y-14491627D01*
X18283015Y-14491627D02*
X18263967Y-14482103D01*
X18473491Y-14463055D02*
X18473491Y-14596389D01*
X18425872Y-14386865D02*
X18378253Y-14529722D01*
X18378253Y-14529722D02*
X18502063Y-14529722D01*
X18568729Y-14396389D02*
X18568729Y-14434484D01*
X18644920Y-14396389D02*
X18644920Y-14434484D01*
X18940158Y-14672579D02*
X18930634Y-14663055D01*
X18930634Y-14663055D02*
X18911586Y-14634484D01*
X18911586Y-14634484D02*
X18902063Y-14615436D01*
X18902063Y-14615436D02*
X18892539Y-14586865D01*
X18892539Y-14586865D02*
X18883015Y-14539246D01*
X18883015Y-14539246D02*
X18883015Y-14501151D01*
X18883015Y-14501151D02*
X18892539Y-14453532D01*
X18892539Y-14453532D02*
X18902063Y-14424960D01*
X18902063Y-14424960D02*
X18911586Y-14405913D01*
X18911586Y-14405913D02*
X18930634Y-14377341D01*
X18930634Y-14377341D02*
X18940158Y-14367817D01*
X19102063Y-14463055D02*
X19102063Y-14596389D01*
X19054444Y-14386865D02*
X19006825Y-14529722D01*
X19006825Y-14529722D02*
X19130634Y-14529722D01*
X19359206Y-14596389D02*
X19359206Y-14396389D01*
X19444920Y-14596389D02*
X19444920Y-14491627D01*
X19444920Y-14491627D02*
X19435396Y-14472579D01*
X19435396Y-14472579D02*
X19416348Y-14463055D01*
X19416348Y-14463055D02*
X19387777Y-14463055D01*
X19387777Y-14463055D02*
X19368729Y-14472579D01*
X19368729Y-14472579D02*
X19359206Y-14482103D01*
X19568729Y-14596389D02*
X19549682Y-14586865D01*
X19549682Y-14586865D02*
X19540158Y-14577341D01*
X19540158Y-14577341D02*
X19530634Y-14558293D01*
X19530634Y-14558293D02*
X19530634Y-14501151D01*
X19530634Y-14501151D02*
X19540158Y-14482103D01*
X19540158Y-14482103D02*
X19549682Y-14472579D01*
X19549682Y-14472579D02*
X19568729Y-14463055D01*
X19568729Y-14463055D02*
X19597301Y-14463055D01*
X19597301Y-14463055D02*
X19616348Y-14472579D01*
X19616348Y-14472579D02*
X19625872Y-14482103D01*
X19625872Y-14482103D02*
X19635396Y-14501151D01*
X19635396Y-14501151D02*
X19635396Y-14558293D01*
X19635396Y-14558293D02*
X19625872Y-14577341D01*
X19625872Y-14577341D02*
X19616348Y-14586865D01*
X19616348Y-14586865D02*
X19597301Y-14596389D01*
X19597301Y-14596389D02*
X19568729Y-14596389D01*
X19749682Y-14596389D02*
X19730634Y-14586865D01*
X19730634Y-14586865D02*
X19721110Y-14567817D01*
X19721110Y-14567817D02*
X19721110Y-14396389D01*
X19902063Y-14586865D02*
X19883015Y-14596389D01*
X19883015Y-14596389D02*
X19844920Y-14596389D01*
X19844920Y-14596389D02*
X19825872Y-14586865D01*
X19825872Y-14586865D02*
X19816348Y-14567817D01*
X19816348Y-14567817D02*
X19816348Y-14491627D01*
X19816348Y-14491627D02*
X19825872Y-14472579D01*
X19825872Y-14472579D02*
X19844920Y-14463055D01*
X19844920Y-14463055D02*
X19883015Y-14463055D01*
X19883015Y-14463055D02*
X19902063Y-14472579D01*
X19902063Y-14472579D02*
X19911587Y-14491627D01*
X19911587Y-14491627D02*
X19911587Y-14510674D01*
X19911587Y-14510674D02*
X19816348Y-14529722D01*
X19987777Y-14586865D02*
X20006825Y-14596389D01*
X20006825Y-14596389D02*
X20044920Y-14596389D01*
X20044920Y-14596389D02*
X20063968Y-14586865D01*
X20063968Y-14586865D02*
X20073491Y-14567817D01*
X20073491Y-14567817D02*
X20073491Y-14558293D01*
X20073491Y-14558293D02*
X20063968Y-14539246D01*
X20063968Y-14539246D02*
X20044920Y-14529722D01*
X20044920Y-14529722D02*
X20016348Y-14529722D01*
X20016348Y-14529722D02*
X19997301Y-14520198D01*
X19997301Y-14520198D02*
X19987777Y-14501151D01*
X19987777Y-14501151D02*
X19987777Y-14491627D01*
X19987777Y-14491627D02*
X19997301Y-14472579D01*
X19997301Y-14472579D02*
X20016348Y-14463055D01*
X20016348Y-14463055D02*
X20044920Y-14463055D01*
X20044920Y-14463055D02*
X20063968Y-14472579D01*
X20140158Y-14672579D02*
X20149682Y-14663055D01*
X20149682Y-14663055D02*
X20168729Y-14634484D01*
X20168729Y-14634484D02*
X20178253Y-14615436D01*
X20178253Y-14615436D02*
X20187777Y-14586865D01*
X20187777Y-14586865D02*
X20197301Y-14539246D01*
X20197301Y-14539246D02*
X20197301Y-14501151D01*
X20197301Y-14501151D02*
X20187777Y-14453532D01*
X20187777Y-14453532D02*
X20178253Y-14424960D01*
X20178253Y-14424960D02*
X20168729Y-14405913D01*
X20168729Y-14405913D02*
X20149682Y-14377341D01*
X20149682Y-14377341D02*
X20140158Y-14367817D01*
M02*
