G04 #@! TF.GenerationSoftware,KiCad,Pcbnew,7.0.5*
G04 #@! TF.CreationDate,2024-09-21T21:16:43+03:00*
G04 #@! TF.ProjectId,MatterEverything_Board,4d617474-6572-4457-9665-72797468696e,rev?*
G04 #@! TF.SameCoordinates,Original*
G04 #@! TF.FileFunction,Legend,Bot*
G04 #@! TF.FilePolarity,Positive*
%FSLAX46Y46*%
G04 Gerber Fmt 4.6, Leading zero omitted, Abs format (unit mm)*
G04 Created by KiCad (PCBNEW 7.0.5) date 2024-09-21 21:16:43*
%MOMM*%
%LPD*%
G01*
G04 APERTURE LIST*
%ADD10C,0.150000*%
%ADD11C,0.120000*%
%ADD12C,2.200000*%
%ADD13C,3.000000*%
%ADD14R,2.600000X1.800000*%
%ADD15O,2.600000X1.800000*%
%ADD16R,1.700000X1.700000*%
%ADD17O,1.700000X1.700000*%
%ADD18C,1.560000*%
%ADD19R,1.560000X1.560000*%
%ADD20O,1.600000X1.600000*%
%ADD21R,1.600000X1.600000*%
G04 APERTURE END LIST*
D10*
X194764819Y-79325714D02*
X193764819Y-79325714D01*
X193764819Y-79325714D02*
X193764819Y-79563809D01*
X193764819Y-79563809D02*
X193812438Y-79706666D01*
X193812438Y-79706666D02*
X193907676Y-79801904D01*
X193907676Y-79801904D02*
X194002914Y-79849523D01*
X194002914Y-79849523D02*
X194193390Y-79897142D01*
X194193390Y-79897142D02*
X194336247Y-79897142D01*
X194336247Y-79897142D02*
X194526723Y-79849523D01*
X194526723Y-79849523D02*
X194621961Y-79801904D01*
X194621961Y-79801904D02*
X194717200Y-79706666D01*
X194717200Y-79706666D02*
X194764819Y-79563809D01*
X194764819Y-79563809D02*
X194764819Y-79325714D01*
X194717200Y-80278095D02*
X194764819Y-80420952D01*
X194764819Y-80420952D02*
X194764819Y-80659047D01*
X194764819Y-80659047D02*
X194717200Y-80754285D01*
X194717200Y-80754285D02*
X194669580Y-80801904D01*
X194669580Y-80801904D02*
X194574342Y-80849523D01*
X194574342Y-80849523D02*
X194479104Y-80849523D01*
X194479104Y-80849523D02*
X194383866Y-80801904D01*
X194383866Y-80801904D02*
X194336247Y-80754285D01*
X194336247Y-80754285D02*
X194288628Y-80659047D01*
X194288628Y-80659047D02*
X194241009Y-80468571D01*
X194241009Y-80468571D02*
X194193390Y-80373333D01*
X194193390Y-80373333D02*
X194145771Y-80325714D01*
X194145771Y-80325714D02*
X194050533Y-80278095D01*
X194050533Y-80278095D02*
X193955295Y-80278095D01*
X193955295Y-80278095D02*
X193860057Y-80325714D01*
X193860057Y-80325714D02*
X193812438Y-80373333D01*
X193812438Y-80373333D02*
X193764819Y-80468571D01*
X193764819Y-80468571D02*
X193764819Y-80706666D01*
X193764819Y-80706666D02*
X193812438Y-80849523D01*
X194764819Y-81801904D02*
X194764819Y-81230476D01*
X194764819Y-81516190D02*
X193764819Y-81516190D01*
X193764819Y-81516190D02*
X193907676Y-81420952D01*
X193907676Y-81420952D02*
X194002914Y-81325714D01*
X194002914Y-81325714D02*
X194050533Y-81230476D01*
D11*
X201120000Y-81360000D02*
X201120000Y-154360000D01*
X231760000Y-158500000D02*
X195480000Y-158500000D01*
X231760000Y-78220000D02*
X231760000Y-158500000D01*
X195480000Y-78220000D02*
X231760000Y-78220000D01*
X221120000Y-150060660D02*
X221120000Y-86560000D01*
X195480000Y-78230000D02*
X195480000Y-79020000D01*
X220619320Y-86060280D02*
X206620000Y-86060280D01*
X195480000Y-158500000D02*
X195480000Y-79020000D01*
X201120000Y-154360000D02*
X226120000Y-154360000D01*
X226120000Y-154360000D02*
X226120000Y-81360000D01*
X206620000Y-150560000D02*
X220620000Y-150560000D01*
X206120000Y-86560000D02*
X206120000Y-150060000D01*
X195120000Y-84860000D02*
X195120000Y-87860000D01*
X226120000Y-81360000D02*
X201120000Y-81360000D01*
X206618840Y-86060280D02*
G75*
G03*
X206118460Y-86560660I0J-500380D01*
G01*
X221119700Y-86560660D02*
G75*
G03*
X220619320Y-86060280I-500380J0D01*
G01*
X220619320Y-150561100D02*
G75*
G03*
X221119700Y-150060660I-20J500400D01*
G01*
X206120000Y-150060000D02*
G75*
G03*
X206620000Y-150560000I500000J0D01*
G01*
%LPC*%
D12*
X157300000Y-129900000D03*
X156900000Y-84800000D03*
D13*
X229120700Y-155859480D03*
X198120000Y-80860900D03*
X229120700Y-80860900D03*
X198120000Y-155860000D03*
D14*
X198120000Y-86360000D03*
D15*
X198120000Y-88900000D03*
X198120000Y-91440000D03*
X198120000Y-93980000D03*
X198120000Y-96520000D03*
X198120000Y-99060000D03*
X198120000Y-101600000D03*
X198120000Y-104140000D03*
X198120000Y-106680000D03*
X198120000Y-109220000D03*
X198120000Y-111760000D03*
X198120000Y-114300000D03*
X198120000Y-116840000D03*
X198120000Y-119380000D03*
X198120000Y-121920000D03*
X198120000Y-124460000D03*
D16*
X157480000Y-95250000D03*
D17*
X157480000Y-97790000D03*
X157480000Y-100330000D03*
D18*
X186690000Y-83820000D03*
X191690000Y-86320000D03*
D19*
X186690000Y-88820000D03*
D16*
X157480000Y-118110000D03*
D17*
X157480000Y-120650000D03*
X157480000Y-123190000D03*
D20*
X165100000Y-128270000D03*
X165100000Y-125730000D03*
X165100000Y-123190000D03*
X165100000Y-120650000D03*
X165100000Y-118110000D03*
X165100000Y-115570000D03*
X165100000Y-113030000D03*
X165100000Y-110490000D03*
X165100000Y-107950000D03*
X165100000Y-105410000D03*
X165100000Y-102870000D03*
X165100000Y-100330000D03*
X165100000Y-97790000D03*
X165100000Y-95250000D03*
X165100000Y-92710000D03*
X180340000Y-92710000D03*
X180340000Y-95250000D03*
X180340000Y-97790000D03*
X180340000Y-100330000D03*
X180340000Y-102870000D03*
X180340000Y-105410000D03*
X180340000Y-107950000D03*
X180340000Y-110490000D03*
X180340000Y-113030000D03*
X180340000Y-115570000D03*
X180340000Y-118110000D03*
X180340000Y-120650000D03*
X180340000Y-123190000D03*
X180340000Y-125730000D03*
D21*
X180340000Y-128270000D03*
%LPD*%
M02*
