G04 #@! TF.GenerationSoftware,KiCad,Pcbnew,7.0.5*
G04 #@! TF.CreationDate,2024-09-21T21:16:43+03:00*
G04 #@! TF.ProjectId,MatterEverything_Board,4d617474-6572-4457-9665-72797468696e,rev?*
G04 #@! TF.SameCoordinates,Original*
G04 #@! TF.FileFunction,Legend,Top*
G04 #@! TF.FilePolarity,Positive*
%FSLAX46Y46*%
G04 Gerber Fmt 4.6, Leading zero omitted, Abs format (unit mm)*
G04 Created by KiCad (PCBNEW 7.0.5) date 2024-09-21 21:16:43*
%MOMM*%
%LPD*%
G01*
G04 APERTURE LIST*
%ADD10C,0.300000*%
%ADD11C,0.150000*%
%ADD12C,0.120000*%
%ADD13C,2.200000*%
%ADD14C,3.000000*%
%ADD15R,2.600000X1.800000*%
%ADD16O,2.600000X1.800000*%
%ADD17R,1.700000X1.700000*%
%ADD18O,1.700000X1.700000*%
%ADD19C,1.560000*%
%ADD20R,1.560000X1.560000*%
%ADD21O,1.600000X1.600000*%
%ADD22R,1.600000X1.600000*%
G04 APERTURE END LIST*
D10*
X183654510Y-126385114D02*
X183868796Y-126456542D01*
X183868796Y-126456542D02*
X183940225Y-126527971D01*
X183940225Y-126527971D02*
X184011653Y-126670828D01*
X184011653Y-126670828D02*
X184011653Y-126885114D01*
X184011653Y-126885114D02*
X183940225Y-127027971D01*
X183940225Y-127027971D02*
X183868796Y-127099400D01*
X183868796Y-127099400D02*
X183725939Y-127170828D01*
X183725939Y-127170828D02*
X183154510Y-127170828D01*
X183154510Y-127170828D02*
X183154510Y-125670828D01*
X183154510Y-125670828D02*
X183654510Y-125670828D01*
X183654510Y-125670828D02*
X183797368Y-125742257D01*
X183797368Y-125742257D02*
X183868796Y-125813685D01*
X183868796Y-125813685D02*
X183940225Y-125956542D01*
X183940225Y-125956542D02*
X183940225Y-126099400D01*
X183940225Y-126099400D02*
X183868796Y-126242257D01*
X183868796Y-126242257D02*
X183797368Y-126313685D01*
X183797368Y-126313685D02*
X183654510Y-126385114D01*
X183654510Y-126385114D02*
X183154510Y-126385114D01*
X184511653Y-126170828D02*
X184868796Y-127170828D01*
X185225939Y-126170828D02*
X184868796Y-127170828D01*
X184868796Y-127170828D02*
X184725939Y-127527971D01*
X184725939Y-127527971D02*
X184654510Y-127599400D01*
X184654510Y-127599400D02*
X184511653Y-127670828D01*
X186940224Y-127027971D02*
X187011653Y-127099400D01*
X187011653Y-127099400D02*
X186940224Y-127170828D01*
X186940224Y-127170828D02*
X186868796Y-127099400D01*
X186868796Y-127099400D02*
X186940224Y-127027971D01*
X186940224Y-127027971D02*
X186940224Y-127170828D01*
X186940224Y-126242257D02*
X187011653Y-126313685D01*
X187011653Y-126313685D02*
X186940224Y-126385114D01*
X186940224Y-126385114D02*
X186868796Y-126313685D01*
X186868796Y-126313685D02*
X186940224Y-126242257D01*
X186940224Y-126242257D02*
X186940224Y-126385114D01*
X189297367Y-126385114D02*
X189511653Y-126456542D01*
X189511653Y-126456542D02*
X189583082Y-126527971D01*
X189583082Y-126527971D02*
X189654510Y-126670828D01*
X189654510Y-126670828D02*
X189654510Y-126885114D01*
X189654510Y-126885114D02*
X189583082Y-127027971D01*
X189583082Y-127027971D02*
X189511653Y-127099400D01*
X189511653Y-127099400D02*
X189368796Y-127170828D01*
X189368796Y-127170828D02*
X188797367Y-127170828D01*
X188797367Y-127170828D02*
X188797367Y-125670828D01*
X188797367Y-125670828D02*
X189297367Y-125670828D01*
X189297367Y-125670828D02*
X189440225Y-125742257D01*
X189440225Y-125742257D02*
X189511653Y-125813685D01*
X189511653Y-125813685D02*
X189583082Y-125956542D01*
X189583082Y-125956542D02*
X189583082Y-126099400D01*
X189583082Y-126099400D02*
X189511653Y-126242257D01*
X189511653Y-126242257D02*
X189440225Y-126313685D01*
X189440225Y-126313685D02*
X189297367Y-126385114D01*
X189297367Y-126385114D02*
X188797367Y-126385114D01*
X190868796Y-127099400D02*
X190725939Y-127170828D01*
X190725939Y-127170828D02*
X190440225Y-127170828D01*
X190440225Y-127170828D02*
X190297367Y-127099400D01*
X190297367Y-127099400D02*
X190225939Y-126956542D01*
X190225939Y-126956542D02*
X190225939Y-126385114D01*
X190225939Y-126385114D02*
X190297367Y-126242257D01*
X190297367Y-126242257D02*
X190440225Y-126170828D01*
X190440225Y-126170828D02*
X190725939Y-126170828D01*
X190725939Y-126170828D02*
X190868796Y-126242257D01*
X190868796Y-126242257D02*
X190940225Y-126385114D01*
X190940225Y-126385114D02*
X190940225Y-126527971D01*
X190940225Y-126527971D02*
X190225939Y-126670828D01*
X192225939Y-127170828D02*
X192225939Y-125670828D01*
X192225939Y-127099400D02*
X192083081Y-127170828D01*
X192083081Y-127170828D02*
X191797367Y-127170828D01*
X191797367Y-127170828D02*
X191654510Y-127099400D01*
X191654510Y-127099400D02*
X191583081Y-127027971D01*
X191583081Y-127027971D02*
X191511653Y-126885114D01*
X191511653Y-126885114D02*
X191511653Y-126456542D01*
X191511653Y-126456542D02*
X191583081Y-126313685D01*
X191583081Y-126313685D02*
X191654510Y-126242257D01*
X191654510Y-126242257D02*
X191797367Y-126170828D01*
X191797367Y-126170828D02*
X192083081Y-126170828D01*
X192083081Y-126170828D02*
X192225939Y-126242257D01*
X193583082Y-127170828D02*
X193583082Y-126385114D01*
X193583082Y-126385114D02*
X193511653Y-126242257D01*
X193511653Y-126242257D02*
X193368796Y-126170828D01*
X193368796Y-126170828D02*
X193083082Y-126170828D01*
X193083082Y-126170828D02*
X192940224Y-126242257D01*
X193583082Y-127099400D02*
X193440224Y-127170828D01*
X193440224Y-127170828D02*
X193083082Y-127170828D01*
X193083082Y-127170828D02*
X192940224Y-127099400D01*
X192940224Y-127099400D02*
X192868796Y-126956542D01*
X192868796Y-126956542D02*
X192868796Y-126813685D01*
X192868796Y-126813685D02*
X192940224Y-126670828D01*
X192940224Y-126670828D02*
X193083082Y-126599400D01*
X193083082Y-126599400D02*
X193440224Y-126599400D01*
X193440224Y-126599400D02*
X193583082Y-126527971D01*
X194297367Y-127170828D02*
X194297367Y-126170828D01*
X194297367Y-125670828D02*
X194225939Y-125742257D01*
X194225939Y-125742257D02*
X194297367Y-125813685D01*
X194297367Y-125813685D02*
X194368796Y-125742257D01*
X194368796Y-125742257D02*
X194297367Y-125670828D01*
X194297367Y-125670828D02*
X194297367Y-125813685D01*
X195011653Y-127170828D02*
X195011653Y-126170828D01*
X195011653Y-126456542D02*
X195083082Y-126313685D01*
X195083082Y-126313685D02*
X195154511Y-126242257D01*
X195154511Y-126242257D02*
X195297368Y-126170828D01*
X195297368Y-126170828D02*
X195440225Y-126170828D01*
X183154510Y-129585828D02*
X183154510Y-128085828D01*
X183154510Y-128085828D02*
X183654510Y-129157257D01*
X183654510Y-129157257D02*
X184154510Y-128085828D01*
X184154510Y-128085828D02*
X184154510Y-129585828D01*
X185511654Y-129585828D02*
X185511654Y-128800114D01*
X185511654Y-128800114D02*
X185440225Y-128657257D01*
X185440225Y-128657257D02*
X185297368Y-128585828D01*
X185297368Y-128585828D02*
X185011654Y-128585828D01*
X185011654Y-128585828D02*
X184868796Y-128657257D01*
X185511654Y-129514400D02*
X185368796Y-129585828D01*
X185368796Y-129585828D02*
X185011654Y-129585828D01*
X185011654Y-129585828D02*
X184868796Y-129514400D01*
X184868796Y-129514400D02*
X184797368Y-129371542D01*
X184797368Y-129371542D02*
X184797368Y-129228685D01*
X184797368Y-129228685D02*
X184868796Y-129085828D01*
X184868796Y-129085828D02*
X185011654Y-129014400D01*
X185011654Y-129014400D02*
X185368796Y-129014400D01*
X185368796Y-129014400D02*
X185511654Y-128942971D01*
X186011654Y-128585828D02*
X186583082Y-128585828D01*
X186225939Y-128085828D02*
X186225939Y-129371542D01*
X186225939Y-129371542D02*
X186297368Y-129514400D01*
X186297368Y-129514400D02*
X186440225Y-129585828D01*
X186440225Y-129585828D02*
X186583082Y-129585828D01*
X186868797Y-128585828D02*
X187440225Y-128585828D01*
X187083082Y-128085828D02*
X187083082Y-129371542D01*
X187083082Y-129371542D02*
X187154511Y-129514400D01*
X187154511Y-129514400D02*
X187297368Y-129585828D01*
X187297368Y-129585828D02*
X187440225Y-129585828D01*
X188511654Y-129514400D02*
X188368797Y-129585828D01*
X188368797Y-129585828D02*
X188083083Y-129585828D01*
X188083083Y-129585828D02*
X187940225Y-129514400D01*
X187940225Y-129514400D02*
X187868797Y-129371542D01*
X187868797Y-129371542D02*
X187868797Y-128800114D01*
X187868797Y-128800114D02*
X187940225Y-128657257D01*
X187940225Y-128657257D02*
X188083083Y-128585828D01*
X188083083Y-128585828D02*
X188368797Y-128585828D01*
X188368797Y-128585828D02*
X188511654Y-128657257D01*
X188511654Y-128657257D02*
X188583083Y-128800114D01*
X188583083Y-128800114D02*
X188583083Y-128942971D01*
X188583083Y-128942971D02*
X187868797Y-129085828D01*
X189225939Y-129585828D02*
X189225939Y-128585828D01*
X189225939Y-128871542D02*
X189297368Y-128728685D01*
X189297368Y-128728685D02*
X189368797Y-128657257D01*
X189368797Y-128657257D02*
X189511654Y-128585828D01*
X189511654Y-128585828D02*
X189654511Y-128585828D01*
X191297367Y-128800114D02*
X191797367Y-128800114D01*
X192011653Y-129585828D02*
X191297367Y-129585828D01*
X191297367Y-129585828D02*
X191297367Y-128085828D01*
X191297367Y-128085828D02*
X192011653Y-128085828D01*
X192511653Y-128585828D02*
X192868796Y-129585828D01*
X192868796Y-129585828D02*
X193225939Y-128585828D01*
X194368796Y-129514400D02*
X194225939Y-129585828D01*
X194225939Y-129585828D02*
X193940225Y-129585828D01*
X193940225Y-129585828D02*
X193797367Y-129514400D01*
X193797367Y-129514400D02*
X193725939Y-129371542D01*
X193725939Y-129371542D02*
X193725939Y-128800114D01*
X193725939Y-128800114D02*
X193797367Y-128657257D01*
X193797367Y-128657257D02*
X193940225Y-128585828D01*
X193940225Y-128585828D02*
X194225939Y-128585828D01*
X194225939Y-128585828D02*
X194368796Y-128657257D01*
X194368796Y-128657257D02*
X194440225Y-128800114D01*
X194440225Y-128800114D02*
X194440225Y-128942971D01*
X194440225Y-128942971D02*
X193725939Y-129085828D01*
X195083081Y-129585828D02*
X195083081Y-128585828D01*
X195083081Y-128871542D02*
X195154510Y-128728685D01*
X195154510Y-128728685D02*
X195225939Y-128657257D01*
X195225939Y-128657257D02*
X195368796Y-128585828D01*
X195368796Y-128585828D02*
X195511653Y-128585828D01*
X195868795Y-128585828D02*
X196225938Y-129585828D01*
X196583081Y-128585828D02*
X196225938Y-129585828D01*
X196225938Y-129585828D02*
X196083081Y-129942971D01*
X196083081Y-129942971D02*
X196011652Y-130014400D01*
X196011652Y-130014400D02*
X195868795Y-130085828D01*
X196940224Y-128585828D02*
X197511652Y-128585828D01*
X197154509Y-128085828D02*
X197154509Y-129371542D01*
X197154509Y-129371542D02*
X197225938Y-129514400D01*
X197225938Y-129514400D02*
X197368795Y-129585828D01*
X197368795Y-129585828D02*
X197511652Y-129585828D01*
X198011652Y-129585828D02*
X198011652Y-128085828D01*
X198654510Y-129585828D02*
X198654510Y-128800114D01*
X198654510Y-128800114D02*
X198583081Y-128657257D01*
X198583081Y-128657257D02*
X198440224Y-128585828D01*
X198440224Y-128585828D02*
X198225938Y-128585828D01*
X198225938Y-128585828D02*
X198083081Y-128657257D01*
X198083081Y-128657257D02*
X198011652Y-128728685D01*
X199368795Y-129585828D02*
X199368795Y-128585828D01*
X199368795Y-128085828D02*
X199297367Y-128157257D01*
X199297367Y-128157257D02*
X199368795Y-128228685D01*
X199368795Y-128228685D02*
X199440224Y-128157257D01*
X199440224Y-128157257D02*
X199368795Y-128085828D01*
X199368795Y-128085828D02*
X199368795Y-128228685D01*
X200083081Y-128585828D02*
X200083081Y-129585828D01*
X200083081Y-128728685D02*
X200154510Y-128657257D01*
X200154510Y-128657257D02*
X200297367Y-128585828D01*
X200297367Y-128585828D02*
X200511653Y-128585828D01*
X200511653Y-128585828D02*
X200654510Y-128657257D01*
X200654510Y-128657257D02*
X200725939Y-128800114D01*
X200725939Y-128800114D02*
X200725939Y-129585828D01*
X202083082Y-128585828D02*
X202083082Y-129800114D01*
X202083082Y-129800114D02*
X202011653Y-129942971D01*
X202011653Y-129942971D02*
X201940224Y-130014400D01*
X201940224Y-130014400D02*
X201797367Y-130085828D01*
X201797367Y-130085828D02*
X201583082Y-130085828D01*
X201583082Y-130085828D02*
X201440224Y-130014400D01*
X202083082Y-129514400D02*
X201940224Y-129585828D01*
X201940224Y-129585828D02*
X201654510Y-129585828D01*
X201654510Y-129585828D02*
X201511653Y-129514400D01*
X201511653Y-129514400D02*
X201440224Y-129442971D01*
X201440224Y-129442971D02*
X201368796Y-129300114D01*
X201368796Y-129300114D02*
X201368796Y-128871542D01*
X201368796Y-128871542D02*
X201440224Y-128728685D01*
X201440224Y-128728685D02*
X201511653Y-128657257D01*
X201511653Y-128657257D02*
X201654510Y-128585828D01*
X201654510Y-128585828D02*
X201940224Y-128585828D01*
X201940224Y-128585828D02*
X202083082Y-128657257D01*
X182940225Y-130500828D02*
X183440225Y-132000828D01*
X183440225Y-132000828D02*
X183940225Y-130500828D01*
X185868796Y-130500828D02*
X186011653Y-130500828D01*
X186011653Y-130500828D02*
X186154510Y-130572257D01*
X186154510Y-130572257D02*
X186225939Y-130643685D01*
X186225939Y-130643685D02*
X186297367Y-130786542D01*
X186297367Y-130786542D02*
X186368796Y-131072257D01*
X186368796Y-131072257D02*
X186368796Y-131429400D01*
X186368796Y-131429400D02*
X186297367Y-131715114D01*
X186297367Y-131715114D02*
X186225939Y-131857971D01*
X186225939Y-131857971D02*
X186154510Y-131929400D01*
X186154510Y-131929400D02*
X186011653Y-132000828D01*
X186011653Y-132000828D02*
X185868796Y-132000828D01*
X185868796Y-132000828D02*
X185725939Y-131929400D01*
X185725939Y-131929400D02*
X185654510Y-131857971D01*
X185654510Y-131857971D02*
X185583081Y-131715114D01*
X185583081Y-131715114D02*
X185511653Y-131429400D01*
X185511653Y-131429400D02*
X185511653Y-131072257D01*
X185511653Y-131072257D02*
X185583081Y-130786542D01*
X185583081Y-130786542D02*
X185654510Y-130643685D01*
X185654510Y-130643685D02*
X185725939Y-130572257D01*
X185725939Y-130572257D02*
X185868796Y-130500828D01*
X187011652Y-131857971D02*
X187083081Y-131929400D01*
X187083081Y-131929400D02*
X187011652Y-132000828D01*
X187011652Y-132000828D02*
X186940224Y-131929400D01*
X186940224Y-131929400D02*
X187011652Y-131857971D01*
X187011652Y-131857971D02*
X187011652Y-132000828D01*
X188511653Y-132000828D02*
X187654510Y-132000828D01*
X188083081Y-132000828D02*
X188083081Y-130500828D01*
X188083081Y-130500828D02*
X187940224Y-130715114D01*
X187940224Y-130715114D02*
X187797367Y-130857971D01*
X187797367Y-130857971D02*
X187654510Y-130929400D01*
D11*
X157146666Y-92374819D02*
X157146666Y-93089104D01*
X157146666Y-93089104D02*
X157099047Y-93231961D01*
X157099047Y-93231961D02*
X157003809Y-93327200D01*
X157003809Y-93327200D02*
X156860952Y-93374819D01*
X156860952Y-93374819D02*
X156765714Y-93374819D01*
X158146666Y-93374819D02*
X157575238Y-93374819D01*
X157860952Y-93374819D02*
X157860952Y-92374819D01*
X157860952Y-92374819D02*
X157765714Y-92517676D01*
X157765714Y-92517676D02*
X157670476Y-92612914D01*
X157670476Y-92612914D02*
X157575238Y-92660533D01*
X184644819Y-86815238D02*
X184168628Y-87148571D01*
X184644819Y-87386666D02*
X183644819Y-87386666D01*
X183644819Y-87386666D02*
X183644819Y-87005714D01*
X183644819Y-87005714D02*
X183692438Y-86910476D01*
X183692438Y-86910476D02*
X183740057Y-86862857D01*
X183740057Y-86862857D02*
X183835295Y-86815238D01*
X183835295Y-86815238D02*
X183978152Y-86815238D01*
X183978152Y-86815238D02*
X184073390Y-86862857D01*
X184073390Y-86862857D02*
X184121009Y-86910476D01*
X184121009Y-86910476D02*
X184168628Y-87005714D01*
X184168628Y-87005714D02*
X184168628Y-87386666D01*
X183644819Y-86529523D02*
X184644819Y-86196190D01*
X184644819Y-86196190D02*
X183644819Y-85862857D01*
X184644819Y-85005714D02*
X184644819Y-85577142D01*
X184644819Y-85291428D02*
X183644819Y-85291428D01*
X183644819Y-85291428D02*
X183787676Y-85386666D01*
X183787676Y-85386666D02*
X183882914Y-85481904D01*
X183882914Y-85481904D02*
X183930533Y-85577142D01*
X157146666Y-115234819D02*
X157146666Y-115949104D01*
X157146666Y-115949104D02*
X157099047Y-116091961D01*
X157099047Y-116091961D02*
X157003809Y-116187200D01*
X157003809Y-116187200D02*
X156860952Y-116234819D01*
X156860952Y-116234819D02*
X156765714Y-116234819D01*
X157575238Y-115330057D02*
X157622857Y-115282438D01*
X157622857Y-115282438D02*
X157718095Y-115234819D01*
X157718095Y-115234819D02*
X157956190Y-115234819D01*
X157956190Y-115234819D02*
X158051428Y-115282438D01*
X158051428Y-115282438D02*
X158099047Y-115330057D01*
X158099047Y-115330057D02*
X158146666Y-115425295D01*
X158146666Y-115425295D02*
X158146666Y-115520533D01*
X158146666Y-115520533D02*
X158099047Y-115663390D01*
X158099047Y-115663390D02*
X157527619Y-116234819D01*
X157527619Y-116234819D02*
X158146666Y-116234819D01*
X172185714Y-84869104D02*
X172661904Y-84869104D01*
X172090476Y-85154819D02*
X172423809Y-84154819D01*
X172423809Y-84154819D02*
X172757142Y-85154819D01*
X173614285Y-85154819D02*
X173042857Y-85154819D01*
X173328571Y-85154819D02*
X173328571Y-84154819D01*
X173328571Y-84154819D02*
X173233333Y-84297676D01*
X173233333Y-84297676D02*
X173138095Y-84392914D01*
X173138095Y-84392914D02*
X173042857Y-84440533D01*
X173981904Y-93255180D02*
X173981904Y-92445657D01*
X173981904Y-92445657D02*
X173934285Y-92350419D01*
X173934285Y-92350419D02*
X173886666Y-92302800D01*
X173886666Y-92302800D02*
X173791428Y-92255180D01*
X173791428Y-92255180D02*
X173600952Y-92255180D01*
X173600952Y-92255180D02*
X173505714Y-92302800D01*
X173505714Y-92302800D02*
X173458095Y-92350419D01*
X173458095Y-92350419D02*
X173410476Y-92445657D01*
X173410476Y-92445657D02*
X173410476Y-93255180D01*
X172981904Y-92302800D02*
X172839047Y-92255180D01*
X172839047Y-92255180D02*
X172600952Y-92255180D01*
X172600952Y-92255180D02*
X172505714Y-92302800D01*
X172505714Y-92302800D02*
X172458095Y-92350419D01*
X172458095Y-92350419D02*
X172410476Y-92445657D01*
X172410476Y-92445657D02*
X172410476Y-92540895D01*
X172410476Y-92540895D02*
X172458095Y-92636133D01*
X172458095Y-92636133D02*
X172505714Y-92683752D01*
X172505714Y-92683752D02*
X172600952Y-92731371D01*
X172600952Y-92731371D02*
X172791428Y-92778990D01*
X172791428Y-92778990D02*
X172886666Y-92826609D01*
X172886666Y-92826609D02*
X172934285Y-92874228D01*
X172934285Y-92874228D02*
X172981904Y-92969466D01*
X172981904Y-92969466D02*
X172981904Y-93064704D01*
X172981904Y-93064704D02*
X172934285Y-93159942D01*
X172934285Y-93159942D02*
X172886666Y-93207561D01*
X172886666Y-93207561D02*
X172791428Y-93255180D01*
X172791428Y-93255180D02*
X172553333Y-93255180D01*
X172553333Y-93255180D02*
X172410476Y-93207561D01*
X171648571Y-92778990D02*
X171505714Y-92731371D01*
X171505714Y-92731371D02*
X171458095Y-92683752D01*
X171458095Y-92683752D02*
X171410476Y-92588514D01*
X171410476Y-92588514D02*
X171410476Y-92445657D01*
X171410476Y-92445657D02*
X171458095Y-92350419D01*
X171458095Y-92350419D02*
X171505714Y-92302800D01*
X171505714Y-92302800D02*
X171600952Y-92255180D01*
X171600952Y-92255180D02*
X171981904Y-92255180D01*
X171981904Y-92255180D02*
X171981904Y-93255180D01*
X171981904Y-93255180D02*
X171648571Y-93255180D01*
X171648571Y-93255180D02*
X171553333Y-93207561D01*
X171553333Y-93207561D02*
X171505714Y-93159942D01*
X171505714Y-93159942D02*
X171458095Y-93064704D01*
X171458095Y-93064704D02*
X171458095Y-92969466D01*
X171458095Y-92969466D02*
X171505714Y-92874228D01*
X171505714Y-92874228D02*
X171553333Y-92826609D01*
X171553333Y-92826609D02*
X171648571Y-92778990D01*
X171648571Y-92778990D02*
X171981904Y-92778990D01*
D12*
X156150000Y-93920000D02*
X157480000Y-93920000D01*
X156150000Y-95250000D02*
X156150000Y-93920000D01*
X156150000Y-96520000D02*
X156150000Y-101660000D01*
X156150000Y-96520000D02*
X158810000Y-96520000D01*
X156150000Y-101660000D02*
X158810000Y-101660000D01*
X158810000Y-96520000D02*
X158810000Y-101660000D01*
X192500000Y-84320000D02*
G75*
G03*
X191190000Y-83010000I-1310000J0D01*
G01*
X191190000Y-89630000D02*
G75*
G03*
X192500000Y-88320000I0J1310000D01*
G01*
X187210000Y-83010000D02*
X191190000Y-83010000D01*
X185480000Y-83010000D02*
X186170000Y-83010000D01*
X185480000Y-83110000D02*
X185480000Y-83010000D01*
X185280000Y-83110000D02*
X185480000Y-83110000D01*
X192500000Y-84320000D02*
X192500000Y-85810000D01*
X185480000Y-84530000D02*
X185280000Y-84530000D01*
X185280000Y-84530000D02*
X185280000Y-83110000D01*
X192500000Y-86830000D02*
X192500000Y-88320000D01*
X185480000Y-88110000D02*
X185480000Y-84530000D01*
X185480000Y-88110000D02*
X185280000Y-88110000D01*
X185480000Y-89530000D02*
X185480000Y-89630000D01*
X185280000Y-89530000D02*
X185280000Y-88110000D01*
X185280000Y-89530000D02*
X185480000Y-89530000D01*
X191190000Y-89630000D02*
X187650000Y-89630000D01*
X185480000Y-89630000D02*
X185730000Y-89630000D01*
X156150000Y-116780000D02*
X157480000Y-116780000D01*
X156150000Y-118110000D02*
X156150000Y-116780000D01*
X156150000Y-119380000D02*
X156150000Y-124520000D01*
X156150000Y-119380000D02*
X158810000Y-119380000D01*
X156150000Y-124520000D02*
X158810000Y-124520000D01*
X158810000Y-119380000D02*
X158810000Y-124520000D01*
X163700000Y-88770000D02*
X163700000Y-132210000D01*
X163700000Y-88770000D02*
X168780000Y-88770000D01*
X163700000Y-132210000D02*
X181740000Y-132210000D01*
X166370000Y-91440000D02*
X163700000Y-91440000D01*
X166370000Y-129540000D02*
X163700000Y-129540000D01*
X166370000Y-129540000D02*
X166370000Y-91440000D01*
X168780000Y-86230000D02*
X176660000Y-86230000D01*
X168780000Y-96650000D02*
X168780000Y-86230000D01*
X176660000Y-86230000D02*
X176660000Y-96650000D01*
X176660000Y-96650000D02*
X168780000Y-96650000D01*
X179070000Y-91440000D02*
X181740000Y-91440000D01*
X179070000Y-127000000D02*
X179070000Y-91440000D01*
X179070000Y-127000000D02*
X179070000Y-129540000D01*
X179070000Y-127000000D02*
X181740000Y-127000000D01*
X179070000Y-129540000D02*
X181740000Y-129540000D01*
X181740000Y-88770000D02*
X176660000Y-88770000D01*
X181740000Y-127000000D02*
X181740000Y-88770000D01*
X181740000Y-132210000D02*
X181740000Y-129540000D01*
%LPC*%
D13*
X157300000Y-129900000D03*
X156900000Y-84800000D03*
D14*
X229120700Y-155859480D03*
X198120000Y-80860900D03*
X229120700Y-80860900D03*
X198120000Y-155860000D03*
D15*
X198120000Y-86360000D03*
D16*
X198120000Y-88900000D03*
X198120000Y-91440000D03*
X198120000Y-93980000D03*
X198120000Y-96520000D03*
X198120000Y-99060000D03*
X198120000Y-101600000D03*
X198120000Y-104140000D03*
X198120000Y-106680000D03*
X198120000Y-109220000D03*
X198120000Y-111760000D03*
X198120000Y-114300000D03*
X198120000Y-116840000D03*
X198120000Y-119380000D03*
X198120000Y-121920000D03*
X198120000Y-124460000D03*
D17*
X157480000Y-95250000D03*
D18*
X157480000Y-97790000D03*
X157480000Y-100330000D03*
D19*
X186690000Y-83820000D03*
X191690000Y-86320000D03*
D20*
X186690000Y-88820000D03*
D17*
X157480000Y-118110000D03*
D18*
X157480000Y-120650000D03*
X157480000Y-123190000D03*
D21*
X165100000Y-128270000D03*
X165100000Y-125730000D03*
X165100000Y-123190000D03*
X165100000Y-120650000D03*
X165100000Y-118110000D03*
X165100000Y-115570000D03*
X165100000Y-113030000D03*
X165100000Y-110490000D03*
X165100000Y-107950000D03*
X165100000Y-105410000D03*
X165100000Y-102870000D03*
X165100000Y-100330000D03*
X165100000Y-97790000D03*
X165100000Y-95250000D03*
X165100000Y-92710000D03*
X180340000Y-92710000D03*
X180340000Y-95250000D03*
X180340000Y-97790000D03*
X180340000Y-100330000D03*
X180340000Y-102870000D03*
X180340000Y-105410000D03*
X180340000Y-107950000D03*
X180340000Y-110490000D03*
X180340000Y-113030000D03*
X180340000Y-115570000D03*
X180340000Y-118110000D03*
X180340000Y-120650000D03*
X180340000Y-123190000D03*
X180340000Y-125730000D03*
D22*
X180340000Y-128270000D03*
%LPD*%
M02*
