%TF.GenerationSoftware,KiCad,Pcbnew,7.0.5*%
%TF.CreationDate,2024-09-21T21:15:24+03:00*%
%TF.ProjectId,MatterEverything_Board,4d617474-6572-4457-9665-72797468696e,rev?*%
%TF.SameCoordinates,Original*%
%TF.FileFunction,Drillmap*%
%TF.FilePolarity,Positive*%
%FSLAX45Y45*%
G04 Gerber Fmt 4.5, Leading zero omitted, Abs format (unit mm)*
G04 Created by KiCad (PCBNEW 7.0.5) date 2024-09-21 21:15:24*
%MOMM*%
%LPD*%
G01*
G04 APERTURE LIST*
%ADD10C,0.038100*%
%ADD11C,0.200000*%
%ADD12C,0.220000*%
G04 APERTURE END LIST*
D10*
X20574000Y-8128000D02*
X20574000Y-8382000D01*
X15367000Y-8128000D02*
X20574000Y-8128000D01*
X15367000Y-8382000D02*
X15367000Y-8128000D01*
X20574000Y-13335000D02*
X20574000Y-8382000D01*
X15367000Y-13335000D02*
X20574000Y-13335000D01*
X15367000Y-8382000D02*
X15367000Y-13335000D01*
D11*
D12*
X15580000Y-8370000D02*
X15800000Y-8590000D01*
X15800000Y-8370000D02*
X15580000Y-8590000D01*
X15620000Y-12880000D02*
X15840000Y-13100000D01*
X15840000Y-12880000D02*
X15620000Y-13100000D01*
D11*
X15625872Y-13648389D02*
X15625872Y-13448389D01*
X15625872Y-13448389D02*
X15673491Y-13448389D01*
X15673491Y-13448389D02*
X15702062Y-13457913D01*
X15702062Y-13457913D02*
X15721110Y-13476960D01*
X15721110Y-13476960D02*
X15730634Y-13496008D01*
X15730634Y-13496008D02*
X15740157Y-13534103D01*
X15740157Y-13534103D02*
X15740157Y-13562674D01*
X15740157Y-13562674D02*
X15730634Y-13600770D01*
X15730634Y-13600770D02*
X15721110Y-13619817D01*
X15721110Y-13619817D02*
X15702062Y-13638865D01*
X15702062Y-13638865D02*
X15673491Y-13648389D01*
X15673491Y-13648389D02*
X15625872Y-13648389D01*
X15825872Y-13648389D02*
X15825872Y-13515055D01*
X15825872Y-13553151D02*
X15835396Y-13534103D01*
X15835396Y-13534103D02*
X15844919Y-13524579D01*
X15844919Y-13524579D02*
X15863967Y-13515055D01*
X15863967Y-13515055D02*
X15883015Y-13515055D01*
X15949681Y-13648389D02*
X15949681Y-13515055D01*
X15949681Y-13448389D02*
X15940157Y-13457913D01*
X15940157Y-13457913D02*
X15949681Y-13467436D01*
X15949681Y-13467436D02*
X15959205Y-13457913D01*
X15959205Y-13457913D02*
X15949681Y-13448389D01*
X15949681Y-13448389D02*
X15949681Y-13467436D01*
X16073491Y-13648389D02*
X16054443Y-13638865D01*
X16054443Y-13638865D02*
X16044919Y-13619817D01*
X16044919Y-13619817D02*
X16044919Y-13448389D01*
X16178253Y-13648389D02*
X16159205Y-13638865D01*
X16159205Y-13638865D02*
X16149681Y-13619817D01*
X16149681Y-13619817D02*
X16149681Y-13448389D01*
X16406824Y-13648389D02*
X16406824Y-13448389D01*
X16406824Y-13448389D02*
X16473491Y-13591246D01*
X16473491Y-13591246D02*
X16540157Y-13448389D01*
X16540157Y-13448389D02*
X16540157Y-13648389D01*
X16721110Y-13648389D02*
X16721110Y-13543627D01*
X16721110Y-13543627D02*
X16711586Y-13524579D01*
X16711586Y-13524579D02*
X16692538Y-13515055D01*
X16692538Y-13515055D02*
X16654443Y-13515055D01*
X16654443Y-13515055D02*
X16635396Y-13524579D01*
X16721110Y-13638865D02*
X16702062Y-13648389D01*
X16702062Y-13648389D02*
X16654443Y-13648389D01*
X16654443Y-13648389D02*
X16635396Y-13638865D01*
X16635396Y-13638865D02*
X16625872Y-13619817D01*
X16625872Y-13619817D02*
X16625872Y-13600770D01*
X16625872Y-13600770D02*
X16635396Y-13581722D01*
X16635396Y-13581722D02*
X16654443Y-13572198D01*
X16654443Y-13572198D02*
X16702062Y-13572198D01*
X16702062Y-13572198D02*
X16721110Y-13562674D01*
X16816348Y-13515055D02*
X16816348Y-13715055D01*
X16816348Y-13524579D02*
X16835396Y-13515055D01*
X16835396Y-13515055D02*
X16873491Y-13515055D01*
X16873491Y-13515055D02*
X16892539Y-13524579D01*
X16892539Y-13524579D02*
X16902062Y-13534103D01*
X16902062Y-13534103D02*
X16911586Y-13553151D01*
X16911586Y-13553151D02*
X16911586Y-13610293D01*
X16911586Y-13610293D02*
X16902062Y-13629341D01*
X16902062Y-13629341D02*
X16892539Y-13638865D01*
X16892539Y-13638865D02*
X16873491Y-13648389D01*
X16873491Y-13648389D02*
X16835396Y-13648389D01*
X16835396Y-13648389D02*
X16816348Y-13638865D01*
X16997300Y-13629341D02*
X17006824Y-13638865D01*
X17006824Y-13638865D02*
X16997300Y-13648389D01*
X16997300Y-13648389D02*
X16987777Y-13638865D01*
X16987777Y-13638865D02*
X16997300Y-13629341D01*
X16997300Y-13629341D02*
X16997300Y-13648389D01*
X16997300Y-13524579D02*
X17006824Y-13534103D01*
X17006824Y-13534103D02*
X16997300Y-13543627D01*
X16997300Y-13543627D02*
X16987777Y-13534103D01*
X16987777Y-13534103D02*
X16997300Y-13524579D01*
X16997300Y-13524579D02*
X16997300Y-13543627D01*
X15165095Y-13876905D02*
X15365095Y-14076905D01*
X15365095Y-13876905D02*
X15165095Y-14076905D01*
X15616348Y-13887436D02*
X15625872Y-13877913D01*
X15625872Y-13877913D02*
X15644919Y-13868389D01*
X15644919Y-13868389D02*
X15692538Y-13868389D01*
X15692538Y-13868389D02*
X15711586Y-13877913D01*
X15711586Y-13877913D02*
X15721110Y-13887436D01*
X15721110Y-13887436D02*
X15730634Y-13906484D01*
X15730634Y-13906484D02*
X15730634Y-13925532D01*
X15730634Y-13925532D02*
X15721110Y-13954103D01*
X15721110Y-13954103D02*
X15606824Y-14068389D01*
X15606824Y-14068389D02*
X15730634Y-14068389D01*
X15816348Y-14049341D02*
X15825872Y-14058865D01*
X15825872Y-14058865D02*
X15816348Y-14068389D01*
X15816348Y-14068389D02*
X15806824Y-14058865D01*
X15806824Y-14058865D02*
X15816348Y-14049341D01*
X15816348Y-14049341D02*
X15816348Y-14068389D01*
X15902062Y-13887436D02*
X15911586Y-13877913D01*
X15911586Y-13877913D02*
X15930634Y-13868389D01*
X15930634Y-13868389D02*
X15978253Y-13868389D01*
X15978253Y-13868389D02*
X15997300Y-13877913D01*
X15997300Y-13877913D02*
X16006824Y-13887436D01*
X16006824Y-13887436D02*
X16016348Y-13906484D01*
X16016348Y-13906484D02*
X16016348Y-13925532D01*
X16016348Y-13925532D02*
X16006824Y-13954103D01*
X16006824Y-13954103D02*
X15892538Y-14068389D01*
X15892538Y-14068389D02*
X16016348Y-14068389D01*
X16140157Y-13868389D02*
X16159205Y-13868389D01*
X16159205Y-13868389D02*
X16178253Y-13877913D01*
X16178253Y-13877913D02*
X16187777Y-13887436D01*
X16187777Y-13887436D02*
X16197300Y-13906484D01*
X16197300Y-13906484D02*
X16206824Y-13944579D01*
X16206824Y-13944579D02*
X16206824Y-13992198D01*
X16206824Y-13992198D02*
X16197300Y-14030293D01*
X16197300Y-14030293D02*
X16187777Y-14049341D01*
X16187777Y-14049341D02*
X16178253Y-14058865D01*
X16178253Y-14058865D02*
X16159205Y-14068389D01*
X16159205Y-14068389D02*
X16140157Y-14068389D01*
X16140157Y-14068389D02*
X16121110Y-14058865D01*
X16121110Y-14058865D02*
X16111586Y-14049341D01*
X16111586Y-14049341D02*
X16102062Y-14030293D01*
X16102062Y-14030293D02*
X16092538Y-13992198D01*
X16092538Y-13992198D02*
X16092538Y-13944579D01*
X16092538Y-13944579D02*
X16102062Y-13906484D01*
X16102062Y-13906484D02*
X16111586Y-13887436D01*
X16111586Y-13887436D02*
X16121110Y-13877913D01*
X16121110Y-13877913D02*
X16140157Y-13868389D01*
X16330634Y-13868389D02*
X16349681Y-13868389D01*
X16349681Y-13868389D02*
X16368729Y-13877913D01*
X16368729Y-13877913D02*
X16378253Y-13887436D01*
X16378253Y-13887436D02*
X16387777Y-13906484D01*
X16387777Y-13906484D02*
X16397300Y-13944579D01*
X16397300Y-13944579D02*
X16397300Y-13992198D01*
X16397300Y-13992198D02*
X16387777Y-14030293D01*
X16387777Y-14030293D02*
X16378253Y-14049341D01*
X16378253Y-14049341D02*
X16368729Y-14058865D01*
X16368729Y-14058865D02*
X16349681Y-14068389D01*
X16349681Y-14068389D02*
X16330634Y-14068389D01*
X16330634Y-14068389D02*
X16311586Y-14058865D01*
X16311586Y-14058865D02*
X16302062Y-14049341D01*
X16302062Y-14049341D02*
X16292538Y-14030293D01*
X16292538Y-14030293D02*
X16283015Y-13992198D01*
X16283015Y-13992198D02*
X16283015Y-13944579D01*
X16283015Y-13944579D02*
X16292538Y-13906484D01*
X16292538Y-13906484D02*
X16302062Y-13887436D01*
X16302062Y-13887436D02*
X16311586Y-13877913D01*
X16311586Y-13877913D02*
X16330634Y-13868389D01*
X16483015Y-14068389D02*
X16483015Y-13935055D01*
X16483015Y-13954103D02*
X16492538Y-13944579D01*
X16492538Y-13944579D02*
X16511586Y-13935055D01*
X16511586Y-13935055D02*
X16540158Y-13935055D01*
X16540158Y-13935055D02*
X16559205Y-13944579D01*
X16559205Y-13944579D02*
X16568729Y-13963627D01*
X16568729Y-13963627D02*
X16568729Y-14068389D01*
X16568729Y-13963627D02*
X16578253Y-13944579D01*
X16578253Y-13944579D02*
X16597300Y-13935055D01*
X16597300Y-13935055D02*
X16625872Y-13935055D01*
X16625872Y-13935055D02*
X16644919Y-13944579D01*
X16644919Y-13944579D02*
X16654443Y-13963627D01*
X16654443Y-13963627D02*
X16654443Y-14068389D01*
X16749681Y-14068389D02*
X16749681Y-13935055D01*
X16749681Y-13954103D02*
X16759205Y-13944579D01*
X16759205Y-13944579D02*
X16778253Y-13935055D01*
X16778253Y-13935055D02*
X16806824Y-13935055D01*
X16806824Y-13935055D02*
X16825872Y-13944579D01*
X16825872Y-13944579D02*
X16835396Y-13963627D01*
X16835396Y-13963627D02*
X16835396Y-14068389D01*
X16835396Y-13963627D02*
X16844920Y-13944579D01*
X16844920Y-13944579D02*
X16863967Y-13935055D01*
X16863967Y-13935055D02*
X16892539Y-13935055D01*
X16892539Y-13935055D02*
X16911586Y-13944579D01*
X16911586Y-13944579D02*
X16921110Y-13963627D01*
X16921110Y-13963627D02*
X16921110Y-14068389D01*
X17311586Y-13858865D02*
X17140158Y-14116008D01*
X17568729Y-13868389D02*
X17587777Y-13868389D01*
X17587777Y-13868389D02*
X17606824Y-13877913D01*
X17606824Y-13877913D02*
X17616348Y-13887436D01*
X17616348Y-13887436D02*
X17625872Y-13906484D01*
X17625872Y-13906484D02*
X17635396Y-13944579D01*
X17635396Y-13944579D02*
X17635396Y-13992198D01*
X17635396Y-13992198D02*
X17625872Y-14030293D01*
X17625872Y-14030293D02*
X17616348Y-14049341D01*
X17616348Y-14049341D02*
X17606824Y-14058865D01*
X17606824Y-14058865D02*
X17587777Y-14068389D01*
X17587777Y-14068389D02*
X17568729Y-14068389D01*
X17568729Y-14068389D02*
X17549682Y-14058865D01*
X17549682Y-14058865D02*
X17540158Y-14049341D01*
X17540158Y-14049341D02*
X17530634Y-14030293D01*
X17530634Y-14030293D02*
X17521110Y-13992198D01*
X17521110Y-13992198D02*
X17521110Y-13944579D01*
X17521110Y-13944579D02*
X17530634Y-13906484D01*
X17530634Y-13906484D02*
X17540158Y-13887436D01*
X17540158Y-13887436D02*
X17549682Y-13877913D01*
X17549682Y-13877913D02*
X17568729Y-13868389D01*
X17721110Y-14049341D02*
X17730634Y-14058865D01*
X17730634Y-14058865D02*
X17721110Y-14068389D01*
X17721110Y-14068389D02*
X17711586Y-14058865D01*
X17711586Y-14058865D02*
X17721110Y-14049341D01*
X17721110Y-14049341D02*
X17721110Y-14068389D01*
X17854443Y-13868389D02*
X17873491Y-13868389D01*
X17873491Y-13868389D02*
X17892539Y-13877913D01*
X17892539Y-13877913D02*
X17902063Y-13887436D01*
X17902063Y-13887436D02*
X17911586Y-13906484D01*
X17911586Y-13906484D02*
X17921110Y-13944579D01*
X17921110Y-13944579D02*
X17921110Y-13992198D01*
X17921110Y-13992198D02*
X17911586Y-14030293D01*
X17911586Y-14030293D02*
X17902063Y-14049341D01*
X17902063Y-14049341D02*
X17892539Y-14058865D01*
X17892539Y-14058865D02*
X17873491Y-14068389D01*
X17873491Y-14068389D02*
X17854443Y-14068389D01*
X17854443Y-14068389D02*
X17835396Y-14058865D01*
X17835396Y-14058865D02*
X17825872Y-14049341D01*
X17825872Y-14049341D02*
X17816348Y-14030293D01*
X17816348Y-14030293D02*
X17806824Y-13992198D01*
X17806824Y-13992198D02*
X17806824Y-13944579D01*
X17806824Y-13944579D02*
X17816348Y-13906484D01*
X17816348Y-13906484D02*
X17825872Y-13887436D01*
X17825872Y-13887436D02*
X17835396Y-13877913D01*
X17835396Y-13877913D02*
X17854443Y-13868389D01*
X18035396Y-13954103D02*
X18016348Y-13944579D01*
X18016348Y-13944579D02*
X18006824Y-13935055D01*
X18006824Y-13935055D02*
X17997301Y-13916008D01*
X17997301Y-13916008D02*
X17997301Y-13906484D01*
X17997301Y-13906484D02*
X18006824Y-13887436D01*
X18006824Y-13887436D02*
X18016348Y-13877913D01*
X18016348Y-13877913D02*
X18035396Y-13868389D01*
X18035396Y-13868389D02*
X18073491Y-13868389D01*
X18073491Y-13868389D02*
X18092539Y-13877913D01*
X18092539Y-13877913D02*
X18102063Y-13887436D01*
X18102063Y-13887436D02*
X18111586Y-13906484D01*
X18111586Y-13906484D02*
X18111586Y-13916008D01*
X18111586Y-13916008D02*
X18102063Y-13935055D01*
X18102063Y-13935055D02*
X18092539Y-13944579D01*
X18092539Y-13944579D02*
X18073491Y-13954103D01*
X18073491Y-13954103D02*
X18035396Y-13954103D01*
X18035396Y-13954103D02*
X18016348Y-13963627D01*
X18016348Y-13963627D02*
X18006824Y-13973151D01*
X18006824Y-13973151D02*
X17997301Y-13992198D01*
X17997301Y-13992198D02*
X17997301Y-14030293D01*
X17997301Y-14030293D02*
X18006824Y-14049341D01*
X18006824Y-14049341D02*
X18016348Y-14058865D01*
X18016348Y-14058865D02*
X18035396Y-14068389D01*
X18035396Y-14068389D02*
X18073491Y-14068389D01*
X18073491Y-14068389D02*
X18092539Y-14058865D01*
X18092539Y-14058865D02*
X18102063Y-14049341D01*
X18102063Y-14049341D02*
X18111586Y-14030293D01*
X18111586Y-14030293D02*
X18111586Y-13992198D01*
X18111586Y-13992198D02*
X18102063Y-13973151D01*
X18102063Y-13973151D02*
X18092539Y-13963627D01*
X18092539Y-13963627D02*
X18073491Y-13954103D01*
X18283015Y-13868389D02*
X18244920Y-13868389D01*
X18244920Y-13868389D02*
X18225872Y-13877913D01*
X18225872Y-13877913D02*
X18216348Y-13887436D01*
X18216348Y-13887436D02*
X18197301Y-13916008D01*
X18197301Y-13916008D02*
X18187777Y-13954103D01*
X18187777Y-13954103D02*
X18187777Y-14030293D01*
X18187777Y-14030293D02*
X18197301Y-14049341D01*
X18197301Y-14049341D02*
X18206824Y-14058865D01*
X18206824Y-14058865D02*
X18225872Y-14068389D01*
X18225872Y-14068389D02*
X18263967Y-14068389D01*
X18263967Y-14068389D02*
X18283015Y-14058865D01*
X18283015Y-14058865D02*
X18292539Y-14049341D01*
X18292539Y-14049341D02*
X18302063Y-14030293D01*
X18302063Y-14030293D02*
X18302063Y-13982674D01*
X18302063Y-13982674D02*
X18292539Y-13963627D01*
X18292539Y-13963627D02*
X18283015Y-13954103D01*
X18283015Y-13954103D02*
X18263967Y-13944579D01*
X18263967Y-13944579D02*
X18225872Y-13944579D01*
X18225872Y-13944579D02*
X18206824Y-13954103D01*
X18206824Y-13954103D02*
X18197301Y-13963627D01*
X18197301Y-13963627D02*
X18187777Y-13982674D01*
X18473491Y-13868389D02*
X18435396Y-13868389D01*
X18435396Y-13868389D02*
X18416348Y-13877913D01*
X18416348Y-13877913D02*
X18406824Y-13887436D01*
X18406824Y-13887436D02*
X18387777Y-13916008D01*
X18387777Y-13916008D02*
X18378253Y-13954103D01*
X18378253Y-13954103D02*
X18378253Y-14030293D01*
X18378253Y-14030293D02*
X18387777Y-14049341D01*
X18387777Y-14049341D02*
X18397301Y-14058865D01*
X18397301Y-14058865D02*
X18416348Y-14068389D01*
X18416348Y-14068389D02*
X18454444Y-14068389D01*
X18454444Y-14068389D02*
X18473491Y-14058865D01*
X18473491Y-14058865D02*
X18483015Y-14049341D01*
X18483015Y-14049341D02*
X18492539Y-14030293D01*
X18492539Y-14030293D02*
X18492539Y-13982674D01*
X18492539Y-13982674D02*
X18483015Y-13963627D01*
X18483015Y-13963627D02*
X18473491Y-13954103D01*
X18473491Y-13954103D02*
X18454444Y-13944579D01*
X18454444Y-13944579D02*
X18416348Y-13944579D01*
X18416348Y-13944579D02*
X18397301Y-13954103D01*
X18397301Y-13954103D02*
X18387777Y-13963627D01*
X18387777Y-13963627D02*
X18378253Y-13982674D01*
X18568729Y-13868389D02*
X18568729Y-13906484D01*
X18644920Y-13868389D02*
X18644920Y-13906484D01*
X18940158Y-14144579D02*
X18930634Y-14135055D01*
X18930634Y-14135055D02*
X18911586Y-14106484D01*
X18911586Y-14106484D02*
X18902063Y-14087436D01*
X18902063Y-14087436D02*
X18892539Y-14058865D01*
X18892539Y-14058865D02*
X18883015Y-14011246D01*
X18883015Y-14011246D02*
X18883015Y-13973151D01*
X18883015Y-13973151D02*
X18892539Y-13925532D01*
X18892539Y-13925532D02*
X18902063Y-13896960D01*
X18902063Y-13896960D02*
X18911586Y-13877913D01*
X18911586Y-13877913D02*
X18930634Y-13849341D01*
X18930634Y-13849341D02*
X18940158Y-13839817D01*
X19006825Y-13887436D02*
X19016348Y-13877913D01*
X19016348Y-13877913D02*
X19035396Y-13868389D01*
X19035396Y-13868389D02*
X19083015Y-13868389D01*
X19083015Y-13868389D02*
X19102063Y-13877913D01*
X19102063Y-13877913D02*
X19111586Y-13887436D01*
X19111586Y-13887436D02*
X19121110Y-13906484D01*
X19121110Y-13906484D02*
X19121110Y-13925532D01*
X19121110Y-13925532D02*
X19111586Y-13954103D01*
X19111586Y-13954103D02*
X18997301Y-14068389D01*
X18997301Y-14068389D02*
X19121110Y-14068389D01*
X19359206Y-14068389D02*
X19359206Y-13868389D01*
X19444920Y-14068389D02*
X19444920Y-13963627D01*
X19444920Y-13963627D02*
X19435396Y-13944579D01*
X19435396Y-13944579D02*
X19416348Y-13935055D01*
X19416348Y-13935055D02*
X19387777Y-13935055D01*
X19387777Y-13935055D02*
X19368729Y-13944579D01*
X19368729Y-13944579D02*
X19359206Y-13954103D01*
X19568729Y-14068389D02*
X19549682Y-14058865D01*
X19549682Y-14058865D02*
X19540158Y-14049341D01*
X19540158Y-14049341D02*
X19530634Y-14030293D01*
X19530634Y-14030293D02*
X19530634Y-13973151D01*
X19530634Y-13973151D02*
X19540158Y-13954103D01*
X19540158Y-13954103D02*
X19549682Y-13944579D01*
X19549682Y-13944579D02*
X19568729Y-13935055D01*
X19568729Y-13935055D02*
X19597301Y-13935055D01*
X19597301Y-13935055D02*
X19616348Y-13944579D01*
X19616348Y-13944579D02*
X19625872Y-13954103D01*
X19625872Y-13954103D02*
X19635396Y-13973151D01*
X19635396Y-13973151D02*
X19635396Y-14030293D01*
X19635396Y-14030293D02*
X19625872Y-14049341D01*
X19625872Y-14049341D02*
X19616348Y-14058865D01*
X19616348Y-14058865D02*
X19597301Y-14068389D01*
X19597301Y-14068389D02*
X19568729Y-14068389D01*
X19749682Y-14068389D02*
X19730634Y-14058865D01*
X19730634Y-14058865D02*
X19721110Y-14039817D01*
X19721110Y-14039817D02*
X19721110Y-13868389D01*
X19902063Y-14058865D02*
X19883015Y-14068389D01*
X19883015Y-14068389D02*
X19844920Y-14068389D01*
X19844920Y-14068389D02*
X19825872Y-14058865D01*
X19825872Y-14058865D02*
X19816348Y-14039817D01*
X19816348Y-14039817D02*
X19816348Y-13963627D01*
X19816348Y-13963627D02*
X19825872Y-13944579D01*
X19825872Y-13944579D02*
X19844920Y-13935055D01*
X19844920Y-13935055D02*
X19883015Y-13935055D01*
X19883015Y-13935055D02*
X19902063Y-13944579D01*
X19902063Y-13944579D02*
X19911587Y-13963627D01*
X19911587Y-13963627D02*
X19911587Y-13982674D01*
X19911587Y-13982674D02*
X19816348Y-14001722D01*
X19987777Y-14058865D02*
X20006825Y-14068389D01*
X20006825Y-14068389D02*
X20044920Y-14068389D01*
X20044920Y-14068389D02*
X20063968Y-14058865D01*
X20063968Y-14058865D02*
X20073491Y-14039817D01*
X20073491Y-14039817D02*
X20073491Y-14030293D01*
X20073491Y-14030293D02*
X20063968Y-14011246D01*
X20063968Y-14011246D02*
X20044920Y-14001722D01*
X20044920Y-14001722D02*
X20016348Y-14001722D01*
X20016348Y-14001722D02*
X19997301Y-13992198D01*
X19997301Y-13992198D02*
X19987777Y-13973151D01*
X19987777Y-13973151D02*
X19987777Y-13963627D01*
X19987777Y-13963627D02*
X19997301Y-13944579D01*
X19997301Y-13944579D02*
X20016348Y-13935055D01*
X20016348Y-13935055D02*
X20044920Y-13935055D01*
X20044920Y-13935055D02*
X20063968Y-13944579D01*
X20140158Y-14144579D02*
X20149682Y-14135055D01*
X20149682Y-14135055D02*
X20168729Y-14106484D01*
X20168729Y-14106484D02*
X20178253Y-14087436D01*
X20178253Y-14087436D02*
X20187777Y-14058865D01*
X20187777Y-14058865D02*
X20197301Y-14011246D01*
X20197301Y-14011246D02*
X20197301Y-13973151D01*
X20197301Y-13973151D02*
X20187777Y-13925532D01*
X20187777Y-13925532D02*
X20178253Y-13896960D01*
X20178253Y-13896960D02*
X20168729Y-13877913D01*
X20168729Y-13877913D02*
X20149682Y-13849341D01*
X20149682Y-13849341D02*
X20140158Y-13839817D01*
X20502063Y-14144579D02*
X20492539Y-14135055D01*
X20492539Y-14135055D02*
X20473491Y-14106484D01*
X20473491Y-14106484D02*
X20463968Y-14087436D01*
X20463968Y-14087436D02*
X20454444Y-14058865D01*
X20454444Y-14058865D02*
X20444920Y-14011246D01*
X20444920Y-14011246D02*
X20444920Y-13973151D01*
X20444920Y-13973151D02*
X20454444Y-13925532D01*
X20454444Y-13925532D02*
X20463968Y-13896960D01*
X20463968Y-13896960D02*
X20473491Y-13877913D01*
X20473491Y-13877913D02*
X20492539Y-13849341D01*
X20492539Y-13849341D02*
X20502063Y-13839817D01*
X20578253Y-13935055D02*
X20578253Y-14068389D01*
X20578253Y-13954103D02*
X20587777Y-13944579D01*
X20587777Y-13944579D02*
X20606825Y-13935055D01*
X20606825Y-13935055D02*
X20635396Y-13935055D01*
X20635396Y-13935055D02*
X20654444Y-13944579D01*
X20654444Y-13944579D02*
X20663968Y-13963627D01*
X20663968Y-13963627D02*
X20663968Y-14068389D01*
X20787777Y-14068389D02*
X20768729Y-14058865D01*
X20768729Y-14058865D02*
X20759206Y-14049341D01*
X20759206Y-14049341D02*
X20749682Y-14030293D01*
X20749682Y-14030293D02*
X20749682Y-13973151D01*
X20749682Y-13973151D02*
X20759206Y-13954103D01*
X20759206Y-13954103D02*
X20768729Y-13944579D01*
X20768729Y-13944579D02*
X20787777Y-13935055D01*
X20787777Y-13935055D02*
X20816349Y-13935055D01*
X20816349Y-13935055D02*
X20835396Y-13944579D01*
X20835396Y-13944579D02*
X20844920Y-13954103D01*
X20844920Y-13954103D02*
X20854444Y-13973151D01*
X20854444Y-13973151D02*
X20854444Y-14030293D01*
X20854444Y-14030293D02*
X20844920Y-14049341D01*
X20844920Y-14049341D02*
X20835396Y-14058865D01*
X20835396Y-14058865D02*
X20816349Y-14068389D01*
X20816349Y-14068389D02*
X20787777Y-14068389D01*
X20911587Y-13935055D02*
X20987777Y-13935055D01*
X20940158Y-13868389D02*
X20940158Y-14039817D01*
X20940158Y-14039817D02*
X20949682Y-14058865D01*
X20949682Y-14058865D02*
X20968729Y-14068389D01*
X20968729Y-14068389D02*
X20987777Y-14068389D01*
X21206825Y-13935055D02*
X21206825Y-14135055D01*
X21206825Y-13944579D02*
X21225872Y-13935055D01*
X21225872Y-13935055D02*
X21263968Y-13935055D01*
X21263968Y-13935055D02*
X21283015Y-13944579D01*
X21283015Y-13944579D02*
X21292539Y-13954103D01*
X21292539Y-13954103D02*
X21302063Y-13973151D01*
X21302063Y-13973151D02*
X21302063Y-14030293D01*
X21302063Y-14030293D02*
X21292539Y-14049341D01*
X21292539Y-14049341D02*
X21283015Y-14058865D01*
X21283015Y-14058865D02*
X21263968Y-14068389D01*
X21263968Y-14068389D02*
X21225872Y-14068389D01*
X21225872Y-14068389D02*
X21206825Y-14058865D01*
X21416349Y-14068389D02*
X21397301Y-14058865D01*
X21397301Y-14058865D02*
X21387777Y-14039817D01*
X21387777Y-14039817D02*
X21387777Y-13868389D01*
X21578253Y-14068389D02*
X21578253Y-13963627D01*
X21578253Y-13963627D02*
X21568730Y-13944579D01*
X21568730Y-13944579D02*
X21549682Y-13935055D01*
X21549682Y-13935055D02*
X21511587Y-13935055D01*
X21511587Y-13935055D02*
X21492539Y-13944579D01*
X21578253Y-14058865D02*
X21559206Y-14068389D01*
X21559206Y-14068389D02*
X21511587Y-14068389D01*
X21511587Y-14068389D02*
X21492539Y-14058865D01*
X21492539Y-14058865D02*
X21483015Y-14039817D01*
X21483015Y-14039817D02*
X21483015Y-14020770D01*
X21483015Y-14020770D02*
X21492539Y-14001722D01*
X21492539Y-14001722D02*
X21511587Y-13992198D01*
X21511587Y-13992198D02*
X21559206Y-13992198D01*
X21559206Y-13992198D02*
X21578253Y-13982674D01*
X21644920Y-13935055D02*
X21721110Y-13935055D01*
X21673491Y-13868389D02*
X21673491Y-14039817D01*
X21673491Y-14039817D02*
X21683015Y-14058865D01*
X21683015Y-14058865D02*
X21702063Y-14068389D01*
X21702063Y-14068389D02*
X21721110Y-14068389D01*
X21863968Y-14058865D02*
X21844920Y-14068389D01*
X21844920Y-14068389D02*
X21806825Y-14068389D01*
X21806825Y-14068389D02*
X21787777Y-14058865D01*
X21787777Y-14058865D02*
X21778253Y-14039817D01*
X21778253Y-14039817D02*
X21778253Y-13963627D01*
X21778253Y-13963627D02*
X21787777Y-13944579D01*
X21787777Y-13944579D02*
X21806825Y-13935055D01*
X21806825Y-13935055D02*
X21844920Y-13935055D01*
X21844920Y-13935055D02*
X21863968Y-13944579D01*
X21863968Y-13944579D02*
X21873491Y-13963627D01*
X21873491Y-13963627D02*
X21873491Y-13982674D01*
X21873491Y-13982674D02*
X21778253Y-14001722D01*
X22044920Y-14068389D02*
X22044920Y-13868389D01*
X22044920Y-14058865D02*
X22025872Y-14068389D01*
X22025872Y-14068389D02*
X21987777Y-14068389D01*
X21987777Y-14068389D02*
X21968730Y-14058865D01*
X21968730Y-14058865D02*
X21959206Y-14049341D01*
X21959206Y-14049341D02*
X21949682Y-14030293D01*
X21949682Y-14030293D02*
X21949682Y-13973151D01*
X21949682Y-13973151D02*
X21959206Y-13954103D01*
X21959206Y-13954103D02*
X21968730Y-13944579D01*
X21968730Y-13944579D02*
X21987777Y-13935055D01*
X21987777Y-13935055D02*
X22025872Y-13935055D01*
X22025872Y-13935055D02*
X22044920Y-13944579D01*
X22121111Y-14144579D02*
X22130634Y-14135055D01*
X22130634Y-14135055D02*
X22149682Y-14106484D01*
X22149682Y-14106484D02*
X22159206Y-14087436D01*
X22159206Y-14087436D02*
X22168730Y-14058865D01*
X22168730Y-14058865D02*
X22178253Y-14011246D01*
X22178253Y-14011246D02*
X22178253Y-13973151D01*
X22178253Y-13973151D02*
X22168730Y-13925532D01*
X22168730Y-13925532D02*
X22159206Y-13896960D01*
X22159206Y-13896960D02*
X22149682Y-13877913D01*
X22149682Y-13877913D02*
X22130634Y-13849341D01*
X22130634Y-13849341D02*
X22121111Y-13839817D01*
M02*
