M48
; DRILL file {KiCad 7.0.5} date Sat Sep 21 21:15:21 2024
; FORMAT={-:-/ absolute / inch / decimal}
; #@! TF.CreationDate,2024-09-21T21:15:21+03:00
; #@! TF.GenerationSoftware,Kicad,Pcbnew,7.0.5
; #@! TF.FileFunction,Plated,1,4,PTH
FMAT,2
INCH
; #@! TA.AperFunction,Plated,PTH,ComponentDrill
T1C0.0394
; #@! TA.AperFunction,Plated,PTH,ComponentDrill
T2C0.0472
; #@! TA.AperFunction,Plated,PTH,ComponentDrill
T3C0.0984
%
G90
G05
T1
X6.2Y-3.75
X6.2Y-3.85
X6.2Y-3.95
X6.2Y-4.65
X6.2Y-4.75
X6.2Y-4.85
X6.5Y-3.65
X6.5Y-3.75
X6.5Y-3.85
X6.5Y-3.95
X6.5Y-4.05
X6.5Y-4.15
X6.5Y-4.25
X6.5Y-4.35
X6.5Y-4.45
X6.5Y-4.55
X6.5Y-4.65
X6.5Y-4.75
X6.5Y-4.85
X6.5Y-4.95
X6.5Y-5.05
X7.1Y-3.65
X7.1Y-3.75
X7.1Y-3.85
X7.1Y-3.95
X7.1Y-4.05
X7.1Y-4.15
X7.1Y-4.25
X7.1Y-4.35
X7.1Y-4.45
X7.1Y-4.55
X7.1Y-4.65
X7.1Y-4.75
X7.1Y-4.85
X7.1Y-4.95
X7.1Y-5.05
X7.35Y-3.3
X7.35Y-3.4969
X7.5469Y-3.3984
T2
X7.8Y-3.4
X7.8Y-3.5
X7.8Y-3.6
X7.8Y-3.7
X7.8Y-3.8
X7.8Y-3.9
X7.8Y-4.0
X7.8Y-4.1
X7.8Y-4.2
X7.8Y-4.3
X7.8Y-4.4
X7.8Y-4.5
X7.8Y-4.6
X7.8Y-4.7
X7.8Y-4.8
X7.8Y-4.9
T3
X7.8Y-3.1835
X7.8Y-6.1362
X9.0205Y-3.1835
X9.0205Y-6.1362
T0
M30
