G04 #@! TF.GenerationSoftware,KiCad,Pcbnew,7.0.5*
G04 #@! TF.CreationDate,2024-09-21T21:16:43+03:00*
G04 #@! TF.ProjectId,MatterEverything_Board,4d617474-6572-4457-9665-72797468696e,rev?*
G04 #@! TF.SameCoordinates,Original*
G04 #@! TF.FileFunction,Copper,L2,Inr*
G04 #@! TF.FilePolarity,Positive*
%FSLAX46Y46*%
G04 Gerber Fmt 4.6, Leading zero omitted, Abs format (unit mm)*
G04 Created by KiCad (PCBNEW 7.0.5) date 2024-09-21 21:16:43*
%MOMM*%
%LPD*%
G01*
G04 APERTURE LIST*
G04 #@! TA.AperFunction,ComponentPad*
%ADD10C,3.000000*%
G04 #@! TD*
G04 #@! TA.AperFunction,ComponentPad*
%ADD11R,2.600000X1.800000*%
G04 #@! TD*
G04 #@! TA.AperFunction,ComponentPad*
%ADD12O,2.600000X1.800000*%
G04 #@! TD*
G04 #@! TA.AperFunction,ComponentPad*
%ADD13R,1.700000X1.700000*%
G04 #@! TD*
G04 #@! TA.AperFunction,ComponentPad*
%ADD14O,1.700000X1.700000*%
G04 #@! TD*
G04 #@! TA.AperFunction,ComponentPad*
%ADD15C,1.560000*%
G04 #@! TD*
G04 #@! TA.AperFunction,ComponentPad*
%ADD16R,1.560000X1.560000*%
G04 #@! TD*
G04 #@! TA.AperFunction,ComponentPad*
%ADD17O,1.600000X1.600000*%
G04 #@! TD*
G04 #@! TA.AperFunction,ComponentPad*
%ADD18R,1.600000X1.600000*%
G04 #@! TD*
G04 APERTURE END LIST*
D10*
X229120700Y-155859480D03*
X198120000Y-80860900D03*
X229120700Y-80860900D03*
X198120000Y-155860000D03*
D11*
X198120000Y-86360000D03*
D12*
X198120000Y-88900000D03*
X198120000Y-91440000D03*
X198120000Y-93980000D03*
X198120000Y-96520000D03*
X198120000Y-99060000D03*
X198120000Y-101600000D03*
X198120000Y-104140000D03*
X198120000Y-106680000D03*
X198120000Y-109220000D03*
X198120000Y-111760000D03*
X198120000Y-114300000D03*
X198120000Y-116840000D03*
X198120000Y-119380000D03*
X198120000Y-121920000D03*
X198120000Y-124460000D03*
D13*
X157480000Y-95250000D03*
D14*
X157480000Y-97790000D03*
X157480000Y-100330000D03*
D15*
X186690000Y-83820000D03*
X191690000Y-86320000D03*
D16*
X186690000Y-88820000D03*
D13*
X157480000Y-118110000D03*
D14*
X157480000Y-120650000D03*
X157480000Y-123190000D03*
D17*
X165100000Y-128270000D03*
X165100000Y-125730000D03*
X165100000Y-123190000D03*
X165100000Y-120650000D03*
X165100000Y-118110000D03*
X165100000Y-115570000D03*
X165100000Y-113030000D03*
X165100000Y-110490000D03*
X165100000Y-107950000D03*
X165100000Y-105410000D03*
X165100000Y-102870000D03*
X165100000Y-100330000D03*
X165100000Y-97790000D03*
X165100000Y-95250000D03*
X165100000Y-92710000D03*
X180340000Y-92710000D03*
X180340000Y-95250000D03*
X180340000Y-97790000D03*
X180340000Y-100330000D03*
X180340000Y-102870000D03*
X180340000Y-105410000D03*
X180340000Y-107950000D03*
X180340000Y-110490000D03*
X180340000Y-113030000D03*
X180340000Y-115570000D03*
X180340000Y-118110000D03*
X180340000Y-120650000D03*
X180340000Y-123190000D03*
X180340000Y-125730000D03*
D18*
X180340000Y-128270000D03*
M02*
