G04 #@! TF.GenerationSoftware,KiCad,Pcbnew,7.0.5*
G04 #@! TF.CreationDate,2024-09-21T21:16:43+03:00*
G04 #@! TF.ProjectId,MatterEverything_Board,4d617474-6572-4457-9665-72797468696e,rev?*
G04 #@! TF.SameCoordinates,Original*
G04 #@! TF.FileFunction,Copper,L1,Top*
G04 #@! TF.FilePolarity,Positive*
%FSLAX46Y46*%
G04 Gerber Fmt 4.6, Leading zero omitted, Abs format (unit mm)*
G04 Created by KiCad (PCBNEW 7.0.5) date 2024-09-21 21:16:43*
%MOMM*%
%LPD*%
G01*
G04 APERTURE LIST*
G04 #@! TA.AperFunction,ComponentPad*
%ADD10C,3.000000*%
G04 #@! TD*
G04 #@! TA.AperFunction,ComponentPad*
%ADD11R,2.600000X1.800000*%
G04 #@! TD*
G04 #@! TA.AperFunction,ComponentPad*
%ADD12O,2.600000X1.800000*%
G04 #@! TD*
G04 #@! TA.AperFunction,ComponentPad*
%ADD13R,1.700000X1.700000*%
G04 #@! TD*
G04 #@! TA.AperFunction,ComponentPad*
%ADD14O,1.700000X1.700000*%
G04 #@! TD*
G04 #@! TA.AperFunction,ComponentPad*
%ADD15C,1.560000*%
G04 #@! TD*
G04 #@! TA.AperFunction,ComponentPad*
%ADD16R,1.560000X1.560000*%
G04 #@! TD*
G04 #@! TA.AperFunction,ComponentPad*
%ADD17O,1.600000X1.600000*%
G04 #@! TD*
G04 #@! TA.AperFunction,ComponentPad*
%ADD18R,1.600000X1.600000*%
G04 #@! TD*
G04 #@! TA.AperFunction,Conductor*
%ADD19C,0.600000*%
G04 #@! TD*
G04 APERTURE END LIST*
D10*
X229120700Y-155859480D03*
X198120000Y-80860900D03*
X229120700Y-80860900D03*
X198120000Y-155860000D03*
D11*
X198120000Y-86360000D03*
D12*
X198120000Y-88900000D03*
X198120000Y-91440000D03*
X198120000Y-93980000D03*
X198120000Y-96520000D03*
X198120000Y-99060000D03*
X198120000Y-101600000D03*
X198120000Y-104140000D03*
X198120000Y-106680000D03*
X198120000Y-109220000D03*
X198120000Y-111760000D03*
X198120000Y-114300000D03*
X198120000Y-116840000D03*
X198120000Y-119380000D03*
X198120000Y-121920000D03*
X198120000Y-124460000D03*
D13*
X157480000Y-95250000D03*
D14*
X157480000Y-97790000D03*
X157480000Y-100330000D03*
D15*
X186690000Y-83820000D03*
X191690000Y-86320000D03*
D16*
X186690000Y-88820000D03*
D13*
X157480000Y-118110000D03*
D14*
X157480000Y-120650000D03*
X157480000Y-123190000D03*
D17*
X165100000Y-128270000D03*
X165100000Y-125730000D03*
X165100000Y-123190000D03*
X165100000Y-120650000D03*
X165100000Y-118110000D03*
X165100000Y-115570000D03*
X165100000Y-113030000D03*
X165100000Y-110490000D03*
X165100000Y-107950000D03*
X165100000Y-105410000D03*
X165100000Y-102870000D03*
X165100000Y-100330000D03*
X165100000Y-97790000D03*
X165100000Y-95250000D03*
X165100000Y-92710000D03*
X180340000Y-92710000D03*
X180340000Y-95250000D03*
X180340000Y-97790000D03*
X180340000Y-100330000D03*
X180340000Y-102870000D03*
X180340000Y-105410000D03*
X180340000Y-107950000D03*
X180340000Y-110490000D03*
X180340000Y-113030000D03*
X180340000Y-115570000D03*
X180340000Y-118110000D03*
X180340000Y-120650000D03*
X180340000Y-123190000D03*
X180340000Y-125730000D03*
D18*
X180340000Y-128270000D03*
D19*
X162290000Y-118110000D02*
X165100000Y-118110000D01*
X159750000Y-120650000D02*
X162290000Y-118110000D01*
X157480000Y-120650000D02*
X159750000Y-120650000D01*
X160290000Y-97790000D02*
X157480000Y-97790000D01*
X162830000Y-100330000D02*
X160290000Y-97790000D01*
X165100000Y-100330000D02*
X162830000Y-100330000D01*
X194740000Y-91440000D02*
X198120000Y-91440000D01*
X191690000Y-86320000D02*
X191690000Y-88390000D01*
X191690000Y-88390000D02*
X194740000Y-91440000D01*
X192510000Y-92710000D02*
X180340000Y-92710000D01*
X193780000Y-93980000D02*
X192510000Y-92710000D01*
X198120000Y-93980000D02*
X193780000Y-93980000D01*
X189950000Y-95250000D02*
X180340000Y-95250000D01*
X198120000Y-99060000D02*
X193760000Y-99060000D01*
X193760000Y-99060000D02*
X189950000Y-95250000D01*
X185890000Y-97790000D02*
X180340000Y-97790000D01*
X195860000Y-111760000D02*
X193200000Y-109100000D01*
X193200000Y-105100000D02*
X185890000Y-97790000D01*
X198120000Y-111760000D02*
X195860000Y-111760000D01*
X193200000Y-109100000D02*
X193200000Y-105100000D01*
X191500000Y-107200000D02*
X184630000Y-100330000D01*
X184630000Y-100330000D02*
X180340000Y-100330000D01*
X191500000Y-112000000D02*
X191500000Y-107200000D01*
X193800000Y-114300000D02*
X191500000Y-112000000D01*
X198120000Y-114300000D02*
X193800000Y-114300000D01*
X189700000Y-113800000D02*
X189700000Y-108700000D01*
X189700000Y-108700000D02*
X183870000Y-102870000D01*
X192740000Y-116840000D02*
X189700000Y-113800000D01*
X198120000Y-116840000D02*
X192740000Y-116840000D01*
X183870000Y-102870000D02*
X180340000Y-102870000D01*
X187200000Y-114500000D02*
X187200000Y-109400000D01*
X187200000Y-109400000D02*
X183210000Y-105410000D01*
X183210000Y-105410000D02*
X180340000Y-105410000D01*
X192080000Y-119380000D02*
X187200000Y-114500000D01*
X198120000Y-119380000D02*
X192080000Y-119380000D01*
X157480000Y-95250000D02*
X165100000Y-95250000D01*
G04 #@! TA.AperFunction,Conductor*
G36*
X192194099Y-93530185D02*
G01*
X192214741Y-93546819D01*
X193167619Y-94499698D01*
X193167625Y-94499703D01*
X193277738Y-94609816D01*
X193313089Y-94632028D01*
X193318765Y-94636055D01*
X193351411Y-94662090D01*
X193351412Y-94662091D01*
X193367037Y-94669615D01*
X193389035Y-94680208D01*
X193395112Y-94683567D01*
X193412635Y-94694577D01*
X193430477Y-94705789D01*
X193469891Y-94719581D01*
X193476320Y-94722244D01*
X193513941Y-94740361D01*
X193554641Y-94749650D01*
X193561328Y-94751576D01*
X193600742Y-94765367D01*
X193600745Y-94765368D01*
X193642241Y-94770043D01*
X193649093Y-94771207D01*
X193689806Y-94780500D01*
X193735046Y-94780500D01*
X196502816Y-94780500D01*
X196569855Y-94800185D01*
X196595899Y-94822576D01*
X196747436Y-94994755D01*
X196747440Y-94994759D01*
X196932913Y-95144518D01*
X196932917Y-95144521D01*
X196932920Y-95144523D01*
X196933311Y-95144741D01*
X196933421Y-95144803D01*
X196933592Y-95144977D01*
X196937283Y-95147472D01*
X196936775Y-95148222D01*
X196982348Y-95194682D01*
X196996542Y-95263094D01*
X196971496Y-95328321D01*
X196942387Y-95355792D01*
X196837314Y-95426810D01*
X196837309Y-95426814D01*
X196665263Y-95591706D01*
X196523549Y-95783316D01*
X196416257Y-95996115D01*
X196346475Y-96223979D01*
X196340582Y-96270000D01*
X197574118Y-96270000D01*
X197535444Y-96363369D01*
X197514823Y-96520000D01*
X197535444Y-96676631D01*
X197574118Y-96770000D01*
X196341734Y-96770000D01*
X196376525Y-96931433D01*
X196465383Y-97152562D01*
X196590333Y-97355494D01*
X196747780Y-97534389D01*
X196747786Y-97534396D01*
X196933194Y-97684102D01*
X196933196Y-97684104D01*
X196933395Y-97684215D01*
X196933462Y-97684284D01*
X196937564Y-97687056D01*
X196937000Y-97687890D01*
X196982323Y-97734093D01*
X196996517Y-97802506D01*
X196971472Y-97867733D01*
X196942361Y-97895206D01*
X196837007Y-97966413D01*
X196836997Y-97966421D01*
X196664881Y-98131379D01*
X196664880Y-98131380D01*
X196607299Y-98209235D01*
X196551609Y-98251429D01*
X196507604Y-98259500D01*
X194142939Y-98259500D01*
X194075900Y-98239815D01*
X194055258Y-98223181D01*
X192285868Y-96453791D01*
X190501693Y-94669615D01*
X190501691Y-94669612D01*
X190484252Y-94652173D01*
X190452262Y-94620184D01*
X190452259Y-94620182D01*
X190452258Y-94620181D01*
X190416904Y-94597966D01*
X190411229Y-94593940D01*
X190378589Y-94567910D01*
X190340959Y-94549787D01*
X190334872Y-94546422D01*
X190299525Y-94524212D01*
X190260114Y-94510421D01*
X190253688Y-94507759D01*
X190216061Y-94489639D01*
X190175345Y-94480345D01*
X190168662Y-94478420D01*
X190129259Y-94464632D01*
X190087763Y-94459955D01*
X190080908Y-94458791D01*
X190040200Y-94449501D01*
X190040196Y-94449500D01*
X190040194Y-94449500D01*
X190040191Y-94449500D01*
X181430049Y-94449500D01*
X181363010Y-94429815D01*
X181342368Y-94413181D01*
X181179141Y-94249954D01*
X180992734Y-94119432D01*
X180992728Y-94119429D01*
X180934725Y-94092382D01*
X180882285Y-94046210D01*
X180863133Y-93979017D01*
X180883348Y-93912135D01*
X180934725Y-93867618D01*
X180992734Y-93840568D01*
X181179139Y-93710047D01*
X181179140Y-93710045D01*
X181342368Y-93546819D01*
X181403691Y-93513334D01*
X181430049Y-93510500D01*
X192127060Y-93510500D01*
X192194099Y-93530185D01*
G37*
G04 #@! TD.AperFunction*
G04 #@! TA.AperFunction,Conductor*
G36*
X196336299Y-81800185D02*
G01*
X196378092Y-81845073D01*
X196432770Y-81945209D01*
X196432775Y-81945217D01*
X196604254Y-82174287D01*
X196604270Y-82174305D01*
X196806594Y-82376629D01*
X196806612Y-82376645D01*
X197035682Y-82548124D01*
X197035690Y-82548129D01*
X197286833Y-82685264D01*
X197286832Y-82685264D01*
X197286836Y-82685265D01*
X197286839Y-82685267D01*
X197554954Y-82785269D01*
X197554960Y-82785270D01*
X197554962Y-82785271D01*
X197834566Y-82846095D01*
X197834568Y-82846095D01*
X197834572Y-82846096D01*
X198088220Y-82864237D01*
X198119999Y-82866510D01*
X198120000Y-82866510D01*
X198120001Y-82866510D01*
X198148595Y-82864464D01*
X198405428Y-82846096D01*
X198685046Y-82785269D01*
X198953161Y-82685267D01*
X199204315Y-82548126D01*
X199433395Y-82376639D01*
X199635739Y-82174295D01*
X199807226Y-81945215D01*
X199861908Y-81845072D01*
X199911313Y-81795668D01*
X199970740Y-81780500D01*
X205115500Y-81780500D01*
X205182539Y-81800185D01*
X205228294Y-81852989D01*
X205239500Y-81904500D01*
X205239500Y-132725500D01*
X205219815Y-132792539D01*
X205167011Y-132838294D01*
X205115500Y-132849500D01*
X154294500Y-132849500D01*
X154227461Y-132829815D01*
X154181706Y-132777011D01*
X154170500Y-132725500D01*
X154170500Y-129900000D01*
X155944341Y-129900000D01*
X155964936Y-130135403D01*
X155964938Y-130135413D01*
X156026094Y-130363655D01*
X156026096Y-130363659D01*
X156026097Y-130363663D01*
X156076030Y-130470746D01*
X156125964Y-130577828D01*
X156125965Y-130577830D01*
X156261505Y-130771402D01*
X156428597Y-130938494D01*
X156622169Y-131074034D01*
X156622171Y-131074035D01*
X156836337Y-131173903D01*
X157064592Y-131235063D01*
X157241032Y-131250499D01*
X157241033Y-131250500D01*
X157241034Y-131250500D01*
X157358967Y-131250500D01*
X157358967Y-131250499D01*
X157535408Y-131235063D01*
X157763663Y-131173903D01*
X157977829Y-131074035D01*
X158171401Y-130938495D01*
X158338495Y-130771401D01*
X158474035Y-130577830D01*
X158573903Y-130363663D01*
X158635063Y-130135408D01*
X158655659Y-129900000D01*
X158635063Y-129664592D01*
X158573903Y-129436337D01*
X158474035Y-129222171D01*
X158474034Y-129222169D01*
X158338494Y-129028597D01*
X158171402Y-128861505D01*
X157977830Y-128725965D01*
X157977828Y-128725964D01*
X157870746Y-128676030D01*
X157763663Y-128626097D01*
X157763659Y-128626096D01*
X157763655Y-128626094D01*
X157535413Y-128564938D01*
X157535403Y-128564936D01*
X157358967Y-128549500D01*
X157358966Y-128549500D01*
X157241034Y-128549500D01*
X157241033Y-128549500D01*
X157064596Y-128564936D01*
X157064586Y-128564938D01*
X156836344Y-128626094D01*
X156836335Y-128626098D01*
X156622171Y-128725964D01*
X156622169Y-128725965D01*
X156428597Y-128861505D01*
X156261506Y-129028597D01*
X156261501Y-129028604D01*
X156125967Y-129222165D01*
X156125965Y-129222169D01*
X156026098Y-129436335D01*
X156026094Y-129436344D01*
X155964938Y-129664586D01*
X155964936Y-129664596D01*
X155944341Y-129899999D01*
X155944341Y-129900000D01*
X154170500Y-129900000D01*
X154170500Y-120650000D01*
X156124341Y-120650000D01*
X156144936Y-120885403D01*
X156144938Y-120885413D01*
X156206094Y-121113655D01*
X156206096Y-121113659D01*
X156206097Y-121113663D01*
X156238455Y-121183054D01*
X156305965Y-121327830D01*
X156305967Y-121327834D01*
X156398338Y-121459752D01*
X156441505Y-121521401D01*
X156608599Y-121688495D01*
X156739474Y-121780135D01*
X156794594Y-121818730D01*
X156838219Y-121873307D01*
X156845413Y-121942805D01*
X156813890Y-122005160D01*
X156794595Y-122021880D01*
X156608922Y-122151890D01*
X156608920Y-122151891D01*
X156441891Y-122318920D01*
X156441886Y-122318926D01*
X156306400Y-122512420D01*
X156306399Y-122512422D01*
X156206570Y-122726507D01*
X156206567Y-122726513D01*
X156149364Y-122939999D01*
X156149364Y-122940000D01*
X157046314Y-122940000D01*
X157020507Y-122980156D01*
X156980000Y-123118111D01*
X156980000Y-123261889D01*
X157020507Y-123399844D01*
X157046314Y-123440000D01*
X156149364Y-123440000D01*
X156206567Y-123653486D01*
X156206570Y-123653492D01*
X156306399Y-123867578D01*
X156441894Y-124061082D01*
X156608917Y-124228105D01*
X156802421Y-124363600D01*
X157016507Y-124463429D01*
X157016516Y-124463433D01*
X157230000Y-124520634D01*
X157230000Y-123625501D01*
X157337685Y-123674680D01*
X157444237Y-123690000D01*
X157515763Y-123690000D01*
X157622315Y-123674680D01*
X157730000Y-123625501D01*
X157730000Y-124520633D01*
X157943483Y-124463433D01*
X157943492Y-124463429D01*
X158157578Y-124363600D01*
X158351082Y-124228105D01*
X158518105Y-124061082D01*
X158653600Y-123867578D01*
X158753429Y-123653492D01*
X158753432Y-123653486D01*
X158810636Y-123440000D01*
X157913686Y-123440000D01*
X157939493Y-123399844D01*
X157980000Y-123261889D01*
X157980000Y-123118111D01*
X157939493Y-122980156D01*
X157913686Y-122940000D01*
X158810636Y-122940000D01*
X158810635Y-122939999D01*
X158753432Y-122726513D01*
X158753429Y-122726507D01*
X158653600Y-122512422D01*
X158653599Y-122512420D01*
X158518113Y-122318926D01*
X158518108Y-122318920D01*
X158351078Y-122151890D01*
X158165405Y-122021879D01*
X158121780Y-121967302D01*
X158114588Y-121897804D01*
X158146110Y-121835449D01*
X158165406Y-121818730D01*
X158219907Y-121780568D01*
X158351401Y-121688495D01*
X158518495Y-121521401D01*
X158531116Y-121503375D01*
X158585693Y-121459752D01*
X158632691Y-121450500D01*
X159840194Y-121450500D01*
X159880903Y-121441208D01*
X159887760Y-121440043D01*
X159929255Y-121435368D01*
X159968680Y-121421571D01*
X159975321Y-121419658D01*
X160016061Y-121410360D01*
X160053693Y-121392236D01*
X160060105Y-121389580D01*
X160099522Y-121375789D01*
X160134889Y-121353565D01*
X160140961Y-121350209D01*
X160178587Y-121332091D01*
X160211236Y-121306052D01*
X160216895Y-121302037D01*
X160252262Y-121279816D01*
X160379816Y-121152262D01*
X160379816Y-121152261D01*
X162585258Y-118946819D01*
X162646582Y-118913334D01*
X162672940Y-118910500D01*
X164009951Y-118910500D01*
X164076990Y-118930185D01*
X164097632Y-118946819D01*
X164260858Y-119110045D01*
X164260861Y-119110047D01*
X164447266Y-119240568D01*
X164505275Y-119267618D01*
X164557714Y-119313791D01*
X164576866Y-119380984D01*
X164556650Y-119447865D01*
X164505275Y-119492381D01*
X164488272Y-119500310D01*
X164447267Y-119519431D01*
X164447265Y-119519432D01*
X164260858Y-119649954D01*
X164099954Y-119810858D01*
X163969432Y-119997265D01*
X163969431Y-119997267D01*
X163873261Y-120203502D01*
X163873258Y-120203511D01*
X163814366Y-120423302D01*
X163814364Y-120423313D01*
X163794532Y-120649998D01*
X163794532Y-120650001D01*
X163814364Y-120876686D01*
X163814366Y-120876697D01*
X163873258Y-121096488D01*
X163873261Y-121096497D01*
X163969431Y-121302732D01*
X163969432Y-121302734D01*
X164099954Y-121489141D01*
X164260858Y-121650045D01*
X164260861Y-121650047D01*
X164447266Y-121780568D01*
X164504681Y-121807341D01*
X164505275Y-121807618D01*
X164557714Y-121853791D01*
X164576866Y-121920984D01*
X164556650Y-121987865D01*
X164505275Y-122032382D01*
X164447267Y-122059431D01*
X164447265Y-122059432D01*
X164260858Y-122189954D01*
X164099954Y-122350858D01*
X163969432Y-122537265D01*
X163969431Y-122537267D01*
X163873261Y-122743502D01*
X163873258Y-122743511D01*
X163814366Y-122963302D01*
X163814364Y-122963313D01*
X163794532Y-123189998D01*
X163794532Y-123190001D01*
X163814364Y-123416686D01*
X163814366Y-123416697D01*
X163873258Y-123636488D01*
X163873261Y-123636497D01*
X163969431Y-123842732D01*
X163969432Y-123842734D01*
X164099954Y-124029141D01*
X164260858Y-124190045D01*
X164260861Y-124190047D01*
X164447266Y-124320568D01*
X164505865Y-124347893D01*
X164558305Y-124394065D01*
X164577457Y-124461258D01*
X164557242Y-124528139D01*
X164505867Y-124572657D01*
X164447515Y-124599867D01*
X164261179Y-124730342D01*
X164100342Y-124891179D01*
X163969865Y-125077517D01*
X163873734Y-125283673D01*
X163873730Y-125283682D01*
X163821127Y-125479999D01*
X163821128Y-125480000D01*
X164666314Y-125480000D01*
X164640507Y-125520156D01*
X164600000Y-125658111D01*
X164600000Y-125801889D01*
X164640507Y-125939844D01*
X164666314Y-125980000D01*
X163821128Y-125980000D01*
X163873730Y-126176317D01*
X163873734Y-126176326D01*
X163969865Y-126382482D01*
X164100342Y-126568820D01*
X164261179Y-126729657D01*
X164447518Y-126860134D01*
X164447520Y-126860135D01*
X164505865Y-126887342D01*
X164558305Y-126933514D01*
X164577457Y-127000707D01*
X164557242Y-127067589D01*
X164505867Y-127112105D01*
X164447268Y-127139431D01*
X164447264Y-127139433D01*
X164260858Y-127269954D01*
X164099954Y-127430858D01*
X163969432Y-127617265D01*
X163969431Y-127617267D01*
X163873261Y-127823502D01*
X163873258Y-127823511D01*
X163814366Y-128043302D01*
X163814364Y-128043313D01*
X163794532Y-128269998D01*
X163794532Y-128270001D01*
X163814364Y-128496686D01*
X163814366Y-128496697D01*
X163873258Y-128716488D01*
X163873261Y-128716497D01*
X163969431Y-128922732D01*
X163969432Y-128922734D01*
X164099954Y-129109141D01*
X164260858Y-129270045D01*
X164260861Y-129270047D01*
X164447266Y-129400568D01*
X164653504Y-129496739D01*
X164873308Y-129555635D01*
X165035230Y-129569801D01*
X165099998Y-129575468D01*
X165100000Y-129575468D01*
X165100002Y-129575468D01*
X165156807Y-129570498D01*
X165326692Y-129555635D01*
X165546496Y-129496739D01*
X165752734Y-129400568D01*
X165939139Y-129270047D01*
X166100047Y-129109139D01*
X166230568Y-128922734D01*
X166326739Y-128716496D01*
X166385635Y-128496692D01*
X166405468Y-128270000D01*
X166385635Y-128043308D01*
X166326739Y-127823504D01*
X166230568Y-127617266D01*
X166100047Y-127430861D01*
X166100045Y-127430858D01*
X165939141Y-127269954D01*
X165752734Y-127139432D01*
X165752732Y-127139431D01*
X165741275Y-127134088D01*
X165694132Y-127112105D01*
X165641694Y-127065934D01*
X165622542Y-126998740D01*
X165642758Y-126931859D01*
X165694134Y-126887341D01*
X165752484Y-126860132D01*
X165938820Y-126729657D01*
X166099657Y-126568820D01*
X166230134Y-126382482D01*
X166326265Y-126176326D01*
X166326269Y-126176317D01*
X166378872Y-125980000D01*
X165533686Y-125980000D01*
X165559493Y-125939844D01*
X165600000Y-125801889D01*
X165600000Y-125730001D01*
X179034532Y-125730001D01*
X179054364Y-125956686D01*
X179054366Y-125956697D01*
X179113258Y-126176488D01*
X179113261Y-126176497D01*
X179209431Y-126382732D01*
X179209432Y-126382734D01*
X179339954Y-126569141D01*
X179500858Y-126730045D01*
X179525462Y-126747273D01*
X179569087Y-126801849D01*
X179576281Y-126871348D01*
X179544758Y-126933703D01*
X179484529Y-126969117D01*
X179467593Y-126972138D01*
X179432516Y-126975908D01*
X179297671Y-127026202D01*
X179297664Y-127026206D01*
X179182455Y-127112452D01*
X179182452Y-127112455D01*
X179096206Y-127227664D01*
X179096202Y-127227671D01*
X179045908Y-127362517D01*
X179039501Y-127422116D01*
X179039501Y-127422123D01*
X179039500Y-127422135D01*
X179039500Y-129117870D01*
X179039501Y-129117876D01*
X179045908Y-129177483D01*
X179096202Y-129312328D01*
X179096206Y-129312335D01*
X179182452Y-129427544D01*
X179182455Y-129427547D01*
X179297664Y-129513793D01*
X179297671Y-129513797D01*
X179432517Y-129564091D01*
X179432516Y-129564091D01*
X179439444Y-129564835D01*
X179492127Y-129570500D01*
X181187872Y-129570499D01*
X181247483Y-129564091D01*
X181382331Y-129513796D01*
X181497546Y-129427546D01*
X181583796Y-129312331D01*
X181634091Y-129177483D01*
X181640500Y-129117873D01*
X181640499Y-127422128D01*
X181634091Y-127362517D01*
X181599567Y-127269954D01*
X181583797Y-127227671D01*
X181583793Y-127227664D01*
X181497547Y-127112455D01*
X181497544Y-127112452D01*
X181382335Y-127026206D01*
X181382328Y-127026202D01*
X181247482Y-126975908D01*
X181247483Y-126975908D01*
X181212404Y-126972137D01*
X181147853Y-126945399D01*
X181108005Y-126888006D01*
X181105512Y-126818181D01*
X181141165Y-126758092D01*
X181154539Y-126747272D01*
X181179140Y-126730046D01*
X181340045Y-126569141D01*
X181340044Y-126569141D01*
X181340047Y-126569139D01*
X181470568Y-126382734D01*
X181566739Y-126176496D01*
X181625635Y-125956692D01*
X181645468Y-125730000D01*
X181625635Y-125503308D01*
X181566739Y-125283504D01*
X181470568Y-125077266D01*
X181340047Y-124890861D01*
X181340045Y-124890858D01*
X181179141Y-124729954D01*
X180992734Y-124599432D01*
X180992728Y-124599429D01*
X180934725Y-124572382D01*
X180882285Y-124526210D01*
X180863133Y-124459017D01*
X180883348Y-124392135D01*
X180934725Y-124347618D01*
X180992734Y-124320568D01*
X181179139Y-124190047D01*
X181340047Y-124029139D01*
X181470568Y-123842734D01*
X181566739Y-123636496D01*
X181625635Y-123416692D01*
X181645468Y-123190000D01*
X181625635Y-122963308D01*
X181566739Y-122743504D01*
X181470568Y-122537266D01*
X181340047Y-122350861D01*
X181340045Y-122350858D01*
X181179141Y-122189954D01*
X180992734Y-122059432D01*
X180992732Y-122059431D01*
X180934725Y-122032382D01*
X180934132Y-122032105D01*
X180881694Y-121985934D01*
X180862542Y-121918740D01*
X180882758Y-121851859D01*
X180934134Y-121807341D01*
X180992484Y-121780132D01*
X181178820Y-121649657D01*
X181339657Y-121488820D01*
X181470134Y-121302482D01*
X181566265Y-121096326D01*
X181566269Y-121096317D01*
X181618872Y-120900000D01*
X180773686Y-120900000D01*
X180799493Y-120859844D01*
X180840000Y-120721889D01*
X180840000Y-120578111D01*
X180799493Y-120440156D01*
X180773686Y-120400000D01*
X181618872Y-120400000D01*
X181618872Y-120399999D01*
X181566269Y-120203682D01*
X181566265Y-120203673D01*
X181470134Y-119997517D01*
X181339657Y-119811179D01*
X181178820Y-119650342D01*
X180992482Y-119519865D01*
X180934133Y-119492657D01*
X180881694Y-119446484D01*
X180862542Y-119379291D01*
X180882758Y-119312410D01*
X180934129Y-119267895D01*
X180992734Y-119240568D01*
X181179139Y-119110047D01*
X181340047Y-118949139D01*
X181470568Y-118762734D01*
X181566739Y-118556496D01*
X181625635Y-118336692D01*
X181645468Y-118110000D01*
X181625635Y-117883308D01*
X181566739Y-117663504D01*
X181470568Y-117457266D01*
X181365118Y-117306666D01*
X181340045Y-117270858D01*
X181179141Y-117109954D01*
X180992734Y-116979432D01*
X180992728Y-116979429D01*
X180934725Y-116952382D01*
X180882285Y-116906210D01*
X180863133Y-116839017D01*
X180883348Y-116772135D01*
X180934725Y-116727618D01*
X180992734Y-116700568D01*
X181179139Y-116570047D01*
X181340047Y-116409139D01*
X181470568Y-116222734D01*
X181566739Y-116016496D01*
X181625635Y-115796692D01*
X181645468Y-115570000D01*
X181625635Y-115343308D01*
X181566739Y-115123504D01*
X181470568Y-114917266D01*
X181340047Y-114730861D01*
X181340045Y-114730858D01*
X181179141Y-114569954D01*
X180992734Y-114439432D01*
X180992728Y-114439429D01*
X180934725Y-114412382D01*
X180882285Y-114366210D01*
X180863133Y-114299017D01*
X180883348Y-114232135D01*
X180934725Y-114187618D01*
X180940614Y-114184872D01*
X180992734Y-114160568D01*
X181179139Y-114030047D01*
X181340047Y-113869139D01*
X181470568Y-113682734D01*
X181566739Y-113476496D01*
X181625635Y-113256692D01*
X181645468Y-113030000D01*
X181625635Y-112803308D01*
X181566739Y-112583504D01*
X181470568Y-112377266D01*
X181340047Y-112190861D01*
X181340045Y-112190858D01*
X181179141Y-112029954D01*
X180992734Y-111899432D01*
X180992728Y-111899429D01*
X180934725Y-111872382D01*
X180882285Y-111826210D01*
X180863133Y-111759017D01*
X180883348Y-111692135D01*
X180934725Y-111647618D01*
X180943732Y-111643418D01*
X180992734Y-111620568D01*
X181179139Y-111490047D01*
X181340047Y-111329139D01*
X181470568Y-111142734D01*
X181566739Y-110936496D01*
X181625635Y-110716692D01*
X181645468Y-110490000D01*
X181625635Y-110263308D01*
X181566739Y-110043504D01*
X181470568Y-109837266D01*
X181340047Y-109650861D01*
X181340045Y-109650858D01*
X181179141Y-109489954D01*
X180992734Y-109359432D01*
X180992728Y-109359429D01*
X180934725Y-109332382D01*
X180882285Y-109286210D01*
X180863133Y-109219017D01*
X180883348Y-109152135D01*
X180934725Y-109107618D01*
X180992734Y-109080568D01*
X181179139Y-108950047D01*
X181340047Y-108789139D01*
X181470568Y-108602734D01*
X181566739Y-108396496D01*
X181625635Y-108176692D01*
X181645468Y-107950000D01*
X181625635Y-107723308D01*
X181566739Y-107503504D01*
X181470568Y-107297266D01*
X181340047Y-107110861D01*
X181340045Y-107110858D01*
X181179141Y-106949954D01*
X181048569Y-106858528D01*
X180992734Y-106819432D01*
X180934722Y-106792380D01*
X180882284Y-106746208D01*
X180863133Y-106679014D01*
X180883349Y-106612133D01*
X180934721Y-106567619D01*
X180992734Y-106540568D01*
X181179139Y-106410047D01*
X181205309Y-106383877D01*
X181342368Y-106246819D01*
X181403691Y-106213334D01*
X181430049Y-106210500D01*
X182827060Y-106210500D01*
X182894099Y-106230185D01*
X182914741Y-106246819D01*
X186363181Y-109695258D01*
X186396666Y-109756581D01*
X186399500Y-109782939D01*
X186399500Y-114590191D01*
X186399501Y-114590200D01*
X186408791Y-114630908D01*
X186409955Y-114637763D01*
X186414632Y-114679259D01*
X186428420Y-114718662D01*
X186430345Y-114725345D01*
X186439639Y-114766061D01*
X186457759Y-114803688D01*
X186460421Y-114810114D01*
X186474212Y-114849525D01*
X186496422Y-114884872D01*
X186499787Y-114890959D01*
X186517910Y-114928589D01*
X186543941Y-114961230D01*
X186547967Y-114966904D01*
X186570183Y-115002261D01*
X186602174Y-115034252D01*
X189025888Y-117457966D01*
X191432742Y-119864819D01*
X191432743Y-119864821D01*
X191450184Y-119882262D01*
X191577738Y-120009816D01*
X191613089Y-120032028D01*
X191618765Y-120036055D01*
X191651411Y-120062090D01*
X191651412Y-120062091D01*
X191672548Y-120072269D01*
X191689035Y-120080208D01*
X191695112Y-120083567D01*
X191712635Y-120094577D01*
X191730477Y-120105789D01*
X191769891Y-120119581D01*
X191776320Y-120122244D01*
X191813941Y-120140361D01*
X191854641Y-120149650D01*
X191861328Y-120151576D01*
X191900608Y-120165320D01*
X191900745Y-120165368D01*
X191942241Y-120170043D01*
X191949093Y-120171207D01*
X191989806Y-120180500D01*
X192035046Y-120180500D01*
X196502816Y-120180500D01*
X196569855Y-120200185D01*
X196595899Y-120222576D01*
X196747436Y-120394755D01*
X196932920Y-120544523D01*
X196932935Y-120544531D01*
X196932942Y-120544538D01*
X196937291Y-120547478D01*
X196936693Y-120548362D01*
X196981861Y-120594411D01*
X196996053Y-120662824D01*
X196971005Y-120728050D01*
X196941897Y-120755520D01*
X196837007Y-120826413D01*
X196836997Y-120826421D01*
X196664881Y-120991379D01*
X196523123Y-121183050D01*
X196523120Y-121183054D01*
X196415796Y-121395920D01*
X196415793Y-121395926D01*
X196345983Y-121623878D01*
X196315702Y-121860346D01*
X196325819Y-122098528D01*
X196325819Y-122098532D01*
X196376045Y-122331580D01*
X196458697Y-122537265D01*
X196464936Y-122552790D01*
X196589931Y-122755795D01*
X196671628Y-122848621D01*
X196747436Y-122934755D01*
X196747440Y-122934759D01*
X196932913Y-123084518D01*
X196932917Y-123084521D01*
X196932920Y-123084523D01*
X196933311Y-123084741D01*
X196933421Y-123084803D01*
X196933592Y-123084977D01*
X196937283Y-123087472D01*
X196936775Y-123088222D01*
X196982348Y-123134682D01*
X196996542Y-123203094D01*
X196971496Y-123268321D01*
X196942387Y-123295792D01*
X196837314Y-123366810D01*
X196837309Y-123366814D01*
X196665263Y-123531706D01*
X196523549Y-123723316D01*
X196416257Y-123936115D01*
X196346475Y-124163979D01*
X196340582Y-124210000D01*
X197574118Y-124210000D01*
X197535444Y-124303369D01*
X197514823Y-124460000D01*
X197535444Y-124616631D01*
X197574118Y-124710000D01*
X196341734Y-124710000D01*
X196376525Y-124871433D01*
X196465383Y-125092562D01*
X196590333Y-125295494D01*
X196747780Y-125474389D01*
X196747786Y-125474396D01*
X196933194Y-125624102D01*
X196933204Y-125624109D01*
X197141248Y-125740331D01*
X197365947Y-125819722D01*
X197365961Y-125819726D01*
X197600832Y-125859999D01*
X197600843Y-125860000D01*
X197870000Y-125860000D01*
X197870000Y-125005881D01*
X197963369Y-125044556D01*
X198080677Y-125060000D01*
X198159323Y-125060000D01*
X198276631Y-125044556D01*
X198370000Y-125005881D01*
X198370000Y-125860000D01*
X198579472Y-125860000D01*
X198579491Y-125859999D01*
X198757450Y-125844852D01*
X198757453Y-125844851D01*
X198988078Y-125784802D01*
X199205241Y-125686639D01*
X199205244Y-125686637D01*
X199402688Y-125553187D01*
X199402690Y-125553185D01*
X199574736Y-125388293D01*
X199716450Y-125196683D01*
X199823742Y-124983884D01*
X199893524Y-124756020D01*
X199899418Y-124710000D01*
X198665882Y-124710000D01*
X198704556Y-124616631D01*
X198725177Y-124460000D01*
X198704556Y-124303369D01*
X198665882Y-124210000D01*
X199898266Y-124210000D01*
X199898265Y-124209999D01*
X199863474Y-124048566D01*
X199774616Y-123827437D01*
X199649666Y-123624505D01*
X199492219Y-123445610D01*
X199492213Y-123445603D01*
X199306805Y-123295897D01*
X199306790Y-123295887D01*
X199306597Y-123295779D01*
X199306530Y-123295711D01*
X199302436Y-123292944D01*
X199302999Y-123292110D01*
X199257672Y-123245898D01*
X199243482Y-123177484D01*
X199268532Y-123112260D01*
X199297637Y-123084793D01*
X199403003Y-123013579D01*
X199575118Y-122848621D01*
X199716879Y-122656947D01*
X199824207Y-122444074D01*
X199894016Y-122216123D01*
X199924298Y-121979654D01*
X199921710Y-121918740D01*
X199915841Y-121780567D01*
X199914180Y-121741468D01*
X199902763Y-121688495D01*
X199863954Y-121508419D01*
X199840680Y-121450500D01*
X199775064Y-121287210D01*
X199650069Y-121084205D01*
X199492564Y-120905245D01*
X199307080Y-120755477D01*
X199307074Y-120755474D01*
X199307071Y-120755471D01*
X199307057Y-120755463D01*
X199307051Y-120755457D01*
X199302709Y-120752522D01*
X199303306Y-120751638D01*
X199258134Y-120705580D01*
X199243947Y-120637165D01*
X199268999Y-120571942D01*
X199298099Y-120544481D01*
X199403003Y-120473579D01*
X199575118Y-120308621D01*
X199716879Y-120116947D01*
X199824207Y-119904074D01*
X199894016Y-119676123D01*
X199924298Y-119439654D01*
X199914180Y-119201468D01*
X199863954Y-118968419D01*
X199775064Y-118747210D01*
X199650069Y-118544205D01*
X199492564Y-118365245D01*
X199307080Y-118215477D01*
X199307074Y-118215474D01*
X199307071Y-118215471D01*
X199307057Y-118215463D01*
X199307051Y-118215457D01*
X199302709Y-118212522D01*
X199303306Y-118211638D01*
X199258134Y-118165580D01*
X199243947Y-118097165D01*
X199268999Y-118031942D01*
X199298099Y-118004481D01*
X199403003Y-117933579D01*
X199575118Y-117768621D01*
X199716879Y-117576947D01*
X199824207Y-117364074D01*
X199894016Y-117136123D01*
X199924298Y-116899654D01*
X199914180Y-116661468D01*
X199863954Y-116428419D01*
X199775064Y-116207210D01*
X199650069Y-116004205D01*
X199492564Y-115825245D01*
X199307080Y-115675477D01*
X199307074Y-115675474D01*
X199307071Y-115675471D01*
X199307057Y-115675463D01*
X199307051Y-115675457D01*
X199302709Y-115672522D01*
X199303306Y-115671638D01*
X199258134Y-115625580D01*
X199243947Y-115557165D01*
X199268999Y-115491942D01*
X199298099Y-115464481D01*
X199403003Y-115393579D01*
X199575118Y-115228621D01*
X199716879Y-115036947D01*
X199824207Y-114824074D01*
X199894016Y-114596123D01*
X199924298Y-114359654D01*
X199914180Y-114121468D01*
X199874588Y-113937763D01*
X199863954Y-113888419D01*
X199856207Y-113869139D01*
X199775064Y-113667210D01*
X199650069Y-113464205D01*
X199492564Y-113285245D01*
X199307080Y-113135477D01*
X199307074Y-113135474D01*
X199307071Y-113135471D01*
X199307057Y-113135463D01*
X199307051Y-113135457D01*
X199302709Y-113132522D01*
X199303306Y-113131638D01*
X199258134Y-113085580D01*
X199243947Y-113017165D01*
X199268999Y-112951942D01*
X199298099Y-112924481D01*
X199403003Y-112853579D01*
X199575118Y-112688621D01*
X199716879Y-112496947D01*
X199824207Y-112284074D01*
X199894016Y-112056123D01*
X199924298Y-111819654D01*
X199914180Y-111581468D01*
X199863954Y-111348419D01*
X199775064Y-111127210D01*
X199650069Y-110924205D01*
X199492564Y-110745245D01*
X199307080Y-110595477D01*
X199307074Y-110595474D01*
X199307071Y-110595471D01*
X199307057Y-110595463D01*
X199307051Y-110595457D01*
X199302709Y-110592522D01*
X199303306Y-110591638D01*
X199258134Y-110545580D01*
X199243947Y-110477165D01*
X199268999Y-110411942D01*
X199298099Y-110384481D01*
X199403003Y-110313579D01*
X199575118Y-110148621D01*
X199716879Y-109956947D01*
X199824207Y-109744074D01*
X199894016Y-109516123D01*
X199924298Y-109279654D01*
X199923849Y-109269095D01*
X199914180Y-109041471D01*
X199914180Y-109041467D01*
X199863954Y-108808419D01*
X199837834Y-108743418D01*
X199775064Y-108587210D01*
X199650069Y-108384205D01*
X199492564Y-108205245D01*
X199307080Y-108055477D01*
X199307074Y-108055474D01*
X199307071Y-108055471D01*
X199307057Y-108055463D01*
X199307051Y-108055457D01*
X199302709Y-108052522D01*
X199303306Y-108051638D01*
X199258134Y-108005580D01*
X199243947Y-107937165D01*
X199268999Y-107871942D01*
X199298099Y-107844481D01*
X199403003Y-107773579D01*
X199575118Y-107608621D01*
X199716879Y-107416947D01*
X199824207Y-107204074D01*
X199894016Y-106976123D01*
X199924298Y-106739654D01*
X199922517Y-106697738D01*
X199914180Y-106501471D01*
X199914180Y-106501467D01*
X199863954Y-106268419D01*
X199775064Y-106047211D01*
X199775064Y-106047210D01*
X199650069Y-105844205D01*
X199492564Y-105665245D01*
X199307080Y-105515477D01*
X199307074Y-105515474D01*
X199307071Y-105515471D01*
X199307057Y-105515463D01*
X199307051Y-105515457D01*
X199302709Y-105512522D01*
X199303306Y-105511638D01*
X199258134Y-105465580D01*
X199243947Y-105397165D01*
X199268999Y-105331942D01*
X199298099Y-105304481D01*
X199403003Y-105233579D01*
X199575118Y-105068621D01*
X199716879Y-104876947D01*
X199824207Y-104664074D01*
X199894016Y-104436123D01*
X199924298Y-104199654D01*
X199914180Y-103961468D01*
X199863954Y-103728419D01*
X199775064Y-103507210D01*
X199650069Y-103304205D01*
X199492564Y-103125245D01*
X199307080Y-102975477D01*
X199307074Y-102975474D01*
X199307071Y-102975471D01*
X199307057Y-102975463D01*
X199307051Y-102975457D01*
X199302709Y-102972522D01*
X199303306Y-102971638D01*
X199258134Y-102925580D01*
X199243947Y-102857165D01*
X199268999Y-102791942D01*
X199298099Y-102764481D01*
X199403003Y-102693579D01*
X199575118Y-102528621D01*
X199716879Y-102336947D01*
X199824207Y-102124074D01*
X199894016Y-101896123D01*
X199924298Y-101659654D01*
X199914180Y-101421468D01*
X199902679Y-101368105D01*
X199863954Y-101188419D01*
X199840680Y-101130500D01*
X199775064Y-100967210D01*
X199650069Y-100764205D01*
X199492564Y-100585245D01*
X199307080Y-100435477D01*
X199307074Y-100435474D01*
X199307071Y-100435471D01*
X199307057Y-100435463D01*
X199307051Y-100435457D01*
X199302709Y-100432522D01*
X199303306Y-100431638D01*
X199258134Y-100385580D01*
X199243947Y-100317165D01*
X199268999Y-100251942D01*
X199298099Y-100224481D01*
X199403003Y-100153579D01*
X199575118Y-99988621D01*
X199716879Y-99796947D01*
X199824207Y-99584074D01*
X199894016Y-99356123D01*
X199924298Y-99119654D01*
X199914180Y-98881468D01*
X199902763Y-98828495D01*
X199863954Y-98648419D01*
X199791388Y-98467834D01*
X199775064Y-98427210D01*
X199650069Y-98224205D01*
X199492564Y-98045245D01*
X199307080Y-97895477D01*
X199307077Y-97895475D01*
X199307073Y-97895472D01*
X199306571Y-97895192D01*
X199306398Y-97895015D01*
X199302709Y-97892522D01*
X199303216Y-97891771D01*
X199257647Y-97845310D01*
X199243457Y-97776897D01*
X199268508Y-97711672D01*
X199297613Y-97684206D01*
X199402688Y-97613187D01*
X199402690Y-97613185D01*
X199574736Y-97448293D01*
X199716450Y-97256683D01*
X199823742Y-97043884D01*
X199893524Y-96816020D01*
X199899418Y-96770000D01*
X198665882Y-96770000D01*
X198704556Y-96676631D01*
X198725177Y-96520000D01*
X198704556Y-96363369D01*
X198665882Y-96270000D01*
X199898266Y-96270000D01*
X199898265Y-96269999D01*
X199863474Y-96108566D01*
X199774616Y-95887437D01*
X199649666Y-95684505D01*
X199492219Y-95505610D01*
X199492213Y-95505603D01*
X199306805Y-95355897D01*
X199306790Y-95355887D01*
X199306597Y-95355779D01*
X199306530Y-95355711D01*
X199302436Y-95352944D01*
X199302999Y-95352110D01*
X199257672Y-95305898D01*
X199243482Y-95237484D01*
X199268532Y-95172260D01*
X199297637Y-95144793D01*
X199403003Y-95073579D01*
X199575118Y-94908621D01*
X199716879Y-94716947D01*
X199824207Y-94504074D01*
X199894016Y-94276123D01*
X199924298Y-94039654D01*
X199914180Y-93801468D01*
X199863954Y-93568419D01*
X199775064Y-93347210D01*
X199650069Y-93144205D01*
X199492564Y-92965245D01*
X199307080Y-92815477D01*
X199307074Y-92815474D01*
X199307071Y-92815471D01*
X199307057Y-92815463D01*
X199307051Y-92815457D01*
X199302709Y-92812522D01*
X199303306Y-92811638D01*
X199258134Y-92765580D01*
X199243947Y-92697165D01*
X199268999Y-92631942D01*
X199298099Y-92604481D01*
X199403003Y-92533579D01*
X199575118Y-92368621D01*
X199716879Y-92176947D01*
X199824207Y-91964074D01*
X199894016Y-91736123D01*
X199924298Y-91499654D01*
X199914180Y-91261468D01*
X199863954Y-91028419D01*
X199775064Y-90807210D01*
X199650069Y-90604205D01*
X199492564Y-90425245D01*
X199307080Y-90275477D01*
X199307074Y-90275474D01*
X199307071Y-90275471D01*
X199307057Y-90275463D01*
X199307051Y-90275457D01*
X199302709Y-90272522D01*
X199303306Y-90271638D01*
X199258134Y-90225580D01*
X199243947Y-90157165D01*
X199268999Y-90091942D01*
X199298099Y-90064481D01*
X199403003Y-89993579D01*
X199575118Y-89828621D01*
X199716879Y-89636947D01*
X199824207Y-89424074D01*
X199894016Y-89196123D01*
X199924298Y-88959654D01*
X199914180Y-88721468D01*
X199908868Y-88696822D01*
X199863954Y-88488419D01*
X199775064Y-88267211D01*
X199775064Y-88267210D01*
X199650069Y-88064205D01*
X199532907Y-87931084D01*
X199503393Y-87867755D01*
X199512802Y-87798522D01*
X199558148Y-87745366D01*
X199582658Y-87732979D01*
X199662086Y-87703354D01*
X199662093Y-87703350D01*
X199777187Y-87617190D01*
X199777190Y-87617187D01*
X199863350Y-87502093D01*
X199863354Y-87502086D01*
X199913596Y-87367379D01*
X199913598Y-87367372D01*
X199919999Y-87307844D01*
X199920000Y-87307827D01*
X199920000Y-86610000D01*
X198665882Y-86610000D01*
X198704556Y-86516631D01*
X198725177Y-86360000D01*
X198704556Y-86203369D01*
X198665882Y-86110000D01*
X199920000Y-86110000D01*
X199920000Y-85412172D01*
X199919999Y-85412155D01*
X199913598Y-85352627D01*
X199913596Y-85352620D01*
X199863354Y-85217913D01*
X199863350Y-85217906D01*
X199777190Y-85102812D01*
X199777187Y-85102809D01*
X199662093Y-85016649D01*
X199662086Y-85016645D01*
X199527379Y-84966403D01*
X199527372Y-84966401D01*
X199467844Y-84960000D01*
X198370000Y-84960000D01*
X198370000Y-85814118D01*
X198276631Y-85775444D01*
X198159323Y-85760000D01*
X198080677Y-85760000D01*
X197963369Y-85775444D01*
X197870000Y-85814118D01*
X197870000Y-84960000D01*
X196772155Y-84960000D01*
X196712627Y-84966401D01*
X196712620Y-84966403D01*
X196577913Y-85016645D01*
X196577906Y-85016649D01*
X196462812Y-85102809D01*
X196462809Y-85102812D01*
X196376649Y-85217906D01*
X196376645Y-85217913D01*
X196326403Y-85352620D01*
X196326401Y-85352627D01*
X196320000Y-85412155D01*
X196320000Y-86110000D01*
X197574118Y-86110000D01*
X197535444Y-86203369D01*
X197514823Y-86360000D01*
X197535444Y-86516631D01*
X197574118Y-86610000D01*
X196320000Y-86610000D01*
X196320000Y-87307844D01*
X196326401Y-87367372D01*
X196326403Y-87367379D01*
X196376645Y-87502086D01*
X196376649Y-87502093D01*
X196462809Y-87617187D01*
X196462812Y-87617190D01*
X196577906Y-87703350D01*
X196577915Y-87703355D01*
X196656755Y-87732760D01*
X196712689Y-87774630D01*
X196737107Y-87840095D01*
X196722256Y-87908368D01*
X196699225Y-87938463D01*
X196664882Y-87971378D01*
X196523123Y-88163050D01*
X196523120Y-88163054D01*
X196415796Y-88375920D01*
X196415793Y-88375926D01*
X196345983Y-88603878D01*
X196315702Y-88840346D01*
X196325819Y-89078528D01*
X196325819Y-89078532D01*
X196376045Y-89311580D01*
X196464935Y-89532788D01*
X196464936Y-89532790D01*
X196589931Y-89735795D01*
X196747436Y-89914755D01*
X196932920Y-90064523D01*
X196932935Y-90064531D01*
X196932942Y-90064538D01*
X196937291Y-90067478D01*
X196936693Y-90068362D01*
X196981861Y-90114411D01*
X196996053Y-90182824D01*
X196971005Y-90248050D01*
X196941897Y-90275520D01*
X196837007Y-90346413D01*
X196836997Y-90346421D01*
X196664881Y-90511379D01*
X196664880Y-90511380D01*
X196607299Y-90589235D01*
X196551609Y-90631429D01*
X196507604Y-90639500D01*
X195122940Y-90639500D01*
X195055901Y-90619815D01*
X195035259Y-90603181D01*
X192526819Y-88094741D01*
X192493334Y-88033418D01*
X192490500Y-88007060D01*
X192490500Y-87703350D01*
X192490500Y-87381758D01*
X192510183Y-87314723D01*
X192526809Y-87294090D01*
X192674667Y-87146233D01*
X192803181Y-86962696D01*
X192897872Y-86759630D01*
X192955863Y-86543206D01*
X192975391Y-86320000D01*
X192955863Y-86096794D01*
X192897872Y-85880370D01*
X192803181Y-85677305D01*
X192674667Y-85493767D01*
X192516233Y-85335333D01*
X192516229Y-85335330D01*
X192516228Y-85335329D01*
X192332700Y-85206821D01*
X192332696Y-85206819D01*
X192332695Y-85206818D01*
X192129630Y-85112128D01*
X192129627Y-85112127D01*
X192129625Y-85112126D01*
X191913208Y-85054137D01*
X191913200Y-85054136D01*
X191690002Y-85034609D01*
X191689998Y-85034609D01*
X191466799Y-85054136D01*
X191466791Y-85054137D01*
X191250374Y-85112126D01*
X191250368Y-85112129D01*
X191047306Y-85206818D01*
X191047304Y-85206819D01*
X190863764Y-85335334D01*
X190705334Y-85493764D01*
X190576819Y-85677304D01*
X190576818Y-85677306D01*
X190482129Y-85880368D01*
X190482126Y-85880374D01*
X190424137Y-86096791D01*
X190424136Y-86096799D01*
X190404609Y-86319998D01*
X190404609Y-86320001D01*
X190424136Y-86543200D01*
X190424137Y-86543208D01*
X190482126Y-86759625D01*
X190482127Y-86759627D01*
X190482128Y-86759630D01*
X190540169Y-86884099D01*
X190576819Y-86962696D01*
X190576821Y-86962700D01*
X190705329Y-87146228D01*
X190705334Y-87146234D01*
X190853181Y-87294081D01*
X190886666Y-87355404D01*
X190889500Y-87381762D01*
X190889500Y-88480191D01*
X190889501Y-88480200D01*
X190898791Y-88520908D01*
X190899955Y-88527763D01*
X190904632Y-88569259D01*
X190918420Y-88608662D01*
X190920345Y-88615345D01*
X190929639Y-88656061D01*
X190947759Y-88693688D01*
X190950421Y-88700114D01*
X190964212Y-88739525D01*
X190986422Y-88774872D01*
X190989787Y-88780959D01*
X191007910Y-88818589D01*
X191033940Y-88851229D01*
X191037966Y-88856904D01*
X191060182Y-88892259D01*
X191060184Y-88892262D01*
X191092174Y-88924252D01*
X192593167Y-90425245D01*
X194092742Y-91924819D01*
X194092743Y-91924821D01*
X194237740Y-92069818D01*
X194250790Y-92078017D01*
X194273104Y-92092038D01*
X194278757Y-92096049D01*
X194311413Y-92122091D01*
X194349044Y-92140213D01*
X194355106Y-92143563D01*
X194390478Y-92165788D01*
X194390478Y-92165789D01*
X194429898Y-92179583D01*
X194436326Y-92182245D01*
X194473939Y-92200359D01*
X194514655Y-92209652D01*
X194521324Y-92211574D01*
X194560745Y-92225368D01*
X194602251Y-92230044D01*
X194609076Y-92231203D01*
X194649805Y-92240500D01*
X194695046Y-92240500D01*
X196502816Y-92240500D01*
X196569855Y-92260185D01*
X196595899Y-92282576D01*
X196747436Y-92454755D01*
X196932920Y-92604523D01*
X196932935Y-92604531D01*
X196932942Y-92604538D01*
X196937291Y-92607478D01*
X196936693Y-92608362D01*
X196981861Y-92654411D01*
X196996053Y-92722824D01*
X196971005Y-92788050D01*
X196941897Y-92815520D01*
X196837007Y-92886413D01*
X196836997Y-92886421D01*
X196664881Y-93051379D01*
X196664880Y-93051380D01*
X196607299Y-93129235D01*
X196551609Y-93171429D01*
X196507604Y-93179500D01*
X194162940Y-93179500D01*
X194095901Y-93159815D01*
X194075259Y-93143181D01*
X193012262Y-92080184D01*
X193012259Y-92080182D01*
X192976904Y-92057966D01*
X192971229Y-92053940D01*
X192938589Y-92027910D01*
X192900959Y-92009787D01*
X192894872Y-92006422D01*
X192859525Y-91984212D01*
X192820114Y-91970421D01*
X192813688Y-91967759D01*
X192776061Y-91949639D01*
X192735345Y-91940345D01*
X192728662Y-91938420D01*
X192689259Y-91924632D01*
X192647763Y-91919955D01*
X192640908Y-91918791D01*
X192600200Y-91909501D01*
X192600196Y-91909500D01*
X192600194Y-91909500D01*
X192600191Y-91909500D01*
X181430049Y-91909500D01*
X181363010Y-91889815D01*
X181342368Y-91873181D01*
X181179141Y-91709954D01*
X180992734Y-91579432D01*
X180992732Y-91579431D01*
X180786497Y-91483261D01*
X180786488Y-91483258D01*
X180566697Y-91424366D01*
X180566693Y-91424365D01*
X180566692Y-91424365D01*
X180566691Y-91424364D01*
X180566686Y-91424364D01*
X180340002Y-91404532D01*
X180339998Y-91404532D01*
X180113313Y-91424364D01*
X180113302Y-91424366D01*
X179893511Y-91483258D01*
X179893502Y-91483261D01*
X179687267Y-91579431D01*
X179687265Y-91579432D01*
X179500858Y-91709954D01*
X179339954Y-91870858D01*
X179209432Y-92057265D01*
X179209431Y-92057267D01*
X179113261Y-92263502D01*
X179113258Y-92263511D01*
X179054366Y-92483302D01*
X179054364Y-92483313D01*
X179034532Y-92709998D01*
X179034532Y-92710001D01*
X179054364Y-92936686D01*
X179054366Y-92936697D01*
X179113258Y-93156488D01*
X179113261Y-93156497D01*
X179209431Y-93362732D01*
X179209432Y-93362734D01*
X179339954Y-93549141D01*
X179500858Y-93710045D01*
X179500861Y-93710047D01*
X179687266Y-93840568D01*
X179745275Y-93867618D01*
X179797714Y-93913791D01*
X179816866Y-93980984D01*
X179796650Y-94047865D01*
X179745275Y-94092382D01*
X179687267Y-94119431D01*
X179687265Y-94119432D01*
X179500858Y-94249954D01*
X179339954Y-94410858D01*
X179209432Y-94597265D01*
X179209431Y-94597267D01*
X179113261Y-94803502D01*
X179113258Y-94803511D01*
X179054366Y-95023302D01*
X179054364Y-95023313D01*
X179034532Y-95249998D01*
X179034532Y-95250001D01*
X179054364Y-95476686D01*
X179054366Y-95476697D01*
X179113258Y-95696488D01*
X179113261Y-95696497D01*
X179209431Y-95902732D01*
X179209432Y-95902734D01*
X179339954Y-96089141D01*
X179500858Y-96250045D01*
X179500861Y-96250047D01*
X179687266Y-96380568D01*
X179745275Y-96407618D01*
X179797714Y-96453791D01*
X179816866Y-96520984D01*
X179796650Y-96587865D01*
X179745275Y-96632381D01*
X179728272Y-96640310D01*
X179687267Y-96659431D01*
X179687265Y-96659432D01*
X179500858Y-96789954D01*
X179339954Y-96950858D01*
X179209432Y-97137265D01*
X179209431Y-97137267D01*
X179113261Y-97343502D01*
X179113258Y-97343511D01*
X179054366Y-97563302D01*
X179054364Y-97563313D01*
X179034532Y-97789998D01*
X179034532Y-97790001D01*
X179054364Y-98016686D01*
X179054366Y-98016697D01*
X179113258Y-98236488D01*
X179113261Y-98236497D01*
X179209431Y-98442732D01*
X179209432Y-98442734D01*
X179339954Y-98629141D01*
X179500858Y-98790045D01*
X179500861Y-98790047D01*
X179687266Y-98920568D01*
X179745275Y-98947618D01*
X179797714Y-98993791D01*
X179816866Y-99060984D01*
X179796650Y-99127865D01*
X179745275Y-99172382D01*
X179687267Y-99199431D01*
X179687265Y-99199432D01*
X179500858Y-99329954D01*
X179339954Y-99490858D01*
X179209432Y-99677265D01*
X179209431Y-99677267D01*
X179113261Y-99883502D01*
X179113258Y-99883511D01*
X179054366Y-100103302D01*
X179054364Y-100103313D01*
X179034532Y-100329998D01*
X179034532Y-100330001D01*
X179054364Y-100556686D01*
X179054366Y-100556697D01*
X179113258Y-100776488D01*
X179113261Y-100776497D01*
X179209431Y-100982732D01*
X179209432Y-100982734D01*
X179339954Y-101169141D01*
X179500858Y-101330045D01*
X179500861Y-101330047D01*
X179687266Y-101460568D01*
X179745275Y-101487618D01*
X179797714Y-101533791D01*
X179816866Y-101600984D01*
X179796650Y-101667865D01*
X179745275Y-101712382D01*
X179687267Y-101739431D01*
X179687265Y-101739432D01*
X179500858Y-101869954D01*
X179339954Y-102030858D01*
X179209432Y-102217265D01*
X179209431Y-102217267D01*
X179113261Y-102423502D01*
X179113258Y-102423511D01*
X179054366Y-102643302D01*
X179054364Y-102643313D01*
X179034532Y-102869998D01*
X179034532Y-102870001D01*
X179054364Y-103096686D01*
X179054366Y-103096697D01*
X179113258Y-103316488D01*
X179113261Y-103316497D01*
X179209431Y-103522732D01*
X179209432Y-103522734D01*
X179339954Y-103709141D01*
X179500858Y-103870045D01*
X179500861Y-103870047D01*
X179687266Y-104000568D01*
X179745275Y-104027618D01*
X179797714Y-104073791D01*
X179816866Y-104140984D01*
X179796650Y-104207865D01*
X179745275Y-104252382D01*
X179687267Y-104279431D01*
X179687265Y-104279432D01*
X179500858Y-104409954D01*
X179339954Y-104570858D01*
X179209432Y-104757265D01*
X179209431Y-104757267D01*
X179113261Y-104963502D01*
X179113258Y-104963511D01*
X179054366Y-105183302D01*
X179054364Y-105183313D01*
X179034532Y-105409998D01*
X179034532Y-105410001D01*
X179054364Y-105636686D01*
X179054366Y-105636697D01*
X179113258Y-105856488D01*
X179113261Y-105856497D01*
X179209431Y-106062732D01*
X179209432Y-106062734D01*
X179339954Y-106249141D01*
X179500858Y-106410045D01*
X179500861Y-106410047D01*
X179687266Y-106540568D01*
X179745278Y-106567619D01*
X179797713Y-106613788D01*
X179816866Y-106680982D01*
X179796651Y-106747863D01*
X179745277Y-106792380D01*
X179687268Y-106819430D01*
X179687265Y-106819432D01*
X179500858Y-106949954D01*
X179339954Y-107110858D01*
X179209432Y-107297265D01*
X179209431Y-107297267D01*
X179113261Y-107503502D01*
X179113258Y-107503511D01*
X179054366Y-107723302D01*
X179054364Y-107723313D01*
X179034532Y-107949998D01*
X179034532Y-107950001D01*
X179054364Y-108176686D01*
X179054366Y-108176697D01*
X179113258Y-108396488D01*
X179113261Y-108396497D01*
X179209431Y-108602732D01*
X179209432Y-108602734D01*
X179339954Y-108789141D01*
X179500858Y-108950045D01*
X179500861Y-108950047D01*
X179687266Y-109080568D01*
X179745275Y-109107618D01*
X179797714Y-109153791D01*
X179816866Y-109220984D01*
X179796650Y-109287865D01*
X179745275Y-109332382D01*
X179687267Y-109359431D01*
X179687265Y-109359432D01*
X179500858Y-109489954D01*
X179339954Y-109650858D01*
X179209432Y-109837265D01*
X179209431Y-109837267D01*
X179113261Y-110043502D01*
X179113258Y-110043511D01*
X179054366Y-110263302D01*
X179054364Y-110263313D01*
X179034532Y-110489998D01*
X179034532Y-110490001D01*
X179054364Y-110716686D01*
X179054366Y-110716697D01*
X179113258Y-110936488D01*
X179113261Y-110936497D01*
X179209431Y-111142732D01*
X179209432Y-111142734D01*
X179339954Y-111329141D01*
X179500858Y-111490045D01*
X179500861Y-111490047D01*
X179687266Y-111620568D01*
X179736268Y-111643418D01*
X179745275Y-111647618D01*
X179797714Y-111693791D01*
X179816866Y-111760984D01*
X179796650Y-111827865D01*
X179745275Y-111872382D01*
X179687267Y-111899431D01*
X179687265Y-111899432D01*
X179500858Y-112029954D01*
X179339954Y-112190858D01*
X179209432Y-112377265D01*
X179209431Y-112377267D01*
X179113261Y-112583502D01*
X179113258Y-112583511D01*
X179054366Y-112803302D01*
X179054364Y-112803313D01*
X179034532Y-113029998D01*
X179034532Y-113030001D01*
X179054364Y-113256686D01*
X179054366Y-113256697D01*
X179113258Y-113476488D01*
X179113261Y-113476497D01*
X179209431Y-113682732D01*
X179209432Y-113682734D01*
X179339954Y-113869141D01*
X179500858Y-114030045D01*
X179500861Y-114030047D01*
X179687266Y-114160568D01*
X179739386Y-114184872D01*
X179745275Y-114187618D01*
X179797714Y-114233791D01*
X179816866Y-114300984D01*
X179796650Y-114367865D01*
X179745275Y-114412382D01*
X179687267Y-114439431D01*
X179687265Y-114439432D01*
X179500858Y-114569954D01*
X179339954Y-114730858D01*
X179209432Y-114917265D01*
X179209431Y-114917267D01*
X179113261Y-115123502D01*
X179113258Y-115123511D01*
X179054366Y-115343302D01*
X179054364Y-115343313D01*
X179034532Y-115569998D01*
X179034532Y-115570001D01*
X179054364Y-115796686D01*
X179054366Y-115796697D01*
X179113258Y-116016488D01*
X179113261Y-116016497D01*
X179209431Y-116222732D01*
X179209432Y-116222734D01*
X179339954Y-116409141D01*
X179500858Y-116570045D01*
X179500861Y-116570047D01*
X179687266Y-116700568D01*
X179745275Y-116727618D01*
X179797714Y-116773791D01*
X179816866Y-116840984D01*
X179796650Y-116907865D01*
X179745275Y-116952382D01*
X179687267Y-116979431D01*
X179687265Y-116979432D01*
X179500858Y-117109954D01*
X179339954Y-117270858D01*
X179209432Y-117457265D01*
X179209431Y-117457267D01*
X179113261Y-117663502D01*
X179113258Y-117663511D01*
X179054366Y-117883302D01*
X179054364Y-117883313D01*
X179034532Y-118109998D01*
X179034532Y-118110001D01*
X179054364Y-118336686D01*
X179054366Y-118336697D01*
X179113258Y-118556488D01*
X179113261Y-118556497D01*
X179209431Y-118762732D01*
X179209432Y-118762734D01*
X179339954Y-118949141D01*
X179500858Y-119110045D01*
X179500861Y-119110047D01*
X179687266Y-119240568D01*
X179745865Y-119267893D01*
X179798305Y-119314065D01*
X179817457Y-119381258D01*
X179797242Y-119448139D01*
X179745867Y-119492657D01*
X179687515Y-119519867D01*
X179501179Y-119650342D01*
X179340342Y-119811179D01*
X179209865Y-119997517D01*
X179113734Y-120203673D01*
X179113730Y-120203682D01*
X179061127Y-120399999D01*
X179061128Y-120400000D01*
X179906314Y-120400000D01*
X179880507Y-120440156D01*
X179840000Y-120578111D01*
X179840000Y-120721889D01*
X179880507Y-120859844D01*
X179906314Y-120900000D01*
X179061128Y-120900000D01*
X179113730Y-121096317D01*
X179113734Y-121096326D01*
X179209865Y-121302482D01*
X179340342Y-121488820D01*
X179501179Y-121649657D01*
X179687518Y-121780134D01*
X179687520Y-121780135D01*
X179745865Y-121807342D01*
X179798305Y-121853514D01*
X179817457Y-121920707D01*
X179797242Y-121987589D01*
X179745867Y-122032105D01*
X179687268Y-122059431D01*
X179687264Y-122059433D01*
X179500858Y-122189954D01*
X179339954Y-122350858D01*
X179209432Y-122537265D01*
X179209431Y-122537267D01*
X179113261Y-122743502D01*
X179113258Y-122743511D01*
X179054366Y-122963302D01*
X179054364Y-122963313D01*
X179034532Y-123189998D01*
X179034532Y-123190001D01*
X179054364Y-123416686D01*
X179054366Y-123416697D01*
X179113258Y-123636488D01*
X179113261Y-123636497D01*
X179209431Y-123842732D01*
X179209432Y-123842734D01*
X179339954Y-124029141D01*
X179500858Y-124190045D01*
X179500861Y-124190047D01*
X179687266Y-124320568D01*
X179745275Y-124347618D01*
X179797714Y-124393791D01*
X179816866Y-124460984D01*
X179796650Y-124527865D01*
X179745275Y-124572382D01*
X179687267Y-124599431D01*
X179687265Y-124599432D01*
X179500858Y-124729954D01*
X179339954Y-124890858D01*
X179209432Y-125077265D01*
X179209431Y-125077267D01*
X179113261Y-125283502D01*
X179113258Y-125283511D01*
X179054366Y-125503302D01*
X179054364Y-125503313D01*
X179034532Y-125729998D01*
X179034532Y-125730001D01*
X165600000Y-125730001D01*
X165600000Y-125658111D01*
X165559493Y-125520156D01*
X165533686Y-125480000D01*
X166378872Y-125480000D01*
X166378872Y-125479999D01*
X166326269Y-125283682D01*
X166326265Y-125283673D01*
X166230134Y-125077517D01*
X166099657Y-124891179D01*
X165938820Y-124730342D01*
X165752482Y-124599865D01*
X165694133Y-124572657D01*
X165641694Y-124526484D01*
X165622542Y-124459291D01*
X165642758Y-124392410D01*
X165694129Y-124347895D01*
X165752734Y-124320568D01*
X165939139Y-124190047D01*
X166100047Y-124029139D01*
X166230568Y-123842734D01*
X166326739Y-123636496D01*
X166385635Y-123416692D01*
X166405468Y-123190000D01*
X166385635Y-122963308D01*
X166326739Y-122743504D01*
X166230568Y-122537266D01*
X166100047Y-122350861D01*
X166100045Y-122350858D01*
X165939141Y-122189954D01*
X165752734Y-122059432D01*
X165752728Y-122059429D01*
X165694725Y-122032382D01*
X165642285Y-121986210D01*
X165623133Y-121919017D01*
X165643348Y-121852135D01*
X165694725Y-121807618D01*
X165695319Y-121807341D01*
X165752734Y-121780568D01*
X165939139Y-121650047D01*
X166100047Y-121489139D01*
X166230568Y-121302734D01*
X166326739Y-121096496D01*
X166385635Y-120876692D01*
X166405468Y-120650000D01*
X166385635Y-120423308D01*
X166326739Y-120203504D01*
X166230568Y-119997266D01*
X166113319Y-119829815D01*
X166100045Y-119810858D01*
X165939141Y-119649954D01*
X165752734Y-119519432D01*
X165752728Y-119519429D01*
X165725038Y-119506517D01*
X165694724Y-119492381D01*
X165642285Y-119446210D01*
X165623133Y-119379017D01*
X165643348Y-119312135D01*
X165694725Y-119267618D01*
X165752734Y-119240568D01*
X165939139Y-119110047D01*
X166100047Y-118949139D01*
X166230568Y-118762734D01*
X166326739Y-118556496D01*
X166385635Y-118336692D01*
X166405468Y-118110000D01*
X166385635Y-117883308D01*
X166326739Y-117663504D01*
X166230568Y-117457266D01*
X166125118Y-117306666D01*
X166100045Y-117270858D01*
X165939141Y-117109954D01*
X165752734Y-116979432D01*
X165752728Y-116979429D01*
X165694725Y-116952382D01*
X165642285Y-116906210D01*
X165623133Y-116839017D01*
X165643348Y-116772135D01*
X165694725Y-116727618D01*
X165752734Y-116700568D01*
X165939139Y-116570047D01*
X166100047Y-116409139D01*
X166230568Y-116222734D01*
X166326739Y-116016496D01*
X166385635Y-115796692D01*
X166405468Y-115570000D01*
X166385635Y-115343308D01*
X166326739Y-115123504D01*
X166230568Y-114917266D01*
X166100047Y-114730861D01*
X166100045Y-114730858D01*
X165939141Y-114569954D01*
X165752734Y-114439432D01*
X165752728Y-114439429D01*
X165694725Y-114412382D01*
X165642285Y-114366210D01*
X165623133Y-114299017D01*
X165643348Y-114232135D01*
X165694725Y-114187618D01*
X165700614Y-114184872D01*
X165752734Y-114160568D01*
X165939139Y-114030047D01*
X166100047Y-113869139D01*
X166230568Y-113682734D01*
X166326739Y-113476496D01*
X166385635Y-113256692D01*
X166405468Y-113030000D01*
X166385635Y-112803308D01*
X166326739Y-112583504D01*
X166230568Y-112377266D01*
X166100047Y-112190861D01*
X166100045Y-112190858D01*
X165939141Y-112029954D01*
X165752734Y-111899432D01*
X165752728Y-111899429D01*
X165694725Y-111872382D01*
X165642285Y-111826210D01*
X165623133Y-111759017D01*
X165643348Y-111692135D01*
X165694725Y-111647618D01*
X165703732Y-111643418D01*
X165752734Y-111620568D01*
X165939139Y-111490047D01*
X166100047Y-111329139D01*
X166230568Y-111142734D01*
X166326739Y-110936496D01*
X166385635Y-110716692D01*
X166405468Y-110490000D01*
X166385635Y-110263308D01*
X166326739Y-110043504D01*
X166230568Y-109837266D01*
X166100047Y-109650861D01*
X166100045Y-109650858D01*
X165939141Y-109489954D01*
X165752734Y-109359432D01*
X165752728Y-109359429D01*
X165694725Y-109332382D01*
X165642285Y-109286210D01*
X165623133Y-109219017D01*
X165643348Y-109152135D01*
X165694725Y-109107618D01*
X165752734Y-109080568D01*
X165939139Y-108950047D01*
X166100047Y-108789139D01*
X166230568Y-108602734D01*
X166326739Y-108396496D01*
X166385635Y-108176692D01*
X166405468Y-107950000D01*
X166385635Y-107723308D01*
X166326739Y-107503504D01*
X166230568Y-107297266D01*
X166100047Y-107110861D01*
X166100045Y-107110858D01*
X165939141Y-106949954D01*
X165808569Y-106858528D01*
X165752734Y-106819432D01*
X165694722Y-106792380D01*
X165642284Y-106746208D01*
X165623133Y-106679014D01*
X165643349Y-106612133D01*
X165694721Y-106567619D01*
X165752734Y-106540568D01*
X165939139Y-106410047D01*
X166100047Y-106249139D01*
X166230568Y-106062734D01*
X166326739Y-105856496D01*
X166385635Y-105636692D01*
X166405468Y-105410000D01*
X166385635Y-105183308D01*
X166326739Y-104963504D01*
X166230568Y-104757266D01*
X166113319Y-104589815D01*
X166100045Y-104570858D01*
X165939141Y-104409954D01*
X165752735Y-104279433D01*
X165752736Y-104279433D01*
X165752734Y-104279432D01*
X165694722Y-104252380D01*
X165642284Y-104206208D01*
X165623133Y-104139014D01*
X165643349Y-104072133D01*
X165694721Y-104027619D01*
X165752734Y-104000568D01*
X165939139Y-103870047D01*
X166100047Y-103709139D01*
X166230568Y-103522734D01*
X166326739Y-103316496D01*
X166385635Y-103096692D01*
X166405468Y-102870000D01*
X166385635Y-102643308D01*
X166326739Y-102423504D01*
X166230568Y-102217266D01*
X166113319Y-102049815D01*
X166100045Y-102030858D01*
X165939141Y-101869954D01*
X165752734Y-101739432D01*
X165752728Y-101739429D01*
X165694725Y-101712382D01*
X165642285Y-101666210D01*
X165623133Y-101599017D01*
X165643348Y-101532135D01*
X165694725Y-101487618D01*
X165752734Y-101460568D01*
X165939139Y-101330047D01*
X166100047Y-101169139D01*
X166230568Y-100982734D01*
X166326739Y-100776496D01*
X166385635Y-100556692D01*
X166405468Y-100330000D01*
X166385635Y-100103308D01*
X166326739Y-99883504D01*
X166230568Y-99677266D01*
X166113319Y-99509815D01*
X166100045Y-99490858D01*
X165939141Y-99329954D01*
X165752734Y-99199432D01*
X165752728Y-99199429D01*
X165694725Y-99172382D01*
X165642285Y-99126210D01*
X165623133Y-99059017D01*
X165643348Y-98992135D01*
X165694725Y-98947618D01*
X165752734Y-98920568D01*
X165939139Y-98790047D01*
X166100047Y-98629139D01*
X166230568Y-98442734D01*
X166326739Y-98236496D01*
X166385635Y-98016692D01*
X166405468Y-97790000D01*
X166385635Y-97563308D01*
X166326739Y-97343504D01*
X166230568Y-97137266D01*
X166113319Y-96969815D01*
X166100045Y-96950858D01*
X165939141Y-96789954D01*
X165752734Y-96659432D01*
X165752728Y-96659429D01*
X165725038Y-96646517D01*
X165694724Y-96632381D01*
X165642285Y-96586210D01*
X165623133Y-96519017D01*
X165643348Y-96452135D01*
X165694725Y-96407618D01*
X165752734Y-96380568D01*
X165939139Y-96250047D01*
X166100047Y-96089139D01*
X166230568Y-95902734D01*
X166326739Y-95696496D01*
X166385635Y-95476692D01*
X166405468Y-95250000D01*
X166385635Y-95023308D01*
X166326739Y-94803504D01*
X166230568Y-94597266D01*
X166113319Y-94429815D01*
X166100045Y-94410858D01*
X165939141Y-94249954D01*
X165752734Y-94119432D01*
X165752728Y-94119429D01*
X165694725Y-94092382D01*
X165642285Y-94046210D01*
X165623133Y-93979017D01*
X165643348Y-93912135D01*
X165694725Y-93867618D01*
X165752734Y-93840568D01*
X165939139Y-93710047D01*
X166100047Y-93549139D01*
X166230568Y-93362734D01*
X166326739Y-93156496D01*
X166385635Y-92936692D01*
X166405468Y-92710000D01*
X166385635Y-92483308D01*
X166326739Y-92263504D01*
X166230568Y-92057266D01*
X166113319Y-91889815D01*
X166100045Y-91870858D01*
X165939141Y-91709954D01*
X165752734Y-91579432D01*
X165752732Y-91579431D01*
X165546497Y-91483261D01*
X165546488Y-91483258D01*
X165326697Y-91424366D01*
X165326693Y-91424365D01*
X165326692Y-91424365D01*
X165326691Y-91424364D01*
X165326686Y-91424364D01*
X165100002Y-91404532D01*
X165099998Y-91404532D01*
X164873313Y-91424364D01*
X164873302Y-91424366D01*
X164653511Y-91483258D01*
X164653502Y-91483261D01*
X164447267Y-91579431D01*
X164447265Y-91579432D01*
X164260858Y-91709954D01*
X164099954Y-91870858D01*
X163969432Y-92057265D01*
X163969431Y-92057267D01*
X163873261Y-92263502D01*
X163873258Y-92263511D01*
X163814366Y-92483302D01*
X163814364Y-92483313D01*
X163794532Y-92709998D01*
X163794532Y-92710001D01*
X163814364Y-92936686D01*
X163814366Y-92936697D01*
X163873258Y-93156488D01*
X163873261Y-93156497D01*
X163969431Y-93362732D01*
X163969432Y-93362734D01*
X164099954Y-93549141D01*
X164260858Y-93710045D01*
X164260861Y-93710047D01*
X164447266Y-93840568D01*
X164505275Y-93867618D01*
X164557714Y-93913791D01*
X164576866Y-93980984D01*
X164556650Y-94047865D01*
X164505275Y-94092382D01*
X164447267Y-94119431D01*
X164447265Y-94119432D01*
X164260858Y-94249954D01*
X164097632Y-94413181D01*
X164036309Y-94446666D01*
X164009951Y-94449500D01*
X158952351Y-94449500D01*
X158885312Y-94429815D01*
X158839557Y-94377011D01*
X158829061Y-94338752D01*
X158824091Y-94292516D01*
X158773797Y-94157671D01*
X158773793Y-94157664D01*
X158687547Y-94042455D01*
X158687544Y-94042452D01*
X158572335Y-93956206D01*
X158572328Y-93956202D01*
X158437482Y-93905908D01*
X158437483Y-93905908D01*
X158377883Y-93899501D01*
X158377881Y-93899500D01*
X158377873Y-93899500D01*
X158377864Y-93899500D01*
X156582129Y-93899500D01*
X156582123Y-93899501D01*
X156522516Y-93905908D01*
X156387671Y-93956202D01*
X156387664Y-93956206D01*
X156272455Y-94042452D01*
X156272452Y-94042455D01*
X156186206Y-94157664D01*
X156186202Y-94157671D01*
X156135908Y-94292517D01*
X156129501Y-94352116D01*
X156129500Y-94352135D01*
X156129500Y-96147870D01*
X156129501Y-96147876D01*
X156135908Y-96207483D01*
X156186202Y-96342328D01*
X156186206Y-96342335D01*
X156272452Y-96457544D01*
X156272455Y-96457547D01*
X156387664Y-96543793D01*
X156387671Y-96543797D01*
X156519081Y-96592810D01*
X156575015Y-96634681D01*
X156599432Y-96700145D01*
X156584580Y-96768418D01*
X156563430Y-96796673D01*
X156441503Y-96918600D01*
X156305965Y-97112169D01*
X156305964Y-97112171D01*
X156206098Y-97326335D01*
X156206094Y-97326344D01*
X156144938Y-97554586D01*
X156144936Y-97554596D01*
X156124341Y-97789999D01*
X156124341Y-97790000D01*
X156144936Y-98025403D01*
X156144938Y-98025413D01*
X156206094Y-98253655D01*
X156206096Y-98253659D01*
X156206097Y-98253663D01*
X156208819Y-98259500D01*
X156305965Y-98467830D01*
X156305967Y-98467834D01*
X156441501Y-98661395D01*
X156441506Y-98661402D01*
X156608597Y-98828493D01*
X156608603Y-98828498D01*
X156794594Y-98958730D01*
X156838219Y-99013307D01*
X156845413Y-99082805D01*
X156813890Y-99145160D01*
X156794595Y-99161880D01*
X156608922Y-99291890D01*
X156608920Y-99291891D01*
X156441891Y-99458920D01*
X156441886Y-99458926D01*
X156306400Y-99652420D01*
X156306399Y-99652422D01*
X156206570Y-99866507D01*
X156206567Y-99866513D01*
X156149364Y-100079999D01*
X156149364Y-100080000D01*
X157046314Y-100080000D01*
X157020507Y-100120156D01*
X156980000Y-100258111D01*
X156980000Y-100401889D01*
X157020507Y-100539844D01*
X157046314Y-100580000D01*
X156149364Y-100580000D01*
X156206567Y-100793486D01*
X156206570Y-100793492D01*
X156306399Y-101007578D01*
X156441894Y-101201082D01*
X156608917Y-101368105D01*
X156802421Y-101503600D01*
X157016507Y-101603429D01*
X157016516Y-101603433D01*
X157230000Y-101660634D01*
X157230000Y-100765501D01*
X157337685Y-100814680D01*
X157444237Y-100830000D01*
X157515763Y-100830000D01*
X157622315Y-100814680D01*
X157730000Y-100765501D01*
X157730000Y-101660633D01*
X157943483Y-101603433D01*
X157943492Y-101603429D01*
X158157578Y-101503600D01*
X158351082Y-101368105D01*
X158518105Y-101201082D01*
X158653600Y-101007578D01*
X158753429Y-100793492D01*
X158753432Y-100793486D01*
X158810636Y-100580000D01*
X157913686Y-100580000D01*
X157939493Y-100539844D01*
X157980000Y-100401889D01*
X157980000Y-100258111D01*
X157939493Y-100120156D01*
X157913686Y-100080000D01*
X158810636Y-100080000D01*
X158810635Y-100079999D01*
X158753432Y-99866513D01*
X158753429Y-99866507D01*
X158653600Y-99652422D01*
X158653599Y-99652420D01*
X158518113Y-99458926D01*
X158518108Y-99458920D01*
X158351078Y-99291890D01*
X158165405Y-99161879D01*
X158121780Y-99107302D01*
X158114588Y-99037804D01*
X158146110Y-98975449D01*
X158165406Y-98958730D01*
X158219907Y-98920568D01*
X158351401Y-98828495D01*
X158518495Y-98661401D01*
X158531116Y-98643375D01*
X158585693Y-98599752D01*
X158632691Y-98590500D01*
X159907060Y-98590500D01*
X159974099Y-98610185D01*
X159994741Y-98626819D01*
X162327740Y-100959818D01*
X162339507Y-100967211D01*
X162363104Y-100982038D01*
X162368757Y-100986049D01*
X162401413Y-101012091D01*
X162439044Y-101030213D01*
X162445106Y-101033563D01*
X162480478Y-101055789D01*
X162519898Y-101069583D01*
X162526326Y-101072245D01*
X162563939Y-101090359D01*
X162604655Y-101099652D01*
X162611324Y-101101574D01*
X162650745Y-101115368D01*
X162692251Y-101120044D01*
X162699076Y-101121203D01*
X162739805Y-101130500D01*
X162785046Y-101130500D01*
X164009951Y-101130500D01*
X164076990Y-101150185D01*
X164097632Y-101166819D01*
X164260858Y-101330045D01*
X164260861Y-101330047D01*
X164447266Y-101460568D01*
X164505275Y-101487618D01*
X164557714Y-101533791D01*
X164576866Y-101600984D01*
X164556650Y-101667865D01*
X164505275Y-101712382D01*
X164447267Y-101739431D01*
X164447265Y-101739432D01*
X164260858Y-101869954D01*
X164099954Y-102030858D01*
X163969432Y-102217265D01*
X163969431Y-102217267D01*
X163873261Y-102423502D01*
X163873258Y-102423511D01*
X163814366Y-102643302D01*
X163814364Y-102643313D01*
X163794532Y-102869998D01*
X163794532Y-102870001D01*
X163814364Y-103096686D01*
X163814366Y-103096697D01*
X163873258Y-103316488D01*
X163873261Y-103316497D01*
X163969431Y-103522732D01*
X163969432Y-103522734D01*
X164099954Y-103709141D01*
X164260858Y-103870045D01*
X164260861Y-103870047D01*
X164447266Y-104000568D01*
X164505278Y-104027619D01*
X164557713Y-104073788D01*
X164576866Y-104140982D01*
X164556651Y-104207863D01*
X164505277Y-104252380D01*
X164447268Y-104279430D01*
X164447265Y-104279432D01*
X164260858Y-104409954D01*
X164099954Y-104570858D01*
X163969432Y-104757265D01*
X163969431Y-104757267D01*
X163873261Y-104963502D01*
X163873258Y-104963511D01*
X163814366Y-105183302D01*
X163814364Y-105183313D01*
X163794532Y-105409998D01*
X163794532Y-105410001D01*
X163814364Y-105636686D01*
X163814366Y-105636697D01*
X163873258Y-105856488D01*
X163873261Y-105856497D01*
X163969431Y-106062732D01*
X163969432Y-106062734D01*
X164099954Y-106249141D01*
X164260858Y-106410045D01*
X164260861Y-106410047D01*
X164447266Y-106540568D01*
X164505278Y-106567619D01*
X164557713Y-106613788D01*
X164576866Y-106680982D01*
X164556651Y-106747863D01*
X164505277Y-106792380D01*
X164447268Y-106819430D01*
X164447265Y-106819432D01*
X164260858Y-106949954D01*
X164099954Y-107110858D01*
X163969432Y-107297265D01*
X163969431Y-107297267D01*
X163873261Y-107503502D01*
X163873258Y-107503511D01*
X163814366Y-107723302D01*
X163814364Y-107723313D01*
X163794532Y-107949998D01*
X163794532Y-107950001D01*
X163814364Y-108176686D01*
X163814366Y-108176697D01*
X163873258Y-108396488D01*
X163873261Y-108396497D01*
X163969431Y-108602732D01*
X163969432Y-108602734D01*
X164099954Y-108789141D01*
X164260858Y-108950045D01*
X164260861Y-108950047D01*
X164447266Y-109080568D01*
X164505275Y-109107618D01*
X164557714Y-109153791D01*
X164576866Y-109220984D01*
X164556650Y-109287865D01*
X164505275Y-109332382D01*
X164447267Y-109359431D01*
X164447265Y-109359432D01*
X164260858Y-109489954D01*
X164099954Y-109650858D01*
X163969432Y-109837265D01*
X163969431Y-109837267D01*
X163873261Y-110043502D01*
X163873258Y-110043511D01*
X163814366Y-110263302D01*
X163814364Y-110263313D01*
X163794532Y-110489998D01*
X163794532Y-110490001D01*
X163814364Y-110716686D01*
X163814366Y-110716697D01*
X163873258Y-110936488D01*
X163873261Y-110936497D01*
X163969431Y-111142732D01*
X163969432Y-111142734D01*
X164099954Y-111329141D01*
X164260858Y-111490045D01*
X164260861Y-111490047D01*
X164447266Y-111620568D01*
X164496268Y-111643418D01*
X164505275Y-111647618D01*
X164557714Y-111693791D01*
X164576866Y-111760984D01*
X164556650Y-111827865D01*
X164505275Y-111872382D01*
X164447267Y-111899431D01*
X164447265Y-111899432D01*
X164260858Y-112029954D01*
X164099954Y-112190858D01*
X163969432Y-112377265D01*
X163969431Y-112377267D01*
X163873261Y-112583502D01*
X163873258Y-112583511D01*
X163814366Y-112803302D01*
X163814364Y-112803313D01*
X163794532Y-113029998D01*
X163794532Y-113030001D01*
X163814364Y-113256686D01*
X163814366Y-113256697D01*
X163873258Y-113476488D01*
X163873261Y-113476497D01*
X163969431Y-113682732D01*
X163969432Y-113682734D01*
X164099954Y-113869141D01*
X164260858Y-114030045D01*
X164260861Y-114030047D01*
X164447266Y-114160568D01*
X164499386Y-114184872D01*
X164505275Y-114187618D01*
X164557714Y-114233791D01*
X164576866Y-114300984D01*
X164556650Y-114367865D01*
X164505275Y-114412382D01*
X164447267Y-114439431D01*
X164447265Y-114439432D01*
X164260858Y-114569954D01*
X164099954Y-114730858D01*
X163969432Y-114917265D01*
X163969431Y-114917267D01*
X163873261Y-115123502D01*
X163873258Y-115123511D01*
X163814366Y-115343302D01*
X163814364Y-115343313D01*
X163794532Y-115569998D01*
X163794532Y-115570001D01*
X163814364Y-115796686D01*
X163814366Y-115796697D01*
X163873258Y-116016488D01*
X163873261Y-116016497D01*
X163969431Y-116222732D01*
X163969432Y-116222734D01*
X164099954Y-116409141D01*
X164260858Y-116570045D01*
X164260861Y-116570047D01*
X164447266Y-116700568D01*
X164505275Y-116727618D01*
X164557714Y-116773791D01*
X164576866Y-116840984D01*
X164556650Y-116907865D01*
X164505275Y-116952382D01*
X164447267Y-116979431D01*
X164447265Y-116979432D01*
X164260858Y-117109954D01*
X164097632Y-117273181D01*
X164036309Y-117306666D01*
X164009951Y-117309500D01*
X162380194Y-117309500D01*
X162199805Y-117309500D01*
X162199803Y-117309500D01*
X162199797Y-117309501D01*
X162159098Y-117318790D01*
X162152242Y-117319955D01*
X162110743Y-117324632D01*
X162071328Y-117338423D01*
X162064646Y-117340348D01*
X162023940Y-117349640D01*
X161986326Y-117367753D01*
X161979901Y-117370414D01*
X161940482Y-117384209D01*
X161940474Y-117384213D01*
X161905117Y-117406428D01*
X161899032Y-117409791D01*
X161861413Y-117427908D01*
X161861411Y-117427909D01*
X161828769Y-117453941D01*
X161823096Y-117457966D01*
X161787739Y-117480183D01*
X161697164Y-117570755D01*
X161697160Y-117570761D01*
X159454741Y-119813181D01*
X159393418Y-119846666D01*
X159367060Y-119849500D01*
X158632691Y-119849500D01*
X158565652Y-119829815D01*
X158531116Y-119796624D01*
X158518495Y-119778599D01*
X158396567Y-119656671D01*
X158363084Y-119595351D01*
X158368068Y-119525659D01*
X158409939Y-119469725D01*
X158440915Y-119452810D01*
X158572331Y-119403796D01*
X158687546Y-119317546D01*
X158773796Y-119202331D01*
X158824091Y-119067483D01*
X158830500Y-119007873D01*
X158830499Y-117212128D01*
X158824091Y-117152517D01*
X158817976Y-117136123D01*
X158773797Y-117017671D01*
X158773793Y-117017664D01*
X158687547Y-116902455D01*
X158687544Y-116902452D01*
X158572335Y-116816206D01*
X158572328Y-116816202D01*
X158437482Y-116765908D01*
X158437483Y-116765908D01*
X158377883Y-116759501D01*
X158377881Y-116759500D01*
X158377873Y-116759500D01*
X158377864Y-116759500D01*
X156582129Y-116759500D01*
X156582123Y-116759501D01*
X156522516Y-116765908D01*
X156387671Y-116816202D01*
X156387664Y-116816206D01*
X156272455Y-116902452D01*
X156272452Y-116902455D01*
X156186206Y-117017664D01*
X156186202Y-117017671D01*
X156135908Y-117152517D01*
X156129501Y-117212116D01*
X156129501Y-117212123D01*
X156129500Y-117212135D01*
X156129500Y-119007870D01*
X156129501Y-119007876D01*
X156135908Y-119067483D01*
X156186202Y-119202328D01*
X156186206Y-119202335D01*
X156272452Y-119317544D01*
X156272455Y-119317547D01*
X156387664Y-119403793D01*
X156387671Y-119403797D01*
X156519081Y-119452810D01*
X156575015Y-119494681D01*
X156599432Y-119560145D01*
X156584580Y-119628418D01*
X156563430Y-119656673D01*
X156441503Y-119778600D01*
X156305965Y-119972169D01*
X156305964Y-119972171D01*
X156206098Y-120186335D01*
X156206094Y-120186344D01*
X156144938Y-120414586D01*
X156144936Y-120414596D01*
X156124341Y-120649999D01*
X156124341Y-120650000D01*
X154170500Y-120650000D01*
X154170500Y-89647870D01*
X185409500Y-89647870D01*
X185409501Y-89647876D01*
X185415908Y-89707483D01*
X185466202Y-89842328D01*
X185466206Y-89842335D01*
X185552452Y-89957544D01*
X185552455Y-89957547D01*
X185667664Y-90043793D01*
X185667671Y-90043797D01*
X185802517Y-90094091D01*
X185802516Y-90094091D01*
X185809444Y-90094835D01*
X185862127Y-90100500D01*
X187517872Y-90100499D01*
X187577483Y-90094091D01*
X187712331Y-90043796D01*
X187827546Y-89957546D01*
X187913796Y-89842331D01*
X187964091Y-89707483D01*
X187970500Y-89647873D01*
X187970499Y-87992128D01*
X187964091Y-87932517D01*
X187939936Y-87867755D01*
X187913797Y-87797671D01*
X187913793Y-87797664D01*
X187827547Y-87682455D01*
X187827544Y-87682452D01*
X187712335Y-87596206D01*
X187712328Y-87596202D01*
X187577482Y-87545908D01*
X187577483Y-87545908D01*
X187517883Y-87539501D01*
X187517881Y-87539500D01*
X187517873Y-87539500D01*
X187517864Y-87539500D01*
X185862129Y-87539500D01*
X185862123Y-87539501D01*
X185802516Y-87545908D01*
X185667671Y-87596202D01*
X185667664Y-87596206D01*
X185552455Y-87682452D01*
X185552452Y-87682455D01*
X185466206Y-87797664D01*
X185466202Y-87797671D01*
X185415908Y-87932517D01*
X185409501Y-87992116D01*
X185409501Y-87992123D01*
X185409500Y-87992135D01*
X185409500Y-89647870D01*
X154170500Y-89647870D01*
X154170500Y-84800000D01*
X155544341Y-84800000D01*
X155564936Y-85035403D01*
X155564938Y-85035413D01*
X155626094Y-85263655D01*
X155626096Y-85263659D01*
X155626097Y-85263663D01*
X155659516Y-85335329D01*
X155725964Y-85477828D01*
X155725965Y-85477830D01*
X155861505Y-85671402D01*
X156028597Y-85838494D01*
X156222169Y-85974034D01*
X156222171Y-85974035D01*
X156436337Y-86073903D01*
X156664592Y-86135063D01*
X156841032Y-86150499D01*
X156841033Y-86150500D01*
X156841034Y-86150500D01*
X156958967Y-86150500D01*
X156958967Y-86150499D01*
X157135408Y-86135063D01*
X157363663Y-86073903D01*
X157577829Y-85974035D01*
X157771401Y-85838495D01*
X157938495Y-85671401D01*
X158074035Y-85477830D01*
X158173903Y-85263663D01*
X158235063Y-85035408D01*
X158255659Y-84800000D01*
X158235063Y-84564592D01*
X158173903Y-84336337D01*
X158074035Y-84122171D01*
X158074034Y-84122169D01*
X157938494Y-83928597D01*
X157829899Y-83820002D01*
X185405111Y-83820002D01*
X185424630Y-84043113D01*
X185424632Y-84043124D01*
X185482596Y-84259450D01*
X185482600Y-84259459D01*
X185577253Y-84462444D01*
X185625334Y-84531111D01*
X186206922Y-83949523D01*
X186230507Y-84029844D01*
X186308239Y-84150798D01*
X186416900Y-84244952D01*
X186547685Y-84304680D01*
X186557466Y-84306086D01*
X185978887Y-84884665D01*
X186047548Y-84932742D01*
X186047554Y-84932746D01*
X186250540Y-85027399D01*
X186250549Y-85027403D01*
X186466875Y-85085367D01*
X186466886Y-85085369D01*
X186689998Y-85104889D01*
X186690002Y-85104889D01*
X186913113Y-85085369D01*
X186913124Y-85085367D01*
X187129450Y-85027403D01*
X187129464Y-85027398D01*
X187332440Y-84932749D01*
X187401111Y-84884664D01*
X186822534Y-84306086D01*
X186832315Y-84304680D01*
X186963100Y-84244952D01*
X187071761Y-84150798D01*
X187149493Y-84029844D01*
X187173077Y-83949523D01*
X187754664Y-84531110D01*
X187802749Y-84462440D01*
X187897398Y-84259464D01*
X187897403Y-84259450D01*
X187955367Y-84043124D01*
X187955369Y-84043113D01*
X187974889Y-83820002D01*
X187974889Y-83819997D01*
X187955369Y-83596886D01*
X187955367Y-83596875D01*
X187897403Y-83380549D01*
X187897399Y-83380540D01*
X187802746Y-83177556D01*
X187754664Y-83108887D01*
X187173076Y-83690474D01*
X187149493Y-83610156D01*
X187071761Y-83489202D01*
X186963100Y-83395048D01*
X186832315Y-83335320D01*
X186822533Y-83333913D01*
X187401111Y-82755334D01*
X187332444Y-82707253D01*
X187129459Y-82612600D01*
X187129450Y-82612596D01*
X186913124Y-82554632D01*
X186913113Y-82554630D01*
X186690002Y-82535111D01*
X186689998Y-82535111D01*
X186466886Y-82554630D01*
X186466875Y-82554632D01*
X186250549Y-82612596D01*
X186250540Y-82612600D01*
X186047552Y-82707255D01*
X185978888Y-82755333D01*
X185978887Y-82755334D01*
X186557467Y-83333913D01*
X186547685Y-83335320D01*
X186416900Y-83395048D01*
X186308239Y-83489202D01*
X186230507Y-83610156D01*
X186206923Y-83690476D01*
X185625334Y-83108887D01*
X185625333Y-83108888D01*
X185577255Y-83177552D01*
X185482600Y-83380540D01*
X185482596Y-83380549D01*
X185424632Y-83596875D01*
X185424630Y-83596886D01*
X185405111Y-83819997D01*
X185405111Y-83820002D01*
X157829899Y-83820002D01*
X157771402Y-83761505D01*
X157577830Y-83625965D01*
X157577828Y-83625964D01*
X157470745Y-83576030D01*
X157363663Y-83526097D01*
X157363659Y-83526096D01*
X157363655Y-83526094D01*
X157135413Y-83464938D01*
X157135403Y-83464936D01*
X156958967Y-83449500D01*
X156958966Y-83449500D01*
X156841034Y-83449500D01*
X156841033Y-83449500D01*
X156664596Y-83464936D01*
X156664586Y-83464938D01*
X156436344Y-83526094D01*
X156436335Y-83526098D01*
X156222171Y-83625964D01*
X156222169Y-83625965D01*
X156028597Y-83761505D01*
X155861506Y-83928597D01*
X155861501Y-83928604D01*
X155725967Y-84122165D01*
X155725965Y-84122169D01*
X155626098Y-84336335D01*
X155626094Y-84336344D01*
X155564938Y-84564586D01*
X155564936Y-84564596D01*
X155544341Y-84799999D01*
X155544341Y-84800000D01*
X154170500Y-84800000D01*
X154170500Y-81904500D01*
X154190185Y-81837461D01*
X154242989Y-81791706D01*
X154294500Y-81780500D01*
X196269260Y-81780500D01*
X196336299Y-81800185D01*
G37*
G04 #@! TD.AperFunction*
M02*
